<mxfile host="app.diagrams.net" agent="Mozilla/5.0 (Windows NT 10.0; Win64; x64) AppleWebKit/537.36 (KHTML, like Gecko) Chrome/118.0.0.0 Safari/537.36" version="26.0.2" pages="9">
  <diagram name="2.2系统流程图" id="O2KxjRcU4iF3vcGkpomI">
    <mxGraphModel dx="1820" dy="873" grid="1" gridSize="10" guides="1" tooltips="1" connect="1" arrows="1" fold="1" page="1" pageScale="1" pageWidth="827" pageHeight="1169" math="0" shadow="0">
      <root>
        <mxCell id="0" />
        <mxCell id="1" parent="0" />
        <mxCell id="EPNUv70RP5ekrgBef1S8-3" value="" style="edgeStyle=orthogonalEdgeStyle;rounded=0;orthogonalLoop=1;jettySize=auto;html=1;" parent="1" target="EPNUv70RP5ekrgBef1S8-2" edge="1">
          <mxGeometry relative="1" as="geometry">
            <mxPoint x="150" y="90" as="sourcePoint" />
          </mxGeometry>
        </mxCell>
        <mxCell id="EPNUv70RP5ekrgBef1S8-5" value="" style="edgeStyle=orthogonalEdgeStyle;rounded=0;orthogonalLoop=1;jettySize=auto;html=1;" parent="1" source="EPNUv70RP5ekrgBef1S8-2" edge="1">
          <mxGeometry relative="1" as="geometry">
            <mxPoint x="380" y="90" as="targetPoint" />
          </mxGeometry>
        </mxCell>
        <mxCell id="EPNUv70RP5ekrgBef1S8-9" value="" style="edgeStyle=orthogonalEdgeStyle;rounded=0;orthogonalLoop=1;jettySize=auto;html=1;" parent="1" source="EPNUv70RP5ekrgBef1S8-2" target="EPNUv70RP5ekrgBef1S8-8" edge="1">
          <mxGeometry relative="1" as="geometry" />
        </mxCell>
        <mxCell id="EPNUv70RP5ekrgBef1S8-2" value="业务员处理" style="verticalLabelPosition=middle;verticalAlign=middle;html=1;shape=trapezoid;perimeter=trapezoidPerimeter;whiteSpace=wrap;size=0.23;arcSize=10;flipV=1;labelPosition=center;align=center;" parent="1" vertex="1">
          <mxGeometry x="210" y="60" width="100" height="60" as="geometry" />
        </mxCell>
        <mxCell id="EPNUv70RP5ekrgBef1S8-7" value="" style="edgeStyle=orthogonalEdgeStyle;rounded=0;orthogonalLoop=1;jettySize=auto;html=1;" parent="1" target="EPNUv70RP5ekrgBef1S8-6" edge="1">
          <mxGeometry relative="1" as="geometry">
            <mxPoint x="500" y="90" as="sourcePoint" />
          </mxGeometry>
        </mxCell>
        <mxCell id="EPNUv70RP5ekrgBef1S8-6" value="储户签字" style="verticalLabelPosition=middle;verticalAlign=middle;html=1;shape=trapezoid;perimeter=trapezoidPerimeter;whiteSpace=wrap;size=0.23;arcSize=10;flipV=1;labelPosition=center;align=center;" parent="1" vertex="1">
          <mxGeometry x="550" y="60" width="100" height="60" as="geometry" />
        </mxCell>
        <mxCell id="EPNUv70RP5ekrgBef1S8-8" value="存款信息" style="strokeWidth=2;html=1;shape=mxgraph.flowchart.stored_data;whiteSpace=wrap;" parent="1" vertex="1">
          <mxGeometry x="210" y="180" width="100" height="60" as="geometry" />
        </mxCell>
        <mxCell id="EPNUv70RP5ekrgBef1S8-15" value="" style="edgeStyle=orthogonalEdgeStyle;rounded=0;orthogonalLoop=1;jettySize=auto;html=1;" parent="1" source="EPNUv70RP5ekrgBef1S8-10" target="EPNUv70RP5ekrgBef1S8-14" edge="1">
          <mxGeometry relative="1" as="geometry" />
        </mxCell>
        <mxCell id="EPNUv70RP5ekrgBef1S8-10" value="取款单" style="html=1;strokeWidth=2;shape=manualInput;whiteSpace=wrap;rounded=1;size=26;arcSize=11;" parent="1" vertex="1">
          <mxGeometry x="50" y="340" width="100" height="60" as="geometry" />
        </mxCell>
        <mxCell id="EPNUv70RP5ekrgBef1S8-11" value="存款单" style="html=1;strokeWidth=2;shape=manualInput;whiteSpace=wrap;rounded=1;size=26;arcSize=11;" parent="1" vertex="1">
          <mxGeometry x="50" y="60" width="100" height="60" as="geometry" />
        </mxCell>
        <mxCell id="EPNUv70RP5ekrgBef1S8-17" value="" style="edgeStyle=orthogonalEdgeStyle;rounded=0;orthogonalLoop=1;jettySize=auto;html=1;" parent="1" source="EPNUv70RP5ekrgBef1S8-14" target="EPNUv70RP5ekrgBef1S8-16" edge="1">
          <mxGeometry relative="1" as="geometry" />
        </mxCell>
        <mxCell id="EPNUv70RP5ekrgBef1S8-14" value="业务员输入" style="verticalLabelPosition=middle;verticalAlign=middle;html=1;shape=trapezoid;perimeter=trapezoidPerimeter;whiteSpace=wrap;size=0.23;arcSize=10;flipV=1;labelPosition=center;align=center;" parent="1" vertex="1">
          <mxGeometry x="210" y="340" width="100" height="60" as="geometry" />
        </mxCell>
        <mxCell id="EPNUv70RP5ekrgBef1S8-19" value="" style="edgeStyle=orthogonalEdgeStyle;rounded=0;orthogonalLoop=1;jettySize=auto;html=1;" parent="1" source="EPNUv70RP5ekrgBef1S8-16" target="EPNUv70RP5ekrgBef1S8-18" edge="1">
          <mxGeometry relative="1" as="geometry" />
        </mxCell>
        <mxCell id="EPNUv70RP5ekrgBef1S8-16" value="储户输入密码" style="shape=parallelogram;perimeter=parallelogramPerimeter;whiteSpace=wrap;html=1;fixedSize=1;arcSize=10;" parent="1" vertex="1">
          <mxGeometry x="380" y="340" width="120" height="60" as="geometry" />
        </mxCell>
        <mxCell id="EPNUv70RP5ekrgBef1S8-21" value="" style="edgeStyle=orthogonalEdgeStyle;rounded=0;orthogonalLoop=1;jettySize=auto;html=1;" parent="1" source="EPNUv70RP5ekrgBef1S8-18" edge="1">
          <mxGeometry relative="1" as="geometry">
            <mxPoint x="320" y="500" as="targetPoint" />
          </mxGeometry>
        </mxCell>
        <mxCell id="EPNUv70RP5ekrgBef1S8-18" value="业务员处理" style="verticalLabelPosition=middle;verticalAlign=middle;html=1;shape=trapezoid;perimeter=trapezoidPerimeter;whiteSpace=wrap;size=0.23;arcSize=10;flipV=1;labelPosition=center;align=center;" parent="1" vertex="1">
          <mxGeometry x="390" y="470" width="100" height="60" as="geometry" />
        </mxCell>
        <mxCell id="EPNUv70RP5ekrgBef1S8-25" value="" style="edgeStyle=orthogonalEdgeStyle;rounded=0;orthogonalLoop=1;jettySize=auto;html=1;" parent="1" source="EPNUv70RP5ekrgBef1S8-22" target="EPNUv70RP5ekrgBef1S8-24" edge="1">
          <mxGeometry relative="1" as="geometry" />
        </mxCell>
        <mxCell id="EPNUv70RP5ekrgBef1S8-22" value="利息清单" style="strokeWidth=2;html=1;shape=mxgraph.flowchart.document2;whiteSpace=wrap;size=0.25;" parent="1" vertex="1">
          <mxGeometry x="220" y="470" width="100" height="60" as="geometry" />
        </mxCell>
        <mxCell id="EPNUv70RP5ekrgBef1S8-23" value="存款单文档" style="strokeWidth=2;html=1;shape=mxgraph.flowchart.document2;whiteSpace=wrap;size=0.25;" parent="1" vertex="1">
          <mxGeometry x="400" y="60" width="100" height="60" as="geometry" />
        </mxCell>
        <mxCell id="EPNUv70RP5ekrgBef1S8-24" value="储户签字" style="verticalLabelPosition=middle;verticalAlign=middle;html=1;shape=trapezoid;perimeter=trapezoidPerimeter;whiteSpace=wrap;size=0.23;arcSize=10;flipV=1;labelPosition=center;align=center;" parent="1" vertex="1">
          <mxGeometry x="50" y="470" width="100" height="60" as="geometry" />
        </mxCell>
        <mxCell id="EPNUv70RP5ekrgBef1S8-27" value="" style="edgeStyle=orthogonalEdgeStyle;rounded=0;orthogonalLoop=1;jettySize=auto;html=1;startArrow=classic;startFill=1;" parent="1" source="EPNUv70RP5ekrgBef1S8-26" target="EPNUv70RP5ekrgBef1S8-18" edge="1">
          <mxGeometry relative="1" as="geometry" />
        </mxCell>
        <mxCell id="EPNUv70RP5ekrgBef1S8-26" value="存款信息" style="strokeWidth=2;html=1;shape=mxgraph.flowchart.stored_data;whiteSpace=wrap;" parent="1" vertex="1">
          <mxGeometry x="550" y="470" width="100" height="60" as="geometry" />
        </mxCell>
      </root>
    </mxGraphModel>
  </diagram>
  <diagram id="96xzIrz3yO5NAFo24MEt" name="2.2数据流图">
    <mxGraphModel dx="1106" dy="775" grid="1" gridSize="10" guides="1" tooltips="1" connect="1" arrows="1" fold="1" page="1" pageScale="1" pageWidth="827" pageHeight="1169" math="0" shadow="0">
      <root>
        <mxCell id="0" />
        <mxCell id="1" parent="0" />
        <mxCell id="2sI0er62GJEDE8r13m6o-3" value="" style="edgeStyle=orthogonalEdgeStyle;rounded=0;orthogonalLoop=1;jettySize=auto;html=1;" edge="1" parent="1" source="2sI0er62GJEDE8r13m6o-1" target="2sI0er62GJEDE8r13m6o-2">
          <mxGeometry relative="1" as="geometry" />
        </mxCell>
        <mxCell id="2sI0er62GJEDE8r13m6o-12" value="事务" style="edgeLabel;html=1;align=center;verticalAlign=bottom;resizable=0;points=[];labelPosition=center;verticalLabelPosition=top;" vertex="1" connectable="0" parent="2sI0er62GJEDE8r13m6o-3">
          <mxGeometry x="0.0445" y="-1" relative="1" as="geometry">
            <mxPoint as="offset" />
          </mxGeometry>
        </mxCell>
        <mxCell id="2sI0er62GJEDE8r13m6o-1" value="储户" style="rounded=0;whiteSpace=wrap;html=1;" vertex="1" parent="1">
          <mxGeometry x="30" y="40" width="120" height="60" as="geometry" />
        </mxCell>
        <mxCell id="2sI0er62GJEDE8r13m6o-5" value="" style="edgeStyle=orthogonalEdgeStyle;rounded=0;orthogonalLoop=1;jettySize=auto;html=1;verticalAlign=top;" edge="1" parent="1" source="2sI0er62GJEDE8r13m6o-2" target="2sI0er62GJEDE8r13m6o-4">
          <mxGeometry relative="1" as="geometry" />
        </mxCell>
        <mxCell id="2sI0er62GJEDE8r13m6o-13" value="事务" style="edgeLabel;html=1;align=center;verticalAlign=bottom;resizable=0;points=[];labelPosition=center;verticalLabelPosition=top;" vertex="1" connectable="0" parent="2sI0er62GJEDE8r13m6o-5">
          <mxGeometry x="-0.0943" y="-2" relative="1" as="geometry">
            <mxPoint as="offset" />
          </mxGeometry>
        </mxCell>
        <mxCell id="2sI0er62GJEDE8r13m6o-2" value="业务员输入" style="ellipse;whiteSpace=wrap;html=1;rounded=0;" vertex="1" parent="1">
          <mxGeometry x="250" y="30" width="80" height="80" as="geometry" />
        </mxCell>
        <mxCell id="2sI0er62GJEDE8r13m6o-7" value="" style="edgeStyle=orthogonalEdgeStyle;rounded=0;orthogonalLoop=1;jettySize=auto;html=1;" edge="1" parent="1" source="2sI0er62GJEDE8r13m6o-4" target="2sI0er62GJEDE8r13m6o-6">
          <mxGeometry relative="1" as="geometry" />
        </mxCell>
        <mxCell id="2sI0er62GJEDE8r13m6o-14" value="存取信息" style="edgeLabel;html=1;align=center;verticalAlign=middle;resizable=0;points=[];" vertex="1" connectable="0" parent="2sI0er62GJEDE8r13m6o-7">
          <mxGeometry x="-0.0568" relative="1" as="geometry">
            <mxPoint as="offset" />
          </mxGeometry>
        </mxCell>
        <mxCell id="2sI0er62GJEDE8r13m6o-4" value="业务员处理" style="ellipse;whiteSpace=wrap;html=1;rounded=0;" vertex="1" parent="1">
          <mxGeometry x="410" y="30" width="80" height="80" as="geometry" />
        </mxCell>
        <mxCell id="2sI0er62GJEDE8r13m6o-9" value="" style="edgeStyle=orthogonalEdgeStyle;rounded=0;orthogonalLoop=1;jettySize=auto;html=1;startArrow=classic;startFill=1;" edge="1" parent="1" source="2sI0er62GJEDE8r13m6o-6" target="2sI0er62GJEDE8r13m6o-8">
          <mxGeometry relative="1" as="geometry" />
        </mxCell>
        <mxCell id="2sI0er62GJEDE8r13m6o-15" value="存取信息" style="edgeLabel;html=1;align=center;verticalAlign=bottom;resizable=0;points=[];labelPosition=center;verticalLabelPosition=top;" vertex="1" connectable="0" parent="2sI0er62GJEDE8r13m6o-9">
          <mxGeometry x="-0.1076" relative="1" as="geometry">
            <mxPoint as="offset" />
          </mxGeometry>
        </mxCell>
        <mxCell id="2sI0er62GJEDE8r13m6o-11" value="" style="edgeStyle=orthogonalEdgeStyle;rounded=0;orthogonalLoop=1;jettySize=auto;html=1;startArrow=classic;startFill=1;" edge="1" parent="1" source="2sI0er62GJEDE8r13m6o-6" target="2sI0er62GJEDE8r13m6o-10">
          <mxGeometry relative="1" as="geometry" />
        </mxCell>
        <mxCell id="2sI0er62GJEDE8r13m6o-16" value="存款单或利息清单" style="edgeLabel;html=1;align=center;verticalAlign=bottom;resizable=0;points=[];labelPosition=center;verticalLabelPosition=top;" vertex="1" connectable="0" parent="2sI0er62GJEDE8r13m6o-11">
          <mxGeometry x="0.1409" relative="1" as="geometry">
            <mxPoint x="-10" as="offset" />
          </mxGeometry>
        </mxCell>
        <mxCell id="2sI0er62GJEDE8r13m6o-6" value="产生输出" style="ellipse;whiteSpace=wrap;html=1;rounded=0;" vertex="1" parent="1">
          <mxGeometry x="410" y="190" width="80" height="80" as="geometry" />
        </mxCell>
        <mxCell id="2sI0er62GJEDE8r13m6o-8" value="存款记录" style="whiteSpace=wrap;html=1;rounded=0;" vertex="1" parent="1">
          <mxGeometry x="170" y="200" width="120" height="60" as="geometry" />
        </mxCell>
        <mxCell id="2sI0er62GJEDE8r13m6o-10" value="储户" style="whiteSpace=wrap;html=1;rounded=0;" vertex="1" parent="1">
          <mxGeometry x="630" y="200" width="120" height="60" as="geometry" />
        </mxCell>
        <mxCell id="2sI0er62GJEDE8r13m6o-17" value="" style="shape=image;verticalLabelPosition=bottom;labelBackgroundColor=default;verticalAlign=top;aspect=fixed;imageAspect=0;image=data:image/png,iVBORw0KGgoAAAANSUhEUgAABOoAAAHZCAYAAAA41NR7AAAgAElEQVR4AeydB9j0VJm/4Y8FBRGkKwoLuCCofBTrpS6CUqRXC70qq0uzsIArVRTp4gLCClIUEFCKoOLSliaCfqiLyCJ9F/woF4IiSPnO/3rycc6b5JfMJJM575u8uee65srJk+TkyX3uk8mcyczM5Zxz//u//2uTKI//+Z//iVKvVUreihbeygRPlAmeKBM8USZ4okzwRJngiTLBE2WCJ8oET5QJnigTPFEmeKJM8ESZ4IkywRNl0lZP5rJUabDuNJhmmo20VbRsljpH3sqEfqlM8ESZ4IkywRNlgifKBE+UCZ4oEzxRJniiTPBEmeCJMsETZYInygRPlEkfPWGgTj1IInQQBdPHDqIUshE8yfKwOTxRJniiTPBEmeCJMsETZYInygRPlAmeKBM8USZ4okzwRJngiTLBE2WCJ8qkiScM1CnPJIJoCqaJaFpbNgLvLA+bg7cywRNlgifKBE+UCZ4oEzxRJniiTPBEmeCJMsETZYInygRPlAmeKBM8USZ99ISBOvUgidBBFEwfO4hSyEbwJMvD5vBEmeCJMsETZYInygRPlAmeKBM8USZ4okzwRJngiTLBE2WCJ8oET5QJniiTJp4wUKc8kwiiKZgmomlt2Qi8szxsDt7KBE+UCZ4oEzxRJniiTPBEmeCJMsETZYInygRPlAmeKBM8USZ4okzwRJn00RMG6tSDJEIHUTB97CBKIRvBkywPm8MTZYInygRPlAmeKBM8USZ4okzwRJngiTLBE2WCJ8oET5QJnigTPFEmeKJMmnjCQJ3yTCKIpmCaiKa1ZSPwzvKwOXgrEzxRJniiTPBEmeCJMsETZYInygRPlAmeKBM8USZ4okzwRJngiTLBE2XSR08YqFMPkggdRMH0sYMohWwET7I8bA5PlAmeKBM8USZ4okzwRJngiTLBE2WCJ8oET5QJnigTPFEmeKJM8ESZ4IkyaeIJA3XKM4kgmoJpIprWlo3AO8vD5uCtTPBEmeCJMsETZYInygRPlAmeKBM8USZ4okzwRJngiTLBE2WCJ8oET5RJHz1hoE49SCJ0EAXTxw6iFLIRPMnysDk8USZ4okzwRJngiTLBE2WCJ8oET5QJnigTPFEmeKJM8ESZ4IkywRNlgifKpIknDNQpzySCaAqmiWhaWzYC7ywPm4O3MsETZYInygRPlAmeKBM8USZ4okzwRJngiTLBE2WCJ8oET5QJnigTPFEmffSEgTr1IInQQRRMHzuIUshG8CTLw+bwRJngiTLBE2WCJ8oET5QJnigTPFEmeKJM8ESZ4IkywRNlgifKBE+UCZ4okyaeMFCnPJMIoimYJqJpbdkIvLM8bA7eygRPlAmeKBM8USZ4okzwRJngiTLBE2WCJ8oET5QJnigTPFEmeKJM8ESZ9NETBurUgyRCB1EwfewgSiEbwZMsD5vDE2WCJ8oET5QJnigTPFEmeKJM8ESZ4IkywRNlgifKBE+UCZ4oEzxRJniiTJp4wkCd8kwiiKZgmoimtWUj8M7ysDl4KxM8USZ4okzwRJngiTLBE2WCJ8oET5QJnigTPFEmeKJM8ESZ4IkywRNl0kdPGKhTD5IIHUTB9LGDKIVsBE+yPGwOT5QJnigTPFEmeKJM8ESZ4IkywRNlgifKBE+UCZ4oEzxRJniiTPBEmeCJMmniCQN1yjOJIJqCaSKa1paNwDvLw+bgrUzwRJngiTLBE2WCJ8oET5QJnigTPFEmeKJM8ESZ4IkywRNlgifKBE+USR89YaBOPUgidBAF08cOohSyETzJ8rA5PFEmeKJM8ESZ4IkywRNlgifKBE+UCZ4oEzxRJniiTPBEmeCJMsETZYInyqSJJwzUKc8kgmgKpoloWls2Au8sD5uDtzLBE2WCJ8oET5QJnigTPFEmeKJM8ESZ4IkywRNlgifKBE+UCZ4oEzxRJn30hIE69SCJ0EEUTB87iFLIRvAky8Pm8ESZ4IkywRNlgifKBE+UCZ4oEzxRJniiTPBEmeCJMsETZYInygRPlAmeKJMmnjBQpzyTCKIpmCaiaW3ZCLyzPGwO3soET5QJnigTPFEmeKJM8ESZ4IkywRNlgifKBE+UCZ4oEzxRJniiTPBEmfTRk7lMhJkzZzqbxnjeeuutUeol7+L2grdywW9lgifKBE+UCZ4oEzxRJniiTPBEmeCJMsETZYInygRPlAmeKBM8USZ4okzwRJm01RPuqNMB2yRiA4GxHn0cER7GEt5KCE+UCZ4oEzxRJniiTPBEmeCJMsETZYInygRPlAmeKBM8USZ4okzwRJngiTLpoycM1KkHSYQOomD62EGUQjaCJ1keNocnygRPlAmeKBM8USZ4okzwRJngiTLBE2WCJ8oET5QJnigTPFEmeKJM8ESZNPGEgTrlmUQQTcE0EU1ry0bgneVhc/BWJniiTPBEmeCJMsETZYInygRPlAmeKBM8USZ4okzwRJngiTLBE2WCJ8qkj54wUKceJBE6iILpYwdRCtkInmR52ByeKBM8USZ4okzwRJngiTLBE2WCJ8oET5QJnigTPFEmeKJM8ESZ4IkywRNl0sQTBuqUZxJBNAXTRDStLRuBd5aHzcFbmeCJMsETZYInygRPlAmeKBM8USZ4okzwRJngiTLBE2WCJ8oET5QJniiTPnrCQJ16kEToIAqmjx1EKWQjeJLlYXN4okzwRJngiTLBE2WCJ8oET5QJnigTPFEmeKJM8ESZ4IkywRNlgifKBE+USRNPGKhTnkkE0RRME9G0tmwE3lkeNgdvZYInygRPlAmeKBM8USZ4okzwRJngiTLBE2WCJ8oET5QJnigTPFEmeKJM+ugJA3XqQRKhgyiYPnYQpZCN4EmWh83hiTLBE2WCJ8oET5QJnigTPFEmeKJM8ESZ4IkywRNlgifKBE+UCZ4oEzxRJk08YaBOeSYRRFMwTUTT2rIReGd52By8lQmeKBM8USZ4okzwRJngiTLBE2WCJ8oET5QJnigTPFEmeKJM8ESZ4Iky6aMnDNSpB0mEDqJg+thBlEI2gidZHjaHJ8oET5QJnigTPFEmeKJM8ESZ4IkywRNlgifKBE+UCZ4oEzxRJniiTPBEmTTxhIE65ZlEEE3BNBFNa8tG4J3lYXPwViZ4okzwRJngiTLBE2WCJ8oET5QJnigTPFEmeKJM8ESZ4IkywRNlgifKpI+eMFCnHiQROoiC6WMHUQrZCJ5kedgcnigTPFEmeKJM8ESZ4IkywRNlgifKBE+UCZ4oEzxRJniiTPBEmeCJMsETZdLEEwbqlGcSQTQF00Q0rS0bgXeWh83BW5ngiTLBE2WCJ8oET5QJnigTPFEmeKJM8ESZ4IkywRNlgifKBE+UCZ4okz56wkCdepBE6CAKpo8dRClkI3iS5WFzeKJM8ESZ4IkywRNlgifKBE+UCZ4oEzxRJniiTPBEmeCJMsETZYInygRPlEkTTxioU55JBNEUTBPRtLZsBN5ZHjYHb2WCJ8oET5QJniiTKp5ce+217uCDDw5Pm6/ygLdSqsJbt6oWgbdyms686Zfa3qNGprMnozLhfKLk8ESZ4IkywRNlgifKpIknDNQpzySCaAqmiWhaWzYC7ywPm4O3MsETZYInyqQtnrzwwgvuiSeecM8884x76aWX3OzZswc+77rrroHLh20/aPlDDz00tG4bpNtxx4mnzQ+q0y+b6rx9Hn6qRhRH2uJJcXblUfJWNnXOg/TLwech348GTaucT/Lba6sVR/BbudTxW7ceHIG38oG3MsETZYInygRPlEkTTxioU55JBNEUTBPRtLZsBN5ZHjYHb2WCJ8oET5TJVHpy8cUXu6233tqttNJKbq655nJveMMb3Gte8xo399xzt/5ZNFDXhbyNcz7PNddc0x1yyCHOBhHLHlPpSVlOVeLkrZSGnQfpl5N//qFfqqejRob5PWq9th3nE6UHb2WCJ8oET5QJniiTJp4wUKc8kwiiKZgmomlt2Qi8szxsDt7KBE+UCZ4ok6nw5OSTT3ZvfvOb3Yc+9CH37W9/291+++3O7tzp0qNooK5L+ftcn332WXfFFVe4L37xi27++ed3u+66a+Gb0anwxOfYZEreSq/sPEi/VFZTFaFfjk6+zO/Ra5zYkvPJBAtfgrcnMTHFkwkWvoQnnsTEFE8mWPhSE08YqPMUc1NEywFh4EiB8ElkIZMmJ6TCClNB+mUKxstFeCuTyfTk7rvvduuvv76zO7huueUWTaZDkVF/C6vNh/jUU08ld9YtuOCC7oILLsikOpmeZHbccIa8FWD+PEi/VEZtitAv67VG3u96Ww9em/OJ8oG3MsETZYInygRPlEkTTxioU55JBNEUTBPRtLZsBN5ZHjYHb2WCJ8oET5TJZHlyxx13uGWWWcZtvPHGmgSRVhG48sor3dJLL+2OP/74kNdkeRJ2OKYCeSvI9HmQfql82hqhX1ZrmbTf1baovhbnE2UFb2WCJ8oET5QJniiTJp4wUKc8kwiiKZgmomlt2Qi8szxsDt7KBE+UCZ4ok8nw5P7770++6nriiSdqAkRaSeDOO+90SyyxhDvvvPOS/CbDkxggyFup+vMg/VLZtD1CvxzeQt7v4WvWX4PziTKDtzLBE2WCJ8oET5RJE08YqFOeSQTRFEwT0bS2bATeWR42B29lgifKBE+UyWR4sskmm7hDDz1Ud06k1QSuueYa96pXvcrZv1ZOhicxYJC3UvXnQfqlsulChH45uJW834PXGm0p5xPlBm9lgifKBE+UCZ4okyaezGUb29cEbBrjOXPmzCj1kndxe8FbueC3MsETZYInygRPlIl5YgN0//RP/6Svxh2K3HPPPe7II4+slfEo29TawSStvP/++7ttttnG4Xex3zGuBa3O2Lz72C+tD9u/q9pzjz32mKQeFGc39Evtj74vcn2ibGKfTzz7cU/JW9sSv5UJniiTPnrCHXUl1xuMCCsYe7GK9YC3koW3MsETZYInyiS2JyuttJKzP17o6mPddddN3tjXGagbZZu28nnuuefcm970puSfYWPlSL9UsvRLZZKO1O1j119/fWZwzra3WFcf9MvyluN8omxin090j+OJkLdyxG9lgifKpI+eMFCnHiQROoiC6WMHUQrZCJ5kedgcnigTPFEmXfXkO9/5jnv/+9+vB9SxyLnnnlv7jrpRtmkrlj333NPtu+++0dLrqt9dzbuP/dL6ow3O+YcNvFusyw/rl/vss0+0Q+iq3+StSnBdpUzwRJngiTLBE2XSVk8YqNO2SiJtbbCSdEOYvAOKUOCEFFCEAp4EFKGAJwFFKOBJQBEK22+/vTvhhBPCfFcLowy6jbJNW/nYb2K9853vjJYe5xNFG/N80ud+6UnbV1/t6+ldftAvi1uP84lyiXk+gTe8lYBG8ESZ0C+VSRNPGKhTnkkE0RRME9G0tmwE3lkeNgdvZYInygRPlElMT2bMmOFuvPFG3WnHIqMMuo2yTVuxPPPMM27eeeeNlh79UtHSL5VJPjJqH5sOd9MZC+uXr371q/NYxjZPv1SUMfslvOGtBDSCJ8qEfqlM+ugJA3XqQRKhgyiYPnYQpZCN4EmWh83hiTLBE2XSVU/sR9v//ve/6wF1LDLKgMAo27QZy+KLL+7+7//+L0qKXfW7q3n3uV/aIF2d35uMIvwYK6VfKsyu9kvy1rbkelCZ4IkywRNl0kdPGKhTD5IIHUTB9LGDKIVsBE+yPGwOT5QJniiTrnpiAwLT4THKoNso27SZ1XLLLefuuuuuKCl21e+u5t3XfjndBumsM9Iv9ZTU1X5J3tqWXA8qEzxRJniiTProCQN16kESoYMomD52EKWQjeBJlofN4YkywRNl0lVPpvOAgP0wvf3OVdljug3ULbTQQu7xxx8vO9xG8a763dW8+9gv7R9e83fSWR/t+oN+qS3Y1X5J3tqWXA8qEzxRJniiTProCQN16kESoYMomD52EKWQjeBJlofN4YkywRNl0lVPpsOAgA3I2XHY0+5e8Y9BA3Vl2/htuzi14589e3aU1Lvqd1fz7mO/tEF134/91Abvuv6gX2oLdrVfkre2JdeDygRPlAmeKJM+esJAnXqQROggCqaPHUQpZCN4kuVhc3iiTPBEmXTVk+kwIKCt0c9IzLbsqt9dzTtmW/azd0zdUcdsy676Td7qI9dVygRPlAmeKBM8USZt9YSBOm2rJNLWBitJN4TJO6AIBU5IAUUo4ElAEQp4ElCEAp4EFKEQ801k2AmFSSEQsy05n2gTxjyfxGxLPRIiMQnEbEv6pbZczH4Jb3grAY3giTKhXyqTPnrCQJ16kEToIAqmjx1EKWQjeJLlYXN4okzwRJl01ZOYbyKVEpGYBGK2ZVf97mreMdsypoPUrQRitmVX/SZv9YTrKmWCJ8oET5QJniiTtnrCQJ22VRJpa4OVpBvC5B1QhAInpIAiFPAkoAgFPAkoQgFPAopQiPkmMuyEwqQQiNmWnE+0CWOeT2K2pR4JkZgEYrYl/VJbLma/hDe8lYBG8ESZ0C+VSR89YaBOPUgidBAF08cOohSyETzJ8rA5PFEmeKJMuupJzDeRSolITAIx27Krfnc175htGdNB6lYCMduyq36Tt3rCdZUywRNlgifKBE+USVs9YaBO2yqJtLXBStINYfIOKEKBE1JAEQp4ElCEAp4EFKGAJwFFKMR8Exl2QmFSCMRsS84n2oQxzycx21KPhEhMAjHbkn6pLRezX8Ib3kpAI3iiTOiXyqSPnjBQpx4kETqIguljB1EK2QieZHnYHJ4oEzxRJl31JOabSKVEJCaBmG3ZVb+7mnfMtozpIHUrgZht2VW/yVs94bpKmeCJMsETZYInyqStnjBQp22VRNraYCXphjB5BxShwAkpoAgFPAkoQgFPAopQwJOAIhTsTeRLL73EcxowYEAgaB0KXT0P0i+nzzmJfhm6Yyh0tV+Sd2jCUOC6KqAIBTwJKEIBTwKKUOijJwzUhebPFuggWR4218cOohSyETzJ8sAT5WERPFEuXT2f2JtIntOHgZo5nkhX/e5q3vTJ6dMnGajTc1BX+yV5a1tyPahM8ESZ4Iky6aMnDNSpB0mEDqJg+thBlEI2gidZHjaHJ8oET5RJVz2J+SZSKRGJSSBmW3bV767mHbMtYzpI3UogZlt21W/yVk+4rlImeKJM8ESZ4IkyaasnDNRpWyWRtjZYSbohTN4BRShwQgooQgFPAopQwJOAIhTwJKAIhZhvIsNOKEwKgZhtyflEmzDm+SRmW+qREIlJIGZb0i+15WL2S3jDWwloBE+UCf1SmfTREwbq1IMkQgdRMH3sIEohG8GTLA+bwxNlgifKpKuexHwTqZSIxCQQsy276ndX847ZljEdpG4lELMtu+o3easnXFcpEzxRJniiTPBEmbTVEwbqtK2SSFsbrCTdECbvgCIUOCEFFKGAJwFFKOBJQBEKeBJQhELMN5FhJxQmhUDMtuR8ok0Y83wSsy31SIjEJBCzLemX2nIx+yW84a0ENIInyoR+qUz66AkDdepBEqGDKJg+dhClkI3gSZaHzeGJMsETZdJVT2K+iVRKRGISiNmWXfW7q3nHbMuYDlK3EojZll31m7zVE66rlAmeKBM8USZ4okza6slcltjMmTOTfyW08rift95669jr9DmSt7YXvJUJnigTPFEmeKJM8ESZxHwTqZcORGISsLb01xPjnnI+0b4T83xCv4zZUya3bvql9h3OJ8ok5vkE3vCuck2AJ3gS2xPuqCu5/jDwsR6MZCtZeCsTPFEmeKJM8ESZxPSEAQHl3dVIzLakX6oV9EtlQkQJ0C+VCecTZRLzfAJveCsBjeCJMqFfKpMmnjBQpzyTCKIpmCaiaW3ZCLyzPGwO3soET5QJniiTmJ7EfBOpR0IkJoGYbUm/1JajXyoTIkqAfqlMOJ8ok5jnE3jDWwloBE+UCf1SmTTxhIE65ZlEEE3BNBFNa8tG4J3lYXPwViZ4okzwRJnE9CTmm0g9EiIxCcRsS/qlthz9UpkQUQL0S2XC+USZxDyfwBveSkAjeKJM6JfKpIknDNQpzySCaAqmiWhaWzYC7ywPm4O3MsETZYInyiSmJzHfROqREIlJIGZb0i+15eiXyoSIEqBfKhPOJ8ok5vkE3vBWAhrBE2VCv1QmTTxhoE55JhFEUzBNRNPashF4Z3nYHLyVCZ4oEzxRJjE9ifkmUo+ESEwCMduSfqktR79UJkSUAP1SmXA+USYxzyfwhrcS0AieKBP6pTJp4gkDdcoziSCagmkimtaWjcA7y8Pm4K1M8ESZ4IkyielJzDeReiREYhKI2Zb0S205+qUyIaIE6JfKhPOJMol5PoE3vJWARvBEmdAvlUkTTxioU55JBNEUTBPRtLZsBN5ZHjYHb2WCJ8oET5RJTE9ivonUIyESk0DMtqRfasvRL5UJESVAv1QmnE+USczzCbzhrQQ0gifKhH6pTJp4wkCd8kwiiKZgmoimtWUj8M7ysDl4KxM8USZ4okxiehLzTaQeCZGYBGK2Jf1SW45+qUyIKAH6pTLhfKJMYp5P4A1vJaARPFEm9Etl0sQTBuqUZxJBNAXTRDStLRuBd5aHzcFbmeCJMsETZRLTk5hvIvVIiMQkELMtY/bLJ554IhqWp556Klrd9MtoaKdVxV3tlzH9jnk+IW/tPvBWJniiTPBEmeCJMmniCQN1yjOJIJqCaSKa1paNwDvLw+bgrUzwRJngiTKJ6UmMN5Gj1GnbDHoqlWyk7j7z6+fn07Xnl+Xn0+vmy3XWzW9bdz7mvkbtl3Vzyq+fn88zyS/Pz+fX9/NV1/PrF0271i+LjqFKbFRWtt0o21bdpmy9sniVY42xTsx8Ru2XVY4zpt/krS0Ab2WCJ8oET5QJniiTtnrCQJ22VRJpa4OVpBvC5B1QhAInpIAiFPAkoAgFPAkoQgFPAopQiPUmMl2vlfPPkECFQrqustWrrpPPIz1fp+5B+0vXWVYu21eT+KCcmtRr2456PqmSUxkjHx+Ue1H9RTGrw9c3aDpoX/llMc8nZceQz2Ey5tO5lLHzeaSX+5hN03FfTi9Pl2151Ud+3fx81Xpirhczp1H7ZZXjjek3eWsLwFuZ4IkywRNlgifKpK2eMFCnbZVE2tpgJemGMHkHFKHACSmgCAU8CShCAU8CilDAk4AiFGK+iQw7yRXK9mnxsmeuitL1irbPb2vz+Rzy2/lt/Hr55fl5v35R3ellVZbn168673Otun6d9aqeT/JcBs0X7T9/DPnt09v4dfPr5Of9Nn59P5+fDlueX7/u+WTmzJn5Kkrn6+ZSWtEYFpTlUhQvilkK+Xh63spVn/5wqqzv153qafpYx51L1X45yn7r+l1nH+SttOCtTPBEmeCJMsETZdJWTxio07ZKIm1tsJJ0Q5i8A4pQ4IQUUIQCngQUoYAnAUUo4ElAEQox30SGneQKdfc5bP1hy9O7t3XzT1uerqOsnK5nUDlff9H8oO1HXZbOe9Q6yrYb5XxSJ58yRuk60mXLMz9flruPF+0jH/PrVpnWPZ88+eSTSc577723u++++wbuou6xDaxsxIV5Nvmc8vO2m6JYUbzqemWp57cfNl9Wz2TE87mNc5+j9Muq+6/rd9V6bT3yVlrwViZ4okzwRJngiTJpqycM1GlbJZG2NlhJuiFM3gFFKHBCCihCAU8CilDAk4AiFPAkoAiFcb+JtPr8M+wkV8jv069fZZqrKjMwULR9fv2i+XQ++XLRfH4/+TrT2+SX2fyw5UXbVInFqtf2Xfd8ks7Fyvln3eNJ12fb+vp8PX4+P/XL/Tbp+Xw5v4/88vz8KOeTNddcM+S+6aablg7Y1c0ln9s458tyKYpbLP+0XPLr5ufz6+TryK9ftDwfGyeDJnXlc29SV37buv0yv/2g+VH8HlRfehl5p2nMKcNbmeCJMsETZYInyqStnjBQp22VRNraYCXphjB5BxShwAkpoAgFPAkoQgFPAopQwJOAwl177bXu4IMPDk+bH+cj/eY0/wY6vaxsn1XWsW3L1hsUt2XpZ1kOg+oftk26/qLyoO3rLovdlpZP3fOJHXPRY1A8z6lo+3SsrK70Oulyvv6i+fT6w8qjnE/sbrr8fm3w7owzzkh2NxltOey48svLOBfFi2JWXz6eny9ax+dRZd38Ovl5X9dkTiejLev2yzrHP4rfVesnbyUFb2WCJ8oET5QJniiTtnrCQJ22VRJpa4OVpBvC5B1QhAInpIAiFPAkoAgFPAkoQgFPAopkgG7HHQ92/mmDduN8pN8op8tl+8ivM2ze6rF18uv5eNl+BsWH1eX3l5/m6yyqJ73OsOXpdauUre2sHbfaap/kuc8++7gHH3xwrM9f/vKXQ+v785//nKTr+eRzH/W4y7ZLx/0+89N0Dun103FfTi+3YxnG8Lrrrhu6Tr6OY445Jnibz3XGjBnO7rLzfdKm4+6X/ljrTNN5prdL8/Lxopgty8eL5vOxou3S+7H1Bz39ulM19f1yu+2+nLRpjLbkdV5bl9d5ZYInygRPlAmeKBM8USZNPGGgTnkmEURTME1E09qyEXhnedgcvJUJnigTPFEmMTzxbyI/9al/jfImMv2mO13Wo5uI+PXSb75tqY9PrDkR88vS2+TLfrt8PD0/bD++jirTdL1l5Sr1VF3Ht2XZviYrbnnYvuyRnpbt3x9f2fJ0HX7d9NQvT8cGlQftxy/z2x900EEDB4H8+jGmr3rVvG7LLfeO0i/98VWZpo+taH1bnn/kY37eT/366XlfTk+tXPT02+enftt8fCrn0/1y8cWXdhtuuKHzg9njyovXSyUZ4/XS7wXensTEFN4TLHwJTzyJiSmeTLDwpT56wkCdb/3clA6SA8LAkQJxzuGJYunjiVQpZCN4kuVhc13zxN5ErrTSe93yy8+IMiDg3zj7N9tKrDiS3s7W8PPFaxcvH7ZNWb1F26VjVi56luXm4+k6fDOUil8AACAASURBVGycUz8gsPXWn3f2/PznP5/4aE6O63nbbbcNreupp54Kh1V0zEWxsMHLhaJ1imK2ejpu5aJnvv70fHr7dNzKdizD2F1//fVD18nX4Qczi3JdZpll3Hrrref84Hmb7qjL87H5In4+5o/Pb+fjZfPD6vPb+fV8/cOm6e0mu+z75aab/rN75zs/6BZccEH3//7f/3PbbLONu/zyy8eSjvkV68HrvJKFtzLBE2WCJ8oET5RJHz1hoE49SCJ0EAXTxw6iFLIRPMnysDk8USZ4oky65In9+6QNCNib3BVXXDH5el2M36jzb879NE1tWCy9PF1O12HlomVFMb+dXzZsml+/zr7ydee39cv9PppO2/hbWEXHWBTzx+6XDZv69W3q182X/Trp5el10vGysq9j0HSU82DRQJ39Rt1xxx3nrF9ORlsOOqaiZWlG6eVFcYuVxW1bv3zQOsP2kV7uy0X1+WVTNS1qSxug23bbbZMBOxuYPeCAA9zvfve7kVPs0utO+iDJO01jTnmU84nWUhyBt3KBtzLBE2WCJ8qkiScM1CnPJIJoCqaJaFpbNgLvLA+bg7cywRNlgifKZJye2GCA/Q7WoDfMmkH9SPqNc7rsa0rHfC5+mU3Ty/18Pubj6e3KYvl4uq70/tPxom38uulp2f7zdaXrK1qWr6fufIw6fQ51+2VRLkWxNJOist/GT30+Zevaeuln0fqD6ipalq4jXR6lX6b7ng3QzZw5M11lKNfJI2wUqVCWS1m8KI0q6xatUxQbtf6i7SYjVnQM9hXYk08+2X3wgx9MfP2nf/ond8opp7inn366Vkp1+2Wdykfxu2r95K2k4K1M8ESZ4IkywRNl0lZPGKjTtkoibW2wknRDmLwDilDghBRQhAKeBBShgCcBRSj03ZP77rvP2V0c9sYx/QyAIhbS+/Plst0NW57eztZNP6psm1+nqA5fZ3pZuly03GL5dWw+/yxaz9fXZJrfd5O68tvWPZ/kc/EM8vWm5/PrFNWRX9/P59e1eDqWLvtlFks/fdzXOWxa93xig+TW/2ywrmyAzu8zn6+PT/bU80nv18fq5Fhl3fw6fj/pfZeV89uWrTcV8WG5/fa3v3X777+/W3rppd0888zjtttuO3fFFVdUSrVuv6xU6csr1fW7Tt3krbTgrUzwRJngiTLBE2XSVk8YqNO2SiJtbbCSdEOYvAOKUOCEFFCEAp4EFKGAJwFFKPTZExsYKBqkG/YmMsCj0HoCMdsy5vmk9WBLEqx7PrGBcntWecRsyyr7Z53xEajTlj/+8Y/dpz71KTf33HO7ZZdd1h144IHujjvuKE0mZr+s63dpkgULyFuhwFuZ4IkywRNlgifKpK2ezGWNZS9qNo3xtDc7Meol7+L2grdywW9lgifKBE+USV89ueCCC9wCCyyQuXvI3jz6p93pw6P7BKw9p/L6JP1nEl2nWeXPJGKeT+oM7nSd9XTPf5R++fvf/94dccQR7t3vfndynn7f+97njjzySHfXXXdl+jiv87zOVznn4wme4Ik6UIVJzNf5PvZL7qgrueJp68hqSbohTN4BRSjYiSXWA95KFt7KBE+USVs9sR+pt38b9INyRVMG6rQ9uxiJObgT0+8usracY54HY7ZlV3l3Ne+mbfmb3/zG7bfffu4tb3mLe+UrX+m2335799Of/jTBEbNfxvSbvNVmeCsTPFEmeKJM8ESZtNUTBuq0rZJIWxusJN0QJu+AIhQ4IQUUoYAnAUUo4ElAEQp988S+Zmf/MmnPHXfc0c2YMaNwwM4+MeTRfQJNBwQGEYh5PnniiScG7brRsph3+cU8n8Rsy0ZA2bg2gXG25aWXXuo++clPJufx5ZZbzu29997O7r6L8Yjpd8zzCXmrDfBWJniiTPBEmeCJMmniCQN1yjOJIJqCaSKa1paNwDvLw+bgrUzwRJngiTIZlyezZs1KfvvIv9GzN5D2vOaaa3SnRDpHYJwDAvmDp1/miXBHnRIhUkQgRr+0we1vfetbbo011kjO4WuttZY77bTT3DPPPFOUwkixcb3uFO2c84lSgbcywRNlgifKBE+USVs9YaBO2yqJtLXBStINYfIOKEKBE1JAEQp4ElCEAp4EFKHQd08OO+yw5K46A2Jfd7V/n7Q3kWeccUZgRKG7BGIMCHganE88iYlpzPNJzLacOAJKk0EgZltav7Q7or/0pS+5pZZayr3qVa9K7p6+8sorGx9aTL85n2jzwFuZ4IkywRNlgifKpK2eMFCnbZVE2tpgJemGMHkHFKHACSmgCAU8CShCAU8CilDouydvfvOb3UknnRR4WMHeRNrv2PHoPoHYAwKxCPW9XxZxjdmWRfsjFo9AzLbMv85fcskl7uMf/3hyXn/rW9/qvvKVr7g//OEPIx0c/VKx5XnrGqNH4K3s4K1M8ESZ4IkyaasnDNRpWyWRtjZYSbohTN4BRShwQgooQgFPAopQwJOAIhT67IndNbfIIou4F198MfCwgr2J5DfqMkg6OzOZAwLjhNTnflnGMWZblu2TeBwCMduy7HX+8ccfd9/85jed/Vus7X/ttdd23/nOd9zf/va3ygdJv1RUZbx1zfoReCszeCsTPFEmeKJM2uoJA3XaVkmkrQ1Wkm4Ik3dAEQqckAKKUMCTgCIU8CSgCIU+e2Jv2A444IDAwhdivon0+2A6OQRitiXnE23DmOeTmG2pR0IkJoGYbVmlX/761792X/jCF9wb3/hGN++887qddtrJ/fznPx96yDH9rpL30ARLViBvBQNvZYInygRPlAmeKJMmnjBQpzyTCKIpmCaiaW3ZCLyzPGwO3soET5QJniiTpp7YmzJ7s3j//fdL5THfRMrOCEQlELMt6ZfadE37pdY4EYnZlhN7oTQZBGK2Zd1++aMf/chtvfXWyevBP/7jPyb/CH7XXXcVYojpd928CxMsCZK3goG3MsETZYInygRPlEkTTxioU55JBNEUTBPRtLZsBN5ZHjYHb2WCJ8oET5RJU0+22mort/3222vFL3/1tXABwc4RaNOAQB14Tf0etK+unk9ituUgXiwbP4GYbTmq348++qg74YQT3Hve855k0O6jH/2oO/30091zzz0XANAvA4pQGJV3qGBAAd4KB97KBE+UCZ4ok7Z6wkCdtlUSaWuDlaQbwuQdUIQCJ6SAIhTwJKAIBTwJKEKhj57ceeedyRuxG264IXBIF2K+iUzvh3J8AjHbkvOJtl/M80nMttQjIRKTQMy2HEe/vO2229znP/95t+SSS7rXvOY1bpdddnFXXXWVi+n3OPIuazPyVjLwViZ4okzwRJngiTJp4gkDdcoziSCagmkimtaWjcA7y8Pm4K1M8ESZ4IkyaeLJPvvs49Zaay2t9OVIzDeRpTtlQRQCMduSfqlN1qRfam3ZSMy2zO6JudgEYrbluPvlD3/4Q7flllsmH+4su+yy7pBDDnF333332BGNO+90gjH7JXmnSc8pw1uZ4IkywRNl0kdPGKhTD5IIHUTB9LGDKIVsBE+yPGwOT5QJniiTNnry17/+1c0333zuvPPO04RfjsR8E1m6UxZEIRCzLdvodxWIXc07ZltW4cY64yMQsy1j+T1r1ix34IEHune/+93JoN0666zjvvvd77q///3vYwETK29LjusTbSJ4KxM8USZ4okzwRJk08YSBOuWZRBBNwTQRTWvLRuCd5WFz8FYmeKJM8ESZjOrJMccc4+wHwwc9Yr6JHLRflo2fQMy2pF9qe43aL7UmjcRsS90bkZgEYrblZPTLW2+91dmd2Ysvvnjywc+uu+7qrr766kbIJiPvRgmWbEzeCibmeRDe8FYCGsETZdLWfslAnbZVEmlrg5WkG8LkHVCEAiekgCIU8CSgCAU8CShCoW+erLDCCu7oo48Ox19UiPkmsmh/xOIRiNmWnE+03WKeT2K2pR4JkZgEYrblZPfLCy+80G2xxRbJXXZve9vb3GGHHeb++Mc/1sY32XnXTrBkA/JWMDHPg/CGtxLQCJ4ok7b2SwbqtK2SSFsbrCTdECbvgCIUOCEFFKGAJwFFKOBJQBEKffLk/PPPT34Y/Omnnw7HX1SI+SayaH/E4hGI2ZacT7TdYp5PYralHgmRmARituVU9ctHHnnEHXvssW6NNdZIBu3WW289d+aZZ7oXXnihEsqpyrtScgNWIm+FE/M8CG94KwGN4IkyaWu/ZKBO2yqJtLXBStINYfIOKEKBE1JAEQp4ElCEAp4EFKHQJ0/WXnttt/fee4djLyvEfBNZtk/icQjEbEvOJ9pmMc8nMdtSj4RITAIx27IN/fKWW25xe+21l1tsscXc/PPP73bffXd37bXXDkTahrwHJliykLwVTMzzILzhrQQ0gifKpK39koE6bask0tYGK0k3hMk7oAgFTkgBRSjgSUARCngSUIRCXzy58cYbk7scfv/734djLyvEfBNZtk/icQjEbEvOJ9pmMc8nMdtSj4RITAIx27Jt/fKCCy5wm222WfL6s/LKK7vDDz/c3XvvvYK3bXlLgiUB8lYwMc+D8Ia3EtAIniiTtvZLBuq0rZJIWxusJN0QJu+AIhQ4IQUUoYAnAUUo4ElAEQp98WSHHXZwW265ZTjuQYWYbyIH7Zdl4ycQsy05n2h7xTyfxGxLPRIiMQnEbMu29suHH344+X3U1VdfPRm0W3/99d3ZZ5/tXnzxxQR1W/Me5gF5K6GY50F4w1sJaARPlElb+yUDddpWSaStDVaSbgiTd0ARCpyQAopQwJOAIhTwJKAIhT548sADDyRvjK688spw3IMKMd9EDtovy8ZPIGZbcj7R9op5PonZlnokRGISiNmWXeiXN998s9tzzz3dIoss4hZYYAH36U9/2l100UXRkMfsl13gXQSWvJUKnigTPFEmeKJMmnjCQJ3yTCKIpmCaiKa1ZSPwzvKwOXgrEzxRJniiTOp4cuCBB7r3vve9WklJJOabyJJdEo5EIGZb0i+10er0S916cCRmWw7eM0vHTSBmW3atX9qfHG266abJh0lvf/vb3RFHHOHuu+++sSKP2S+7xtuDJW9PYmKKJxMsfAlPPImJKZ5MsPClJp4wUOcp5qaIlgPCwJECcc7hiWJpckLS2rIReGd52By8lUlVT2bPnu0WXXRRd/rpp2slJZGYbyJLdkk4EoGYbUm/1Ear2i91y+GRmG05fO+sMU4CMduyq/3ytttuc0cddZRbddVVk0G7DTbYwJ1zzjnOXsOaPmL2y67yJm+1Ck+UCZ4oEzxRJk08YaBOeSYRRFMwTUTT2rIReGd52By8lQmeKBM8USZVPTn55JPdUkstpRUMiMR8EzlgtyyKQCBmW9IvtcGq9kvdcngkZlsO3ztrjJNAzLacDv3ypptucp/73Ofcwgsv7F7/+te7PfbYw11//fUjN0HMfjkdeI8MtmRDeCsYPFEmeKJM+ujJXCbCzJkzkzuDrDzu56233jr2On2O5K3tBW9lgifKBE+UCZ4ok+nuyUorreT22muvWq9RMd9E6mUJkZgErC399cS4p5xPJvd8Qr+M2VMmt276pfadsvPJcccd59Zee+3kLrsVVljBfeELX3DXXnttrfPadH+dH+XcXsZ7lLry28C7ut95dqPMwxveVbxpqyfcUVdy/WGNGuvRxxHhYSzhrYTwRJngiTLBE2VSxZPLLrsseXPzpz/9SSsYEGFAYACcji2K2Zb0S5WhSr/UrapFYrZltQxYa1wEYrbldO2XDz30kDvyyCPdjBkzkte1DTfc0H3/+9+v1CQx++V05V0JbMlK8FYweKJM8ESZ9NETBurUgyRCB1EwfewgSiEbwZMsD5vDE2WCJ8okpid//OMfdYe5yEYbbeR23333XHT4bMw3kcP3zhrjJBCzLWP6zflELYjZlro3IjEJxGzLPvTLG264wX32s591Cy20UPK0ssXKHpxPlEwfPNGjHhzBE+WDJ8oET5RJE08YqFOeSQTRFEwT0bS2bATeWR42B29lgifKBE+UybCIfa3F3gzaD3TXedgPd8d8E1knF9ZtTiBmW9IvtX1inb/pl8q6yxH6pbbeqOcTu6vOPpQypqusskpy192DDz6Y2UGsfmk7GTXvTIIlM+StYOCtTPBEmeCJMmmrJwzUaVslkbY2WEm6IUzeAUUocEIKKEIBTwKKUMCTgCIUuupJOICSgv349sc+9rGSpeXhv/zlL26++eYrX4ElnSLAgIA2VxfPg/RLbccuR+iX2npN++UDDzzgvv71r7t3vvOdyaDdxhtv7M4999xkR119nSfv8XuiNU5E4D3Bwpea9ktfT9EU3kqlj7wZqFMPkggdRMH0sYMohWwET7I8bA5PlAmeKJOYnujeJiKPPfaYm2eeedzFF188EaxYst+zW3TRRSuuzWptJ8CAgLZQzH4Z6zxIv9R27HKEfqmtN85+af8Qax9WLbjggsk/x2677bbO/kk2xmOceefzi3U+sf2Qd562S/6gRKPjicBbOeK3MumjJwzUqQdJhA6iYPrYQZRCNoInWR42hyfKBE+USUxPHn/8cd3hy5G77rrL7bzzzqXLBy3461//6l796lcPWoVlHSLAgIA2Vsx+Ges8SL/UduxyhH6prRejX9pXxr/3ve+5NddcM7nLbtVVV3Xf+MY3xnoNFyNvTyfW+cTqJ29PeWIK7wkWvoQnnsTEFE8mWPhSE08YqPMUc1NEywHhhUuBOD5hKoLS5IRUVF86Rr9M05hThrdLvsLjB+cuv/xyt8Yaa7h77rlHYY0h8pa3vMXdfffdY6iJKqaSwDPPPBP19wbpl9q6Mc/f9Evl3cUI/bK41WKfT+6//353xBFHuHe84x3JeXGTTTZx559/fnEyNaKx866RSq1VyVtxxTx/wxveSkAjffSEgTr1IIlwQlIwfewgSiEbwZMsD5vDE2WCJ8pkXJ7YwJz9u51N7WFT+1qPxWxqX/PJP2ydAw44IB+uNL/22msndyFUWpmVWkvgkksucR/60Iei5Tcuv4sS5HyiVOiXyqSLEfplcatN5vnkuuuuc5/5zGfcAgss4BZZZBG35557uptvvrk4sSHRycx7SCq1FpO34uJ1R5ngiTLBE2XSxBMG6pRnEkE0BdNENK0tG4F3lofNwVuZ4IkywZM5d9Stu+66CZwjjzwymdoddjZQt9xyyyV32PkfzraFNoiXnleq5ZETTjjBbbDBBuUrsKQTBP7lX/7FfelLX4qWK/1S0cY8f9MvlXcXI/TL4labivPJSy+95M4++2y3/vrrJ3fZrbbaau7oo492Dz/8cHGSBdGpyLsgjdoh8lZkMc/f8Ia3EtBIHz1hoE49SCKckBRMHzuIUshG8CTLw+bwRJngiTIZtyennHJKcjedv7PO9ugH7SxmA3Z+3gbw/FdlNbPBkQcffDC50+APf/jD4BVZ2loC9ucDr3zlK93VV18dLcdx+51OlPNJmsacMv1SmXQtQr8sb7GpPp/ce++97qtf/apbeeWVk0G7zTbbzP3gBz8oT/jlJTHzvu+++4buf9QVYubN+VtbBd7KBE+USR89YaBOPUgidBAF08cOohSyETzJ8rA5PFEmeKJMYnjy8Y9/POzI7pjzv1Nng3I2kGdTXw4r1ixY3l/72tfcpptuWnNLVm8LgS9+8YvJ17nol9oiMfql30ts3vRLT7qbU/plebu1qV9ee+21bvfdd3eve93r3GKLLeb22msvd8sttxQmP0re9nMV9qFa+kM3X7nF7LU89mOUvKvmFPs8WDWPuuuRtxLDE2WCJ8qkiScM1CnPJIJoCqaJaFpbNgLvLA+bg7cywRNlgidzmNignH391Q/O+bvnbKkfpLNyegBPaQ6PeN7vfe973S677DJ8A9ZoFQH7iuQKK6yQfH2L84k2jfdblzSPTAZv+mXzdpqKGuiXg6m3sV++8MIL7qyzznLrrbdecped/YnTMccc4x555JFwME3yvv3225PXbnstt7K9ttvPVtjr/Kh3xIfEhhSa5D2kajcZ58FhOYyynLyVGp4oEzxRJk08YaBOeSYRRFMwTUTT2rIReGd52By8lQmeKJO+emIX6nYBb28ObPDNBuP8n0hYLP2pe3rQLl1WmsMjnvcvf/lLt+CCC7pzzjln+Eas0QoCp556qrN/B73zzjuTfDifaLN4v3VJ88hk8KZfNm+nya6BfjmceNv7pQ2iHXbYYW6llVZKBu0233xzd+GFF47tOtZe422Qzn7CIvYgnbVG23mXGUPeSmYyXnd0r80j5K0M++g3A3XqQRKhgyiYPnYQpZCN4EmWh83hiTLBE2XSxBO7ULd/bbVBN3va12H8AJwts0/c7YLenjZ4Z5/G28PW82XNqFoknfcNN9yQfP3H7gbh0W4C9qPoiy66qPv1r38dEqVfBhShkPY7BMdUmCze9MsxNdgkVEO/rAa5S/3Sfvtzt912c/PNN19yzt1nn32cDaCP+rDXdPvwzV7LbUDQPoTzr/uj1jlsuy7xTh8LeadpzClP1uuO7rlZhLyVXx/9ZqBOPUgidBAF08cOohSyETzJ8rA5PFEmeKJMxulJ+uusdiFv8/bwn8LbJ/F+UE8zqRfJ5/2b3/zGffjDH3Ybb7yxu/XWW+tV1rK17beHDj744PC0+a4/Hn30UffZz342ecN44403Zg6HfpnBkczk/dY1Ro9MJm/65ejtNBlb0i/rUe5iv3z++efdcccd59ZZZ53kLrt3vetdyfysWbMqHbwN0NkHa+k/gkpvaMv8oJ39rl36Q7n0eqOUu8jbjpO8tbUn83VH9z56hLyVXR/9ZqBOPUgidBAF08cOohSyETzJ8rA5PFEmeKJMxumJv5vO9pIu28W7f9ofTcw111yNL+bL8j788MPd0ksv7dZaay130kknuV/84hfuueeec7Nnz+7M0wbpdtxx4mnzXck/bZgNAtjdkzvttFPyD712R8dTTz2VXiUp0y8FybQ7f9Mvp/b8kzaMfpmmUa9c9rpTr5bitSfjPHj33Xe7Qw891K244orJ6/CWW27pLrroouKEXo7aXXQ2SGfncnvaXfRld8TbcnuNt8G6cTy6znscDPJ1TIYn+X2OY568lSJ+K5O2esJAnbZVEmlrg5WkG8LkHVCEAiekgCIU8CSgCAU8CShCoQue2MW5Xczb3XP2Cfyg36azu+3sYt/usLM3ATZf9zHMk/POOy/5k4nVVlsteUMy99xzu648iwbqupC7DcAusMACye/PWdu+4Q1vcB/4wAfc8ccf7x566KHSJu6C30XJk7dSoV+27zxDv1RPR40M83vUem27yT6fXHXVVclr5Gtf+1q35JJLun333Tf5cx9/DPa6bD9fYedye01PP2xAzj6Ms9f5/DJbryiW3t6uE8oG+9LrTSfe6eNqUp5sT5rkmt6WvNM05pTxW5m01RMG6rStkkhbG6wk3RAm74AiFDghBRShgCcBRSjgSUARCl3xxC6+beDN3hjaQJxdrKe/Amvz6QE8m7eL/SoX7AHGy4Xp7EnRQF3++Ivm2+DJn//8Z3f//fe7xx57rCjFwlgb8i5MbEiQvBUQ/VKZtMET+qW2yyiR6ei33XF+xhlnuM0228w9+eSTyeu2vS7ba7kN1A26O86/ptv6db7yatcFVv+wx3TkPeyYhy1vw/lkWI5Fy8lbqeC3MmmrJwzUaVslkbY2WEm6IUzeAUUocEIKKEIBTwKKUMCTgCIUuuaJ/50aG7Czu+z8HXNln76HA61RmM6ejPobdV3zxDc3eXsSE9Pp7PfEUdYrTbUn9Mt67TVobfxWOlPtt71O24Cbfchmr+H2sNfvsg/SbH0bqLMP6Gw9G9RLfxCXP0K7C8/W9w+7PvD78THbl9XnH88884wvjn061bxHPSDyVnKcT5QJniiTJp4wUKc8kwiiKZgmomlt2Qi8szxsDt7KBE+UCZ4oE7uQt0/Z7QLeHvYmYFwPeCtJ+qUywRNlgifKBE+UCZ4ok+nsSXoQzY7cBtZsAC4f91Rsmb2+5wfb/PL81O6gs5/I8B/YWTldtw3S+Z/DSMfz9YxrHr+V5HT2W4+2WgRPlFMfPWGgTj1IInQQBdPHDqIUshE8yfKwOTxRJniiTGJ64vdmF932Kbm/s87Hm0xj5o0n2jLwViZ4okzwRJngiTLBE2XSNk9sEM4PqtlddvZBm38N94NqZXfb5Y/OtrM76OxawJ5Wr9Vng4H2sHps4K7qoF++/lHm28a76jGQt5LifKJM8ESZNPGEgTrlmUQQTcE0EU1ry0bgneVhc/BWJniiTPBEmaQj47ybzuqFd5runDL9UpngiTLBE2WCJ8oET5RJXzyxwTQbWPMDc56E/xOJYb9d59f3UxuYs4G//MPuoLNBQKuv6qBfvo5R5/FbyfXFbz3y8gieKJs+ejKXHfQdd9yRvPmw8rifM2fOHHudPkfy1vaCtzLBE2WCJ8oET5RJGzyxC/eihw3AFV2Ap9e1T8mrflJu+/GvLYOmeNJOTwa1WdmyNvhdltugOHmrg/RLZYInygRPlMlUefLwww+7l156Kf2Sndzx5n+yIrPg5Rk/wGYDcP635/zdcUXr+6/Jpu+i838+5df3g4D+Tj4fHzRNX5f85S9/cbNmzap0/WDn9aniPeg1pcoy8ta+w/lEmeCJMmniCXfUlZyJGclWMHYij/WAt5KFtzLBE2XSV0/sYr7Kv7cpsWaRvvIeRI1+qXTwRJngiTLBE2WCJ8qkL57Ya3r6Tx3SJGxAzQbe/MPuhLO74mzwLn8Hnq1jH9Ll17cBO9tH0Z32Vk/Zvv0+bWqDdFZH1Q8B09taGb/zRPimghLBkyImfTkPpo+dgbo0jVSZE2kKxsvFPnYQpZCN4EmWh83hiTLBE2VSx5P0p9dWk837r7QUXaDr3sYXqZN33b3iiRKDtzLBE2WCJ8oET5QJniiTtnhiA2/+9+Q0Sxf+EKJojtYHTAAAIABJREFUWdF1gN0hZwN56YddO9g+bEDOButsajEbBBx0J1+6DvtNOxuoy39ltiiH9Ha+3BbePp+qU/JWUpxPlAmeKJMmnjBQpzyTCKIpmCaiaW3ZCLyzPGwO3soET5TJdPfELn7zF8X+4tpo5C+WldB4I9Od9yi06JdKDU+UCZ4oEzxRJniiTPrgid2hlr9LzT6Qs2sAP8BWdTDMr2/bpwfkbN4G2vzD6rOYXWNUuZvOBv9sXas//7BBwSrXI/idJ8f7HSXCHXVFTPpwHswfNwN1eSIvz3MiVTB97CBKIRvBkywPm8MTZYInyqSqJ3YhbRfW9rUU/1s0/msrVS6Kbc92UZ1/A6AZVYtUzbtabdm18CTLw+bgrUzwRJngiTLBE2WCJ8qkzZ7Ya7d9fdWe6QE2PQqXDOjZYJldJ9h26cE0PyBn1xH++sHXYesNupPPr5cepLPBPXum92H1DsvR6rrvvvt8lWOf4rcibbPfmu1EhLwnWPhSH/1moM63fm5KB8kB4Q2TAuG3JgqZ9PFEWggiFeR8koLxcrGuJ3ZRbBfZdiFsF912QW4X73ZxbINw6QtmvzeL23rpQT6/bNRp3bzr7AdPlBa8lQmeKBM8USZ4okzwRJm03RO7080Gyex1v8rDPsCz6wJ7prexuF0L5Jf7+gfVbfu3bdPXGX7wz/Zjg4M2tbvtpvKB30q/7X5rxnMi5K1k+ug3A3XqQRKhgyiYPnYQpZCN4EmWh83hiTLBE2VS1xO7uLan/4qKXTDbhbEfvLOyDeLZ78zYp+P2tHVt3palL9g1m+qRunlXr5mvOhSxgrdS4XyiTPBEmeCJMsETZdJVT/RINGKDcPb67wfj7IO79MPiwz7I83fS2fVE2XWEXZtY3fa08lQ98FvJd9Vv8ta27KPfDNSpB0mEDqJg+thBlEI2gidZHjaHJ8oET5RJHU9sAM4utu1hA3Q2+OYvhm3eLo7t7jof072NL1In77p7xRMlBm9lgifKBE+UCZ4oEzxRJl31RI+kPGIDbPbhnV0r+J/QsLXt+qHsZzFsG7v2sOU2tUE9/7BY2QeA/u46G+Cz52Q+8Ftpd9Vv8ta27KPfDNSpB0mEDqJg+thBlEI2gidZHjaHJ8oET5TJME/sAtp/ep2+ILaLZX8Bbev4h1042yfj6Ytpv2yc02F5N9kXnig9eCsTPFEmeKJM8ESZ4Iky6aoneiTlEbsu8F9LtQ/07JoifV1h1xT+esNqsWsLP6Bn5fzXXv06Vq/9LIdN09cj6eX5uM8yvT+L2XzZun6bYVP8VkJd9Zu8tS376DcDdepBEqGDKJg+dhClkI3gSZaHzeGJMsETZTLIE7tYtYtq+/TbynZBbQ+7kPUX2xa3wTm76PaDc1aOfWfdoLz1KOtF8ER5wVuZ4IkywRNlgifKBE+USVc90SMpj9gdcTagln/YtYNdX9jddmV3v9l26WVFg2l2beLrsvXt2mXYw99x5+uza5v0foZtX7Qcv5VKV/0mb23LPvrNQJ16kEToIAqmjx1EKWQjeJLlYXN4okzwRJkM88QG3eyi1S6g7SLbLoT9xbB90m0xe+S/kmLb2VdjYz2G5d1kv3ii9OCtTPBEmeCJMsETZYInyqSrnuiRFEfsusGuI2xa9rBlNsDmB83S69kAmn0o6B/+2sTWL6rTLy+qy9dhU//beDbAZ9c6Vl/TB34rwa76Td7aln30m4E69SCJ0EEUTB87iFLIRvAky8Pm8ESZ4IkyqeqJ/4qK3Snn76azi2Z/F52/2872YBfIduFsF73pC2vd++iRqnmPsgc8UWrwViZ4okzwRJngiTLBE2XSVU/0SIojdq0w6iCYXVPYtUf6kR6A83Xb1Mf9NL1Nvmzr5+u1fdn1jN2NZ2V7VKkrXTd+p2nMKXfVb/LWtuyj3wzUqQdJhA6iYPrYQZRCNoInWR42hyfKBE+USRVP7GI1/TsxflDOT+0i1n8KbnfW2afm9im1DdZV+eqJZjU8UiXv4bUUr4EnygXeygRPlAmeKBM8USZ4oky66okeyfgjdh3hrzd87XatkR9As2sOG3yzDwnzA3B+u/TU6rCnXb+kB/n8OnbdY/u265k6Hzrityc4Me2q3+Q90Ya+1Ee/GajzrZ+b0kFyQBiAUSDOOTxRLH08kSqFbARPsjxsroon6cE2u1i2i2M/OGd1WMzWKfr6SXpb3fvokSp5j1o7nig5eCsTPFEmeKJM8ESZ4Iky6aonDzzwgB7MmCP+gz9frb/DzgbY7PrDf5Dol9vU1im6JvHr2LL0V3H9IJ/Vlx6U83fd+bvr/PaDpvitdLrqN3lrW/bRbwbq1IMkQgdRMH3sIEohG8GTLA+bwxNlgifKZJgn6QE529oPvPkBO4vZp9cWt4tpK6cvaO0iN8ZjWN5N9oknSg/eygRPlAmeKBM8USZ4okzwRJlYxAbh8r93a9cZ6a/R2jWHXZPY0wbcigbu8rXb9nbXnd8mvdzXZ+vYvm2dOg/8Vlr4rUzwRJm01RMG6rStkkhbG6wk3RAm74AiFDghBRShgCcBRSjgSUARCm3xJP01Ez9gZwNxdmFsy2zqL37t4tbm7RnjgSdKtS2eaGaDI+StfPBbmeCJMsETZYInyqSrntiR2FdT8x/45e+wSx+x/9Bw2LWHDdL5em1gzwbjbD59nWN1pO+6S+9nULmrvMlbW5XziTLpoycM1KkHSYQOomD62EGUQjaCJ1keNocnygRPlElTT+zi1i5s0xe9thf7wwn71DvWo2neg/LCE6UDb2WCJ8oET5QJnigTPFEmeKJMbKDMBuXSg2c2mGbXG2UDcfm77bRWl3y11Qbg0nf/23q2H/uw0Z42eOfvqCuqY1AMv5UOfisTPFEmbfWEgTptqyTS1gYrSTeEyTugCAVOSAFFKOBJQBEKeBJQhMJUeGIXqf7T5pBIrmAXuf4rJv7i2VaxuH0Knr8Izm3eaBZPFN9UeKJZ1I+QtzLDb2WCJ8oET5QJniiTrnqiR+KSr6La9Ya/C84G0/xAnk3zA3tFddhv0Fkd9iy6k862sesXG8yzdeo+usqbvLWlOZ8okz56wkCdepBE6CAKpo8dRClkI3iS5WFzeKJM8ESZFHniL1DLPrHWWuZE7CsndlEbc4DO77sob7+s6RRPlCC8lQmeKBM8USZ4okzwRJngiTKpEvF3wdmAm12D2IeEZQ+7NvHXNX5q6/q76KwO/+GjrVtl0K9oX/itVPBbmeCJMmmrJwzUaVslkbY2WEm6IUzeAUUocEIKKEIBTwKKUMCTgCIUpsKT9NdW0xe3IamSQnq7klXGEsYTxTgVnmgW9SPkrczwW5ngiTLBE2WCJ8qkq57okQyO2E9u+IG2/Jo2MJcexEv/XIfF/XZ2vWMDdvY7u6Nez3SVN3nnrXGO84ky6aMnDNSpB0mEDqJg+thBlEI2gidZHjaHJ8oET5RJkSf2tRB72sM+abavf/ivlljMynbnnL+wTddqF8PpddPLxlkuyntc9eOJkoS3MsETZYInygRPlAmeKBM8USZ1IzbAln/Y9YjF7e44v9yub2ygzj/8cj9vUxu889dB6XiVMn4rJfxWJniiTNrqCQN12lZJpK0NVpJuCJN3QBEKnJACilDAk4AiFPAkoAiFyfbEX8xaAjYgZ59Sp78mYhe+dtGbjoVkJ6mAJwp6sj3RDEaLkLdyw29lgifKBE+UCZ4ok6568swzz+jB1IzY9YrdGZe+O87K6escG5Cz65xxPbrKm7zVAM4nyqSPnjBQpx4kETqIguljB1EK2QieZHnYHJ4oEzxRJg8//HAmaINv6R9PtovZorvn0he5mQomaQa/FTR+KxM8USZ4okzwRJngiTLBE2XSRU/yHzTmvwVg10FFP/nx5JNPus0228ydfvrp7rnnnlMYL0fwRNF00RM7CvLWtuyj33OZCDNnzkyEsPK4n7feeuvY6/Q5kre2F7yVCZ4oEzxRJniiTGJ68sgjjySvwnZRao/0AJx9yuy/+mFxfzFrX3n16+tLeHHkT3/601hfg/Bkcj2BN7z9Nd+gKZ7gySA//DI8wRPvwqBp3pMHHnjAPfHEE+75558vvtCoGLW758q+2mofTNpAnV3v5O+ysw82d955Z7fooou6eeed12211VbuzDPPlGubfN6DjrHuspjXg+RNv6ziYx894Y66kpOrCRPr0ccR4WEs4a2E8ESZ4Iky6aonL774YvJPafZ7LXZxar9J5x9+0M4uWG25/biyrePjfr2pmHaVN3mrLZxPlAmeKBM8USZ4okzwRJngiTKxATkbrLNrG7umsWsbe6QH52xZ+pooXcsPf/hDt+WWWya/4bviiiu6Qw45xN19993JKvBOk5pTpl8qEzxRJm31hIE6bask0tYGK0k3hMk7oAgFTkgBRSjgSUARCngSUIRCTE9sJ3Z3nF2c+sE6i9lFa/orsLaO/a6L/bGEDdj5O+1CkpNcwBMFHtMTeMNbCWgET5QJ/VKZ4IkywRNlEtMTvzf/AaVd/9hXYtN/nmXXOsM+mJw1a5Y77rjj3Lvf/e5k23XWWSeZ//vf/+53MdYpnijOmJ7AG95GgIE69SCJ0EEUDCckZYInygRPlAmeKBMfsbvm7ALV/+By2afIdtFqT7ugtYvY9GCer2sypvitlPFbmeCJMsETZYInygRPlAmeKJOueqJHMudDy/TPetj1jf/Jj6L18zH7Wuo+++yTfDV2vvnmc7vuuqu7+uqr86s1mu8qb/LWZud8okza6gkDddpWSaStDVaSbgiTd0ARCpyQAopQwJOAIhTwJKAIhZie+J3Y787ZXXI2AGflogE4u2BNx61sn0Kn78Tz9cWe4okSjukJvOGtBDSCJ8qEfqlM8ESZ4IkyiemJ7m18Ecv7wgsvdFtssUXyAejb3vY2d9hhh7k//vGPjXeCJ4owpifwhrcRYKBOPUgidBAFwwlJmeCJMsETZYInysRH/Nc77NNkG6wr+hTZ7rIritudeH57X1/sKX4rYfxWJniiTPBEmeCJMsETZYInyqSrnuiRjC+S9sT+sOvYY49Nfl7ErpXWW2+95A8oXnjhhZF22FXe5K3NnfZElzaLwFv5NeHNQJ3yTCKIpmCaiKa1ZSPwzvKwOXgrEzxRJl31xI7EBufsLjr/sAE5+5Hl/KNoMM7Wta/L+h9iTm/zl7/8JT071nJXeZO3asD5RJngiTLBE2WCJ8oET5QJniiTmJEy3rfccovba6+93GKLLebmn39+t/vuu7trr722Vir4rbjKeOua9SPwVmZ95M1AnXqQROggCqaPHUQpZCN4kuVhc3iiTPBEmVgkPwBng3b+9+r8n0bYYF76t1t8TekBPh/z04cfftgXxz7Fb0WK38oET5QJnigTPFEmeKJM8ESZdNWThx56SA9mTJEqnlxwwQVus802S661Vl55ZXf44Ye7e++9d2gGXeVN3tq0VTzRrapF4K2cmvBmoE55JhFEUzBNRNPashF4Z3nYHLyVCZ4ok656YnfCHXDAAXJANihng3VN/jQCTwQr5xNF4vBEoXT1fELe2pb4rUzwRJngiTLpgyf2gebRRx/tVl999eSaa/3113dnn322e/HFFxWIc7xeFlDpgycFhz0wxPlE8TTxhIE65ZlEEE3BNBFNa8tG4J3lYXMxeNut7gcffHB41r31XbPUSIy8/V7wxJOYmHaVd9Fvzvmjsq+0+j+W8H8aYXffDdrGb2tTPEnTmFPuqifkrW2J38oET5QJnigTPFEmeKJM+ubJzTff7Pbcc0+3yCKLuAUWWMB9+tOfdtddd10GDJ5kcCQzffNECWikqiejvB/tI28G6tSxJFJVtJLNB4b7KNpAILyxLsRT15PZs2e7YU8bpNtxx4mnzQ/bpjC5AcG6eQ+oShbRLwVJlAFdv5eYvP0+iqZ2t136t+rsa7Drrrtu+Fps0Vdh0/XEzBu/06TnlOGtTPBEmeCJMsETZYInygRPlAmeKJNxeHL++ee7TTfdNLneevvb3+6OOOIId9999/EBqOKOev191113DX1/Nuz9W9ly+/p12bKm8ap5j/J+tA15j8KnydfdGagr6HgW4gVAwYzjBUBrnROBt5LJ87YXym9/+9vu0EMPdZ/73OeSgYwPf/jDzn5jYtFFF01eVOeee2436Fl0Yhy0vl9m9dt+bH82gGL7tzwsH8sr/cjnnV7WtIwnSrCrvGfNmqUHk4rYXXX5O+hsAM/i9rXYQQ88UTpd9YS8tS3xW5ngiTLBE2WCJ8oET5QJnsz5Vs9RRx3lVl111eT9xZprrunOOeecZIBHiTWLwFv52U/A+Pdg03E66vvRLrKwthz1wUBdCTleuBQMJ1JlEtsTu5PowAMPTH5DwgbLtttuO/flL3/ZffOb33TnnXeeu/rqq93vfvc7N2zQw2dedGL0ywZNrX7bj+3P9mv7tzwsH8vLfuPC8rR88URJxvZE9zieyFTmbXfN+T+UyB9N0T+9pteZyrzTedQtk7cS43yiTPBEmeCJMsETZYInygRPlAmeZJncdNNNyfX+wgsv7F7/+tcnH5iWXZ9lt6w2B2/l1GRwR2trX2TU96PtO5LhGTVpSwbqSvjywqVgOJEqkxie/PjHP3bbb799MgC22mqrJT+4n/+tCM2kWmSU3wSoUrPlZ38MYPnawJ3lb8cx7kcM3j5H/PYkJqZTzfvcc8+dSKZGaarzrpFqZlXyzuBIZuiXygRPlAmeKBM8USZ4okzwRJngiTLxntiH9RtvvHFyl9073/lO97Wvfc098MADukGNCLwVVpPBHa2tfZFY70fbd6Qu6Suj5sVAXQk5f0IqWdwozAlJ8cHbOTtpfexjH3PveMc73EknnVTp79KV5NRH7G/eLX87DjseO65xPfBESU6384kN+toFyqOPPqoHWzGCJwpqunmiR1g/gifKDE+UCZ4oEzxRJniiTPBEmUwXT+x3t+xPvmbMmJFcs2244Ybu+9//vh5whQieKKTpPlCnRzx9I03akoG6Ei+my4m05PBGCnMiVWzj8ORXv/qV23rrrd0//MM/uJNPPll30uGIHY8dlx2fHWfTxzh4l+WA30pmKnhvs8027hOf+IQmUyMyFXnXSK90VfJWNPRLZYInygRPlAmeKBM8USZ4okzwRJkM8uSGG25wn/3sZ5PfD7bfELayxao+4K2kmgzuaG1EppJAk7ZkoK6k5QadkEo2qRzmhKSo+sjbjnnnnXdO/g7dfrB1Oj/s+Oxv3+14m7R1k22H8aVfKqHJ5m2/PWcvaPZbiE0ek513k1zT25J3msacMv1SmeCJMsETZYInygRPlAmeKBM8USZVPbG76jbaaKPkWm6VVVZJ7rp78MEHtcJUBN4pGC8XmwzuaG1EppJAk7ZkoK6k5aqekEo2HxjmhKR4+sbbfr/NfpT1oIMOcn/7298UyDSM2HHa8dpxj/r7dX3zpIoG0+l8st9++7kPfOADVQ574Dp4onimkyd6dKNF8ES54YkywRNlgifKBE+UCZ4ok754Yr9b9/Wvf93Z79jZQIX9rl3Z7w7jiXrSZHBHayMylQSatCUDdSUt15cTacnhF4Y5kSqWUTw5/vjjk9vDL7vsMq2wBxE7brs13jjUfYzCu+o+8FtJTSbv559/PvHirLPO0kRqRiYz75qpDVydvBUP/VKZ4IkywRNlgifKBE+UCZ4oEzxRJk08sX+I3WOPPdyCCy6YfFj/uc99ztk/yfoHvD2JiWmTwZ2JWii1gUCTtmSgrqQFm5yQSqoMYU5IAUUo9IW3vTi9613vcnfeeWc49j4W7PiNg/Go8+iLJ3WYTJfzyYknnuiWWWaZOodeui6eKJrp4oke2egRPFF2eKJM8ESZ4IkywRNlgifKpM+ezJ49233ve99zG2ywQXKX3aqrruq+8Y1vuNtuu01BjSnSVd5NBnfGhI5qxkSgSVsyUFfSCF3t2OStDdqGC4VZs2a59dZbz33qU59yL7zwgibZw4hxMB7GxfhUeeC3UmqD35rV8Eg+b/uX4COOOGL4hhXWwBOFlOeta4wegbeyg7cywRNlgifKBE+UCZ4oEzxRJl3y5P7770+u+ezazwYyNtlkE3f++efrQTWMdNWTJoM7DZGx+ZgJNGlLBupKGqOrHZu8tUGn+oXLBqGWX35595WvfEWTI5JwMT5VBuvwW4WZar81o2qRdN4/+tGP3DzzzOMef/zxahsPWQtPFFCaty5tFoG38oO3MsETZYInygRPlAmeKBM8USZd9eSiiy5yn/nMZ9wCCyyQ/PHcnnvu6W6++WY9wBEiXfWkyeDOCJjYJCKBJm3JQF1Jw3S1Y5O3NuhUv3DZHWMM0mm7pCPGxzgNe+C3EppqvzWjapF03uuvv77753/+52obVlgLTxRSmrcubRaBt/KDtzLBE2WCJ8oET5QJnigTPFEmXffkpZdecmeffbaza0Ib3FhttdXc0Ucf7R5++GE92IqRrnrSZHCnIhpWmyQCTdpyLuvUd9xxh7NpjOfMmTOj1Evexe0Fb+UylX7vsssu7pOf/OQknQq6vRvjZLwGnYfwu11+D2qrYct8v7ziiiuSC7Irr7xyYNsPqy+9HE+mnyfp9h1XGU/wpIpLeIIneKIOVGHiX+errFt3Hfqltsl04m131O23335uhRVWSK4R7cP8U045pfZ1Ylc9aTK40+13g9Mve2vLuuc3vz531JX40NURePLWBjXZYz0G8bZ/NbU/TOA36arRN07Ga9C/wQ7iXW0v5WtNlSflGVVb0vW8d9ttN7fxxhtXO9iKa+GJguq6J3pEzSN4ogzxRJngiTLBE2WCJ8oET5QJniiTYZ5ce+21bvfdd3eve93r3GKLLeb22msvd8stt2hFBZGu8magrqAxOxpq0pYM1JU0elc7Nnlrgw57AdAtqkfKeP/4xz92Cy20UO//3bU6yTlr2r/BGjfjV/Qo4120bt3YVHhSN8ei9buc9yOPPJJ8UlrW3kXHWyWGJ0qpy57o0YwngifKEU+UCZ4oEzxRJniiTPBEmeCJMqnqiX2gf9ZZZyU/lWODH2ussYY75phjnF1Llj26yrvJ4E4ZC+JTQ6BJWzJQV9JmXe3Y5K0NWvUFQLccHinifffdd7uFF17YXXrppcMrYA0hcNlllyX8jGP+UcQ7v86o85Ptyah55rfrct6HHHJI8hsk+WNqOo8nSrDLnujRjCeCJ8oRT5QJnigTPFEmeKJM8ESZ4IkyGcWTe+65xx122GFupZVWSj7w3Xzzzd2FF14olXeVd5PBHYFAYEoJNGlLBupKmq6rHZu8tUFHeQHQWoojRbx33nlnd9BBBxVvQLQSAeNnHPOPIt75dUadn2xPRs0zv12X837Tm96U/OZI/piazuOJEuyyJ3o044ngiXLEE2WCJ8oET5QJnigTPFEmeKJMmnpy9dVXO/sZlfnmm88tvvjibp999nG//OUvkx11lXeTwR0lTGQqCTRpSwbqSlquqx2bvLVBm74AaI0TkTzvX/3qV8lfiz/zzDMTK1GqTcD4LbLIIs54ph953ullTcuT6UnTXNPbdzVv+7qC/dbI7Nmz04czljKeKMauekLe2pb4rUzwRJngiTLBE2WCJ8oET5RJFzx5/vnn3Xe/+123zjrrJHfZ2e9eH3DAAW7WrFl6QGOIxPSkyeDOGA6NKsZIoElbMlBX0hBdOCEVpU7eSiXmiTTPe+utt3ZHHXWUJkGkNgHjaDzTjzzv9LKm5cn0pGmu6e27mveqq67qvvzlL6cPZWxlPFGUXfWEvLUt8VuZ4IkywRNlgifKBE+UCZ4ok655Yj+fc+ihh7pll102GbTbcsst3UUXXaQH1iAS05MmgzsNDolNIxBo0pYM1JU0SNdOSP4wyNuTmJjGPJGmeV933XVumWWWmdgxpcYEjKdx9Y80bx8b13SyPBlXvr6eLub9s5/9LLlwevDBB/1hjHWKJ4qzi57YUZC3tiV+KxM8USZ4okzwRJngiTLBE2XSZU+uuuoqt8suu7jXvva1bskll3T77ruvu+222/Qga0ZietJkcKfmYbB6ZAJN2pKBupLG6fIJqeSQGodjnpCmA++Pfexj7uSTT27MmQomCBhP4+of08ETfyzjmnaxX26xxRZyt+S4eFg9eKI0u+iJHQV5a1vitzLBE2WCJ8oET5QJnigTPFEm08GT5557zp1xxhnuox/9aPJh8Xve8x53/PHHu0cffVQPuEIkpidNBncqpM4qk0igSVsyUJdrqGuvvdYdfPDB4Wnz437E7NjT4UTaRd6XX365e/vb3z7u1KnPuYSr8bUHfqsSXTuf3HHHHckF0iWXXKIHM6YInijIrnnij4C8PYmJKX5PsPAlPPEkJqZ4MsHCl/DEk5iY4skEC1/CE09iYjrdPLHjsff7K6ywQnJNutVWW7kf/ehHEwdcoRTTkyaDOxVSZ5VJJNCkLUcaqLMf/676vOuuuyqvW7VOv95DDz009rqt0+6448TT5v3+xjWNkbfPbRTeVV2NeULq+gvADjvs4E466aSqKFmvBgHjanzt0XVPahx25VW71i/32msv95GPfIQ7pQpaGL8VStf89kdA3p7ExBS/J1j4Ep54EhNTPJlg4Ut44klMTPFkgoUv4YknMTGt4snPf/5zt/POO7t5553XvfGNb3Rf+MIX5M/sJmqcKMXk3WRwZyJDSm0g0KQtRxqosx3OPffc0/JZNFA3XY/VjquOPDFPSFVOpKN2tsnI2/4O/N577x01RbYbQMC4Gl97dN2TAYc58qLJ8Hvk5HIbPv300+41r3mN+8EPfsBAXY6NzeK3QumS3+nsyTtNY04Zv5UJnigTPFEmeKJM8ESZ4IkyqePJs88+677zne+4tddeO3l//N73vtd985vfdI8//rhWHPmnOeq8Py9MjmBrCDRpy5EH6lpz9GNOpGigbsy7aFV1deThBUCbzl5ikhZsAAAgAElEQVQArr/+emf/YMkjHgHja5zrvODWzQa/ldi4eds/+a644orJjuAdn3d6D/BO05hTHrff6T3AO00D3kpjTgRPlAz9UpngiTLBE2WCJ8pkVE/+8Ic/uIMOOsi99a1vTQbtPv7xj7uLL744s4OYvOu8P88kxUzrCDRpSwbqcs05Gb9Rl9vllM7WkSfmCWnUE2kVeLHzPvDAA93+++9fJRXWGZGA8TXOXfZkxEMfullsv4cmUGMFu+A59thjky26lHf6EMk7TWNOmX6pTPBEmeCJMsETZYInygRPlAmeKBM8USbj8OTKK690O+64o3v1q1/tllpqKffFL37RzZw5M+o3Q+q8P9ejJtImAk3akoG6NrXkFORSRx5eALSB7AVgjTXWcNddd50uJDI2AsbXOI/jBbcsKfxWMuPkfe6557r55pvP/fWvf012BO+4vPO1wztPhK8aKxH+ZbeIyTjPg/n66Zd5IvRLJUK/LGJCv1QqnE+UyTg9eeaZZ9xpp53m1lprreQuO3tf8q1vfcs98cQTuuMhkfvuu2/gGnXenw+siIVTTqBJWzJQN+XNN7UJ1JGHFwBtq2uuucYtssgiuoDI2AkYZ+Md69FHv4fdQTzOC5wPf/jDbt999w3N10fe4eBLCuPknd8FvPNEGBBQIgwIFDGhXyoVzifKBE+UCZ4oEzxRJl305M4773R77723W2655ZJBu0984hPu0ksv1YMriRx33HHujDPOKFnqkjpLF3ZgQdH4QlGs7FDqrFtWR1viTY6Fgbq2tOIU5VFHni6eSA1rzLwPP/xwt+22205R6/Vrt8bZeMd6xPSkrRdmw36Tc1x52+8L2rnGfvPDP/rI2x972XRcvIvqh7dSgbcywRNlgifKBE+UCZ4oEzxRJniiTLruyU9/+lO3ww47uFe+8pXuzW9+s9tvv/3c7bffrgeaithAnV0Xl92AUOf9eara1hSL8i+KDUq47vqD6prKZU2Og4G6qWy5Fuy7jjxdP5HGwG2fpthvp/GIT8A477PPPtF21Ae/b7zxRnf66ae7r3zlK8lFRdFA3Uc+8pFk8Pnzn/98st4999zTmPl2223ntt5660w9feCdOeAKM1zAKyQ8USZ4okzwRJngiTLBE2WCJ8oET5QJniiTvCf20y6nnnqqW3PNNZNBuA984APu3//9392TTz4pG9tv3tl7cHva793lH3Xen+e3nep5n7ufWj5W9k8/n8/TLx80zW/ThXk7nlEfDNSNSm6abFdHnvwJaZwIuvoCYCfaE044YZwoqKuEgHHeaaedSpY2D09Xv2+66abkh2+XX3559453vMNtv/32yQCcDdgVDdT97Gc/c2eddZb7xje+kQzmLb744sm/Gh9wwAHJP+/WJW2/w2Hnmf/8z//MbDpdeWcOsuZMV8+D5K0Njd/KBE+UCZ4oEzxRJniiTPBEmeCJMpkqT+644w735S9/2S277LLJNfCnPvUpd9lll4UE/WCeXR8vuOCCMlhX5/15qLQlhbLcfdxP8+mWxf16w5b79do2bZI3A3Vta81JzqeOPLwAaONsvPHGzn4kn0d8AsZ50003jbaj6eT3Y489ltx6b/+yuvLKKycXC7/+9a+F3bDfqPMb2FdXbaBu1VVXdUsssYQ74ogj3EsvveQXD5zaP/a+//3vl3WmE285uBEDU3VBOWK6YTPyDihCAb8DilDAk4AiFPAkoAgFPAkoQgFPAopQwJOAIhTwJKAIhTZ48pOf/MTZN0te8YpXuKWXXtrtscce4e4yex9uz2WWWSZz512d9+fhYFtQ8Mfjp5aSL+en+XRt+aDHsOWDtp3KZU3yZqBuKluuBfuuIw8vANpgdlvzVVddpQuIjJ2AcTbesR7Txe+jjjrKzT///MnXhG+77bax4/rtb3/rttlmm+Qv6k888cSB9b/44otu4YUXdt/97ndlvenCWw6sQaANF5SjpE/eSg2/lQmeKBM8USZ4okzwRJngiTLBE2XSJk+efvppd8oppySDcvb+O/+cMWNGOIA678/DRi0p+Nz91KeVn/dxP2263NfTtumw4xqULwN1g+j0YFkdeXgBUCFWXHFFZwMXPOITMM5ve9vbou2o637/4Ac/SO6e23zzzd1vfvObaJx8xfZ7d3ZH6UorreTOPPNMH85M7bc53vKWt2RifqbrvP1xjHPapgvKOsdF3koLv5UJnigTPFEmeKJM8ESZ4IkywRNl0jZP7Pfq7Kuu9v676GmDdfazNP5p33zp2sOPLfip5Z8/1qJjyq9TNF+0XVtjVb+1NCh/BuoG0enBsnQnGna4vAAooUUWWcT96U9/0gVExk7AOBvvWI+u+n3XXXe5jTbayK2++urukksuiYWntF77tyu76LDfa8w/VlllldJ/6u0qb/LOt7JzbbsQ1gyLI+StXPBbmeCJMsETZYInygRPlAmeKJM+eZL+E4migSiLveUtK7oddzw4edqAXdcefmwhPfVlO5Z0OX1sZXG/zrDlfr22TIt+B7xubnPZCcP+bcSmVZ9dA1UXSp/Wt7as2u51Palar6136623Vs6jTr22bsy8jd/s2bP7pMyUHatxruNrmzwZl99Fn87YHW32D61T/dh1113de97zHudz/OQnP+nmnntud/HFFxf27Zj9cly8ixwib71WgLcywRNlgifKBE+UCZ4oEzxRJniiTPBEmbTJkwMPPFDuLLP3NQsssIB705velHxryL6ptfzyM9wmm+wxbQbq7P2JHWf6WfSexZZPp0fRQF3R+4pBMe6om05GjHAsdTpFnz7xqIqyDr+qdbJeOYGYvLvgd9FJ/7jjjisHNslLvv71r4d/kl1qqX90K6ywRjJflEZs3n7A0JjZ0+bH8Yid9zhyLKqDvJWKXRzFesBbycJbmeCJMsETZYInygRPlAmeKJO2eHLfffc5u14/44wz3DXXXJPcRGIx+yps+vGv//qvyUCdDdbZXXV2/dq1h3+vZtN02R+Hj/l5mxbF0su7WC56z1b3OBioq0tsmq1fp2PwAqCNX4efbk2kLoGYvLvg9zhO+nWZ113fctxuu39LXnQ33vjTpRcZsXnHYhU777q8q65P3kqqLRfwmtngCHkrH/xWJniiTPBEmeCJMsETZYInymTcntgdkUsssURy/Wx31tl17Lg+ZNbs40X8ezU/tT1ZOf3M7z29bn5ZV+fHccMAA3Vdbf0x5V2nY4z7hJQ+hK6+ANThlz5eyqMRiMm7C37HGnwarTWKt6qa47h5P/vss+6CCy5wu+22m1t77bWTCxz/Gx/+U8kNN9wwWW7r2fqjPMaddzqHrp4HyTvdinPKeKJM8ESZ4IkywRNlgifKBE+UCZ4ok654Ynfa5f9kQo+mG5Gi92rpWLpsR5Sf78ZRVs+yyfExUFed87Rcs448vACoAnX46dZE6hKIybsLfo/j05m6zOuuXzXHcfE+7bTT3CabbOLmmWcet95667lvfetb7tJLLy0cqLO4Lbf1bH3bzrav8xhX3kX77MoFZT538s4TcQ5PlAmeKBM8USZ4okzwRJngiTLBE2XSdk/sq69777135m4ze68T8/2OUiISk0CTtmSgLmbLdKDuOvLwAqANWoefbk2kLoGYvLvg9/ve9z537LHH1sU2Zevbb9Z98IMfLNx/U94XXnhh8k+366yzjjvnnHPcn//858x+hg0Y2vq2nW1v/5hr9VV5NM170D7afkFZljt5Kxk8USZ4okzwRJngiTLBE2WCJ8oET5RJmz2xQbpNN920cJAu5vsdpUQkJoEmbclAXcyW6UDddeThBUAbtA4/3ZpIXQIxebfd75133jn52mZdZlO9vv0b7E477SRpVOVdNODmB9cuuugiqXeUgNVjg3VWb9H+0nVWzTu9TdVymy8oBx0DeSsdPFEmeKJM8ESZ4IkywRNlgifKBE+USVs9sT+UWGaZZUoH6ez9Tv6PJvToiHSBQJP3rgzUdaGFI+ZYRx5eALQh6vDTrYnUJRCTd5v9PvXUU0vvTKvLcCrWt9/dOPPMMzO7rsq76DfvTjjhhExd45qxeov2l66/at7pbaqW23pBOSx/8lZCeKJM8ESZ4IkywRNlgifKBE+UCZ4okzZ64v8Bds715o5uxowZhQN29ucSPLpPoMl7Vwbqut/+jY6gjjy8ACjqOvx06/FGLJdBz7K9+W3KlrcpHpN3m/1efvnl3dVXX92mpqiVy09+8hO30korZbapynvYwFmm0jHMDNtf1bxHSaWNF5RVjoO8lRKeKBM8USZ4okzwRJngiTLBE2WCJ8qkK55sscUWboUVVsi8j7O77nh0n0CT964M1HW//RsdQR15eAFQ1HX46daTF6mSZ5V1Ji/j4j3FzLGtfh933HFu8803LwbSoehGG23kTjzxxJBxVd7DBs5ChWMqDNtf1bxHSacrF5T5YyPvPBH+TEKJOIcnSoXziTLBE2WCJ8oET5QJniiTLnjyyCOPJAN0l19+efJ1V/+7dfZPsDy6T6DJe1cG6rrf/o2OoI48vAAo6jr8dOvxRyyfsmeVvbXtePI5x8yvjX4///zzbskll3S33HJLHkXn5m+44Qa31FJLudmzZye5V+U97Dfjxg1i2P6q5j1KXl24oCw6LvJWKniiTPBEmeCJMsETZYInygRPlAmeKJMueHLQQQclv5Oczt7e79gH9Ty6T6DJe1cG6rrf/o2OoI48vAAo6jr8dOvJi1TNs+p6k5d5dk8x82uj34cffrjbbrvtshA6PLfNNtu4I444IjmCKrx///vfu4UWWshddtllU3LUtl/bv+XhH1Xy9uvWnXbhgrLomMhbqeCJMsETZYInygRPlAmeKBM8USZ4oky64MkSSyzhTjvttEzy9n6H36jLIOnsTJP3rgzUdbbZx5N4HXl4AVDmdfjp1uOLWB5Vn2V79cfip2XrTWU8Zm5t9HuRRRZx//3f/z2VyMe679/+9rfOLkjsUYW3/QtrrD+OqHpgtn/Lwz+q5O3XrTvtwgVl0TGRt1LBE2WCJ8oET5QJnigTPFEmeKJM8ESZtN2Tb3/72+6Nb3yjJB7z/Y7sjEBUAk3akoG6qE3T/srryMMLgLZnHX66ddxI3dz8+n4aN7vRao+ZW9v8tq9grrHGGqOBavFWq666qrOvwQ7jfdFFF8lXAabqsFZffXVn+dhjWN5Ncmz7BWXZsZG3ksETZYInygRPlAmeKBM8USZ4okzwRJm03RO7Jj7kkEMk8Zjvd2RnBKISaNKWDNRFbZr2V15HHl4AtD3r8NOtxxvJ5zJsPr93v76f5pe3YT5mbm3ze7/99nP/9m//Nnbst99++9C7L/fYY4+x79dXuP/++7sDDzxw6ICXDY5deOGFfrORptdff71bd911R9o2vZHlYfnYo22epPMcVCZvpdP2C3jNeE6EvJUMfisTPFEmeKJM8ESZ4IkywRNl0tQT+3kVe18za9YsqTzm+x3ZGYGoBJq0Ze8G6opgFcXKWqzOumV1tCle53gee+wxSb3O9rJxKvDEE0+k5qoV8/vOz/tannrqqaRYtrws7rcfNG2y7aB6R13m87Gpf1pdPl5Wb355fr5su8mOr7nmmrLLceXqPZEdDAjk952f95t6v8uWF8VXWWUVd+ONN/oqxjY999xzkzv17rnnnqTOI488MuPHKaecEvVOvv/6r/9yq6222sABr//4j//IfN101IMf10Cd7d++/mp5Nb0wG3QsXAgrHXgrEzxRJniiTPBEmeCJMsETZYInygRPlElTTzbYYAP3mc98Riuu8L6tcCOCrSRQ9B6vaqIM1I3QGZoAr9owk7VenWMpGsios70dk71xtoECe9i2Rc9Bx160fjo2aFu/z/Q6tm2TR9Ptm+y7bFufU35atr7F/bp+nfy8j0/19OCDD5YU6ubaBQdtYK/oNyvk4EcIHHDAAUk/9JvmB+osPo670Hz9RdPFF1/c3XTTTUWLktgmm2zizjnnnNLlVReMc6DO8tl0000ZqCuAzwW8Qml6Aa81TkTgPcHCl+DtSUxM8WSChS/hiScxMcWTCRa+hCeexMQUTyZY+FITT2677bbkvVfZH0bUfW/jc2LaPgJN2rJXA3UelJ9aU1rZP/18von98kHT/DZdmbdjqvqwgbpBDPLLiurNf6UuvX9frlKP1e3X9/sZtF1+WdG8r+eRRx7xxaHTfA5DN4i8QjqfsnI+hfR66WVl8fQ6k122gTrLq+qzKL8uOPiLX/zC7bzzzkXpN47ZHXPpR9FAnQ1w+Tvu0uuOq7zDDju4r371q4XVPfvss+4Vr3iFe/LJJwuX1wmOc6DO8rG8YnLhQlhbt8mFsNaWjcA7y8Pm4K1M8ESZ4IkywRNlgifKBE+USR892W233dzGG2+sMF6OtPE9WGmyLBhIoElb9nKgLk/TA/TTsuX5uJ8v284vb/O0Tu75O+rqbGsM7A2uv5vOM0nXUVROx9LbWDz9tGXpddPl/LJh8zZQsOCCC7ozzjjD77J0mt9P6YqRF3gW6d3kc6uyTnp7K+fryC+f7Pn8HXV18+uKgz/72c/cUUcdNSl4iwbqYu/Y9pkfMPX7tN+DW2+99fxso+k4B+osEbvT8NRTT22U06CNuYBXOn28gFcK2QieZHnYHJ4oEzxRJniiTPBEmeCJMsETZTKqJw8//HDy/uqKK67QSl+O1H1/U1oRC6acQJO27M1AnUFKP63V0vPpcr5Fbdmgx7Dlg7ad6mV1ck8P1KW3s3L+WXRcRW/My7bz9ftpUX3pWHq9dNmvY7FhT7+uTXfcccdk/RkzZgwcsCvaV7qeqSr7Yx20/6q5V11v0L7GtSw9UJfOyx9velq0z644+MMf/tCdddZZRYcw9thUDNSdeeaZbquttio8lt13392deOKJhcvqBsc9UGd5bbvttnXTqLw+F8KKatQLYa1JI/BWJvBWJniiTPBEmeCJMsETZYInyqRvnnzlK18Z+lvQ6fc4SoxIlwg0acv/z96bAOtSlPf/oEIlJhLcUREhBKKgAoILWuQHxiW4gbJFSvEqGkDUAgUjIIuiggYFMRiCURSMGgMXUUFkkUWCwEUuIGilCmTxLwqBi0gpqMD86zuHZ96e/vbs0+fMvPOdqvd0zzM9Pc98+tvz9nnenpnJBOrQoAbKUmtkf93slnbdbvUMMa06N9fnokCdW6aoPsxkQkDAX9zyobxrs31h8z+2rSj166lax2w69xgI2IWeI+DXU3R82fshUBSoc2svapMxaRBBOsyqW4xlKQJ155xzTrLddtsFT+/1r399cuaZZwa3lRnd/lonH7oeldWPbfAr5vP7NIDnFpjaAJ4JsEU6YSbSCTORTpiJdMJMpBNmIp0wE+mEmbTVCZ7TjJeTlS1F/8uU7aNtwyTQpS0bBeouuuiiBP8o2wfrY1oMlKXwHXn3Ezofd3tRPrTfUG1t29ECdcbAPz/Yi5bQTCaUtbostf2tLkvNXpUWlbf6y1K37gsvvJB8w76YaXfzzTcnbRm6x1C+PgHjjXbBYu3o1wB70TImDeI8F+v6utiBOmtL/3ukyF7UnnXsfc6oi+Gffw4aCPtEdEsjE0kS6YSptP2HiWtii3gzE/FmJtIJM5FOmIl0wkympBM8J/oZz3gGQ/AsZf/PeEW1OnACXdqyUaAO/1gtWzb7YH1Mi4FyU8vjPNy8e15FditTtd3KDSW1dtxll/0TfPbff//ktttuq/z88pe/zBjZOSMt+rjnWzR7xepB2VDetVmZsuP55V0f3HxZud/85jfpGymLjgP7S17ykmT33T+U9Yex9QWXxRjyptlvfvOcTCfWhmXt5J7bmDR4xhkXpj+IuP7Hyi92oM7a0r5LrO8U2bucd5+Buhj++eemAbxPRIE6JqJAXYjJlP7RC51/yKbrCVORTpiJdMJMpBNmIp0wkzY6wR1aH/3oR7kyz2L/43hmrY6QQJe2XA0iu+GGG9IH8SJf9lmMf1Ri8jdQluJYyLuf0PHd8qHtY7NZO7rnXSd/+OGHZ6caYhKyYQcEAnDbYWhx9zEfrJy7zWxuGtpeZLO6q1LUDz5V5bB9zTX/LNl55/3SYB32ibXgWLEX/xj+un/8ou1Fdn//puumWZdz6FghG441Ng1+85vfm1SgDt871sZ+AK+pVtzysQN1Zd+Xbbbh9vo2+9XZp+73fJ26/DLym8dO4s1MpBNmIp0wE+mEmUgnzEQ6YSbSCTMZkk7wWKXVV189ufbaayvHekX/z7hjXOXHQQBt6Y+b665PdkaddQBL0dRu3po+ZLNtY03tH+Jdd/1Ags8HPvCBWgLCjDpbQlxCNpSve8uhv7+/7h/bthelVj6U2j6hbbjFF88HQ5nQZ/3110/fSrlYM+rKfDX/Q35W7Ve0j9mt7qLUr99fL9qvjd00+9//PXtuW+h4IRuONzYNakbdwiMW2mjF3Sd2oM49Vh95/WLNFDGYibWIN5MVb2YinTAT6YSZSCfMRDphJtIJM5mKTl7zmtcU/j/iUyn6f8Yvp/XhE+jSlo0CdYvxjJ6YuA2UpTgW8u7HP75b1t821vW27WjPqDNu/vmHWJXNZCrb3+qy1Mq6637e1i21fUJpVRn/ZRIov+222ybHHntscs8990R9Rh2OVffjnpt7Tpb363HLu3krb7ay/fxtoXWrp6/UNGvPqEO9vs9FtjFqUM+oO6KXZ/T1GagzDSJojA/W+140gGeiUxnA85kXW6QTZiOdMBPphJlIJ8xEOmEm0gkzkU6YSROdrFixIv2/5ZprruGKApbQ/ziBYjKNgECXtmwUqDMWXQ5odSxFGvLbtbl5+OevL4XPsY/Z5BzLAnWoJ1RX0Uym0HnZ/pZaGX8ddthcu5u37bZ/KPXL+2V23HHH7BgI0GHqdGipqie0TxNbk/rdsqG8azMfYPM/2OaWdfP+tjrrdqw+UgRIbAn55dtQdowaPOOMMxIEixdjQSAzxC3msb/4xS8mb37zm4OHwFtfv/3tbwe3NTX2GajDsfXW13ALaADPXJoM4Hnvcot4Mx/xZibSCTORTpiJdMJMpBNmIp0wkyY62XPPPZMddtiBKymwLPa4vMANmXsg0KUtJxWo64H13FXRRDxuoG7uQDgndP/99ye4vRXBuqIAnRVvws/2qZu6dSPvf/x6irZbPZb6+/nrbjk3b+Vgq/pY2b5TN1DXd91Dqu8HP/jBoj2j7uCDD07b86677lo0BIceemh6y33ogP/0T/+UHH/88aFNS26DX29961uj+aGBMKNtMhDmvcst4s18xJuZSCfMRDphJtIJM5FOmIl0wkzmXSf2Msbvfe97fPIFltD/XwVFZR44gS5tqUDdwBs3tntNxDOVQB1ubb355ptroW/Cr1aFTqGiuuvY3TKWt9Q5RDDg5m4P5f16qtZDdbS1TSVQd/XVVyfLli1ri6nWfphthrZzP5hdtxgLgl2f+cxngoc67bTTkle/+tXBbUtthF8nnXRSNDc0gGe08z6A5zOutkgnzEg6YSbSCTORTpiJdMJMpBNmIp0wk7o6wY/TL3rRi7iCEov/v1VJUW0aOIEubalA3cAbN7Z7TcQzlUBdE+ZN+DWtN1R3yGb1Ypv7ce3Il+1rZd20qLx7jKK8W0+f+akE6vDl/5znPKdPdIOqa9NNN01vIw059cADDySPecxj0mdBhrYvlQ0BfPj185//PJoLGggz2roDYd6z2iLezEi8mYl0wkykE2YinTAT6YSZSCfMZJ518vDDDydPfvKTEzzypclS9D9YkzpUdhgEurSlAnXDaMMl86KJeP7v//4vmp933313tLpjBhib8Kt7glanmyIf+rh1WnnYQnnXZmVCdVo5S91jhPJ1y4X2bWrD8wJjLTF10kbfG220UXLVVVfFOt0lqxfnhHMrG5jhtvNTTz11yXwMHRj+wK8yv0P7NbFpAM+0xJuZSCfMRDphJtIJM5FOmIl0wkykE2YinTCTOjr5t3/7t2TdddflnSssi/m/VYUr2tyRQJe2VKCuI/yx795EPHUuSG15jPULoAm/pmxCdYdsVq+7DXl/3cqFUresbS+yWd1VqdXTZxryqa/6h6bvAw88MMF0+XlbDjnkkOSDH/xgacALvzy+8pWvHNSpwx/4NTSd1IUkv5nUWL935De3pfTNTKQTZiKdMBPphJlIJ8xEOmEmdXSy2WabJR/72Md45wpLzP93Kg6tzT0T6NKWCtT13Bhjq66JeOpckNqe/1i/AJrwa8omVHfIhnph9z/u8cr2s/3LUrcuP19Ut1+uj/WYxxqavi+99NLk+c9/fh/YBlXHJptsklx++eWVAa+tttoq+e///u9B+A4/4A+WoemkLiD5zaTG+r0jv7ktpW9mIp0wE+mEmUgnzEQ6YSbSCTOp0sm3vvWt5FGPelTS5o60mP/v8JksvuWiiy5KX5qHRxrhg/V5Xbq0pQJ186qKmufVRDxVF6SahwwWG+sXQBN+wRMvMYbqDtlCVbjlLG+plXfX/bytW2r7hNI6ZUL7tbHFPNYQ9b3BBhsk1157bRtUg9znyiuvTDbeeOPUtyrey5cvT17wghcM4jzgB/zBUuV3F4fHeh2U39zq0gkzkU6YiXTCTKQTZiKdMBPphJlIJ8xkKXWy/fbbJ+9+97vZqRoW/L+D59vN6wfBuWXLZh+sz+u5dvnfVYG6Gp1lnos0EY++AFgJTfjx3uUWv26s+7aiGqycpVbOX4cdNtfu5m277R9K/fKhMn3ZYh5riPo+4IADkn333bcvfEtez3777Zd86EMfSv2owxtvWT3uuOOW1G8c330LbR2/2zq8lAPKtj5jP/nN9KQTZiKdMBPphJlIJ8xEOmEm0gkzkU6YyVLpBD9M43+W6667jp2qYVl99dWTef6EAnXzfL41mjxYRIG6IJbpGJsEPvQFwLpowo/3lqUpgZi8h6hvvGl07bXXTlauXNkU1eDK4xzWWmdshEcAACAASURBVGut5K677kp9q8P7Zz/7WTodHl/o9ok9PT40HR9+2FLHbyvbNF2qAWVTP/3y8tsnopmXTEQB3RATXU+Yiq4nzEQ6YSbSCTORTpjJUunkHe94R/oCMvaonmWp/K7nXXGpun6HAnXFtS5smaK+FairUsWcb28S+JhiB6lq/ib8qurS9moCMXkPVd/HHHNMstNOO1XDGXiJN77xjQnOxZa6vNt8mdsx2qRVx6vrd5tj1x3gtKlbfjM18WYm0gkzkU6YiXTCTKQTZiKdMBPphJnMm05+8YtfpLPpzjnnHD7ZmpZ510noR/EqNPOmk6rzxXYF6upQmuMyTQIfU+wgVU3fhF9VXdpeTSAm7yHr+znPeU5y9tlnVwMaaAk8UPd5z3tezru6vKsCZ7lKe1ipOl5dv9u4Mu8DszZMxJupSSfMRDphJtIJM5FOmIl0wkykE2YinTCTIp18+MMfTl784hfzDg0s4s2winhzyeaWofJWoK55W87VHk0CH1PsIFWN3YRfVV3aXk0gJu8h6/urX/1q8rKXvawa0EBL4GUM/htc6/KuCpz1fcpVx6vrdxu/hjpQqDoX+c2EpBNmIp0wE+mEmUgnzEQ6YSbSCTORTpjJYuvkoYceSp70pCclX/rSl9iZBpbF9ruBa6VF5Tfj6dIvFahjnpOyNAl8dBFaFdSxduwm/KoYaHs1gZi8h67vXXfdNXnf+95XDWlgJT7wgQ8kb3jDG8irurxD0+NjvWAC9YaO5zpf1293n7r5sV4H5Te3sHTCTKQTZiKdMBPphJlIJ8xEOmEm0gkzWWydnHDCCckzn/lMdqShZbH9buheYXH5zWi69EsF6pjnpCxNAh9dhFYFdawduwm/KgbaXk0gJu+h6/uBBx5IttpqqyV/C2p1K81KfOYzn0m23HLL5He/+93M+EiuLW+82AFvYd1iiy1olh4dpKYBs/1QH+p1XxwR2r2t36G6fNtYr4Py229JvUyCiehlEiEmup4wFV1PmIl0wkykE2YinTCTxdbJ85///OTjH/84O9LQsth+N3SvsLj8ZjRd+qUCdcxzUpYmgY8uQquCOtaO3YRfFQNtryYQk/cY9F0126uaYPwSdX3synv58uVp4PIVr3hFcsoppySrVq3KnVyVHyiP/bA/AqCor87S1e+yY4z1Oii/uVWlE2YinTAT6YSZSCfMRDphJtIJM5FOmMli6uSMM85IHv3oRyd33XUXO9LQsph+N3SttLj8Zjxd+qUCdcxzUpYmgY8uQquCOtaO3YRfFQNtryYQk/cY9F31/LRqgvFL1PWxL95f/OIXE7xRdo011khe9apXJccff3yCl1eE/IAd21EO5bEf9m+y9OV36JhjvQ7Kb25N6YSZSCfMRDphJtIJM5FOmIl0wkykE2aymDrBXRn77rsvO9HCsph+t3CvcBf5zWi69EsF6pjnpCxNAh9dhFYFdawduwm/KgbaXk0gJu8x6DsUfKqmtrglzEe01Rvf+J40YBbyoG/euDX49NNPT/baa680EGd+LFt2RIIP1vGsPGxHuT/84Q8htyptffvtHnCs10H57bbiQl46YSbSCTORTpiJdMJMpBNmIp0wE+mEmSyWTq644ooE496f/OQn7EQLy2L53cK10l3kN+Pp0i8VqGOek7I0CXx0EVoV1LF27Cb8qhhoezWBmLzHoO9Q8OnYY4+tBrdIJT796U9nM9me9KSnJ1tu+YpFC9S5p4jrSYiVW6Ztfgw6CZ2b/GYqY/3ekd/cltI3M5FOmIl0wkykE2YinTAT6YSZuDp5+9vfnrzpTW/iQi0t4s3gXN68tZtlqLwVqOvWrqPfu0ngY4odpKqBm/CrqkvbqwnE5D0GfYeeu4aXIAzhbbDvfOc7k5e97GXZW1Nf/vKXJ+uuu266HmrZ2LxDrEJ+NLXF9rupP3XLy28mNdSBGXuat8jvPA+sSd/MRDphJtIJM7n44ouT2267LcrnyiuvjFIv/JXf3GZdeLMy8hZdT/I8sGbXE+gR/598//vf50ItLeLN4Iw3b+luGSrv1eDYypUrE6R1PzH/We6OWjU0IYC2rNvuTXVSt16UW7FiRW0/mtSLsjH9Br+HHnqoCXKVbUkAnJvodUg6ialvDMxe97rXJVtvvXVy9tlnt6TbfrcLLrggeelLX5rstttuuT783e9+N22v8847L2e3donZL2Pylt88VhBvZiKdMBPphJlIJ8xEOmEmsXRyySWXpN/TGFvpM20GNjYrStUvi/vlPvvsk2y++ebBsW4Rzyq7eBfzrmLXZvtQeWtGXfv/T+diT3wx112mGMmuYvOMZzwjueWWW6qKaXsPBMAZvGMtY9f3f/7nfybPec5zkp122im5+uqrY2HK6r388svTlzFstNFGyRe+8IXM7mY222yz5JhjjnFNWX7svLMT6TGDwUWsRbyZrHgzE+mEmUgnzEQ6YSZj1MkvfvGLNECHf1LRpn1/rrrqqt7rhI/wF/+/9On3ZZddluyxxx7JCSeckIT8xpvhsR3PIKvD6eijj04OOeQQKvvDH/6QbG598MNd9/NlfoT89vcPrbOa2TJGfeMsYvv94IMPJk984hOTL3/5ywytgyW23x1cK91VfjMe9Lm2iwJ1bcnNyX4K1HVryK222irBl66W+ATAGbxjLV0upFU+LeYXFwJjj3/849M3T11zzTVVrjXejkHqW97yluTpT396ctxxx5Xuf/jhhyfbbLNNsMy88A6eXEvjYuqkpYvB3eQ3Y5G+mYl0wkykE2YinTCTWDqxQB3SGMuQ/caY8utf/3py8MEHJ3hbJz6YGfXJT34y+EKApmNQ3GVw1llnEVbcBVG2wCf4UjR+gx/Y7i433XRTuhqLNypXv3SJL+TB+1//9V+T9dZbjzd2tIg3A5yivhWoYx1MyqJAXbfmxlskv/a1r3WrRHvXIoDBC3jHWubpC+A3v/lNcsABByR//dd/nTzvec9LPvzhD6e/EPvs6j7H7dJLL01/Gd5yyy2TJz/5ycnHP/7xBL8iVi2Y2YdrTGjW6TzxruJQd7sGZkxKOmEm0gkzkU6YiXTCTKSTPJMpBuoQ1EKwCx8Ew0KBL+gE5dxgWaicS9O2I9CHD35YtrylCAr+1V/9Va5etw7LIxCHQB+WE088MVcPgokbbrhhzoYfZ2GXvo3gLI19HcQY+xOf+MTsgD3lYvvdk5tUjfwmJJ36pQJ1zHNSFgXqujX3u971ruRTn/pUt0q0dy0C4Lz33nvXKtum0LwOcP7nf/4n+eAHP5hsvPHGybOf/ezkbW97W4KZbl/60peCb0Y955xzkq985SuprpctW5ass8466bM3DjrooPThzU3ZbrrppsGZd/PKuykft7wGOC6Nhbx0wkykE2YinTAT6YSZSCd5JlMM1OUJJIWBurvuuiv9odGCdRaI8/e3dWyv+p+qThnUh3II0GGx2XLucdwZde526dsozdKY10E89mWNNdZIVq1aNTtgT7mYfksn3EhD5a1AHbfVpCxVXyouDHVsl8ZCHjOV3vve9/IGWXonAM6HHXZY7/VahVPQ9xVXXJF88YtfTDkiYHfEEUcky5bNPlh/1atelbz1rW9NZ+QhoHfjjTcaolYpfkHebrvtaN8p8KaTrjAMdaBQ4bZuiQkAkr4ZivTNTKQTZiKdMJNYOlGgjgN1CHwZb/d/pLqBOps9F0ox682tk1s6b7EgnDurzp9Rh9l0OBYW8ztfSz9r6pfM8f/9v/+XvOc97+ENPVjEmyFOUd8K1LEOJmVp8oUxxQ5SJQY8m2DHHXesKqbtPRAAZ/COtUxR36FAncu3j4ECgoO4zvh8/XX3uF3zffhd5IP8ZjLizUykE2YinTAT6YSZSCfMJJZOphaowyw5P4AWCnzhpRFY3P+R6gbquPVmlrIZdZi5h9td4SMWpCiPxQJ2yBf54QYY0516/qN+mQf6ox/9KNXH9ddfn9/Q05p4M8hY10Ecaai8FahjHUzK4n4JVZ34FDtIFZMzzjgjwVsvtcQnAM7gHWuZor6rnlHX1xcXbrvFm9TcZYq83fMP5fviHapbvJmKeDMT6YSZSCfMRDphJmPUydQCdWg1N+iFdcxWc28lhc307f6PVBQgMyWUBeHqlkEQEc+2Q5AOz2VGnVWBRWzHnQvw1R9n2XH7SMeob5x3LL/xaJjXvOY1faAN1hHLbxzM9B08cEej/GaAXXgrUMc8J2Vxv4SqTryL0KrqHnPHxnO/qt7iVHX+2l5OAHzBecw6KT/D9lvH0C8PPPDA9JZa9yzH4Lfrr+Xlt5GYpeqXMxaWk06MxCyVTmYsLCedGIlZKp3MWFgulk6mGKgzppbixQx9Bur8wJq7XnXrKwJ0uJUVAbqiZ9SZ36E0lk5wLPXLGfFbb701DYwimBprEW8mO0V9K1Dn6aBqholXfPSrCtR1a0JcSPGg/kMPPbRbRdq7lAD4grO+uBjTGL648NZYXGvuuOOO7ATG4HfmrJOR3w6MR7Lql8xEOmEm0gkzkU6YiXTCTGLpZOqBOgRaMDZBsA6z0hAgw2K83f+RsM0P6Lkthe1ueXeb5euUQYAOATsE+Jou5nfT/eqUV7+cUYJWtt5660wnsy395cSbWU5R360DdQ8//HAyj5/QM5vm8TztnKq+VNxuMsUO4p5/KI8LKb54N9tss9Bm2XoiAL7grC8uBjqWfrnBBhskJ510UnYCY/E7c/iRjPz2ieiXdiYy+0cvtK2rTddBJqh+yUykE2YineSZTD1QhwAdAmIIwCE4httOkf/JT36SgnL/R8IYtE6gzp1B5+erZtRZ6+BY7mwt+OXXZeuo026Xlb6N4Czt+zr4pz/9KXnCE56QfOUrX1GgboY5y/XNO6vYCaC7tr7yQ/W7VaBu9dVXT+b1EwrUzeu52nnVFbm+AJiUdez11lsvifVAUT7qtCzgCr5YjHcMAtI3U+2T9/7775+89rWvzQ4i3hmKLNMn76zSRzLi7RPR9YSJKMAYYqJ+yVR0PWEmY9TJlAN1CHTZLDoLwOH5dbj1dPny5WkDNw3U4WUQtuDlEPi4C9b33ntv1xTMwy/3WXrwwwJzfopAnfmvfsk4++6Xn/vc55L1118/PZB4x+ftHmGKvFsF6lxoVfm+O4h7vBgNFgrUucfsIx/Db/NrbLznxW+8nvsTn/iEnY7SHgkcddRR2evPpW8GO5brCR4rgMHmqlWr0pMYi98+cfntE1HAi4ko4BVious3U9H1hJlIJ8wklk6mGqhDwMxmofkz5TCTrc2MOms1C7Bhhp7dUmvbkNbRN3xzFzdg6NqRd/2PpRMcp47fvm9118fk96abbprg/xIsY/LbbQv57dJYyA9V3wrUeW21GM+oUwfxoM/BF8D3v//99HkFfGaydCWA50CAL5ahXkirzlF+LxB65jOfmZx88snpiq6DrBrphJlIJ8xEOmEm0gkzkU6YiXSSZzLFQB0CaJj5hhSLG+gyOtAJgnlugCxUzsqjLD5YMLvNblvFPqjDtmE7+iVmzLk22LGO2XLwzZ2Zh22uH1h3F9cv6dsls5Dv8zp4+umnJ2uuuWZyzz33pJWLd1zefu1T5K1Ana+CR9b77Nj+IaYoNJ+Bvz4PvP/u7/4u+fKXv+yfmtY7EMAzIMDVlnnQiZ1LX+mYrieYebrDDjukpz4mv922kt8ujYW8+iUzkU6YiXTCTKQTZiKdMJNYOplioM4PkrmBLiMP3pgZh222hMrZNtx+amURqLM8tmObBQURwIO+EZTDLbZ+sA7HtOfmWd1IEajzb3m1dd366pLifJ/Xk1e+8pXJ+973vuwgsfolDtCn35nDj2Tkt09kuLwVqOO2Si3qIAxGHZuZuDrBrK+NNtqIC8nSmsDGG2+cnHvuudn+Lu/M2FNG+maQffM+77zz0gHnb3/7W90ywLg1MAswUb9kKH33S/cI4u3SWMiLNzORTpjJGHXSNlCHQBSCR+4Ht2vaTDKjYzpBeWy38m7wyso2Sdv6jcCYBc3sePDNnvFmNvPb1pGGysGOOnFeVq8fqHPrQHDNdOIG2NwysKOcu6D+osX1K+R30X5N7eZ30/3qlB+D35dddlnazjfccEN2SmPwO3PWychvB8Yj2aHqW4E6bqvUMtQGK3A3M8vvDEWWWcwL0q677kpfsJkjyjQigIEKeLqL9O3SWMgvpr756M0t66yzTnLqqacqUBdAJ30zlLHp285AfhuJWSp9z1hYTjoxErNUOpmxsFwsnbQNeMEvBIjcANVZZ52VzhJDoMkW+I1yCNIhxYJZY1j3g2O2T520i99+/W6gy7YZbwTh7JlzJ554IvmM4BxmxmEWnC04L7AILbil9dhjj003oQxm9/kL6vIDngrU+ZTqr/d1PXnb296W7LzzzrkDm05yxp5W+vI75I78ZipD5a1AHbdVahlqgxW4m5nld4YiyyzmBenaa69N1lprreTuu+/Ojq9McwLgB47g6S7St0tjIb+Y+uajN7fstdde6WBnbH7bmcpvIzFL1S9nLCwnnRiJWSqdzFhYTjoxErNUOpmxsFwsnXQJeFmgznxEarPLLNAEvxGc8meIWTkLgrl11Ml38duvvyxQB/8QoEPwDMEy/9lxqAv7u+eBc0XZ0AdBPQvU+X7YOvZDne4Cm7/ALwT6EBi04GgsneDYU+6Xt9xyS9qe559/fq4ZxDuHI12Zsk6YxoKli04UqCugKqExmC5C49rylnni/d73vjd5//vfnz9BrTUiAH7g6C/zpBP/3Nquj61fnn322ckaa6yRG9i2Pfei/aQTJjM2ndgZyG8jMUul7xkLy0knRmKWSiczFpaTTozEQtol4IVgUiiAhGCWBbTAG4Ekd8aZeYB9EbBrs3Tx2z8ezsMPJPo6wcw5nEdbf91jVvVLBDndwB/2xbFDC/zB7ETzy/c7tE9bW5XfbevFfkP3+0Mf+lDy0pe+lE5x6H6Tw48Y5DeTGaq+FajjtkotQ22wAnczs/zOUGSZxb4g/frXv04e+9jHJhdccEHmgzL1CYAb+IGjv0jfPpHhD3DY4yR50pOelHz+858PberFJp0wxsW+DrIH7Szym7lJ38xEOmEm0gkzkU7yTLoEvIoCdTajDEcCbwSd/FtBEVjC7LK2Sxe/6xxTOmFKU72e/PGPf0y1esoppxAU6YSQTHrmJdNYsHTRiQJ1BVSnekEqwJGauwitrF5smzfe3/zmN5OnPe1pyY033lh16truEAAvcAO/0DJvOgmdY1PbGPvlnnvumb39ten51ikvnTClMeoEZyG/uS2lb2YinTAT6YSZSCd5Jl0CXnUDdfkjLqyFXpgQKldk6+J3UZ2uXTpxaSzkp3o9Of7445MNNtiAgWh8EmQyVZ0EYTxi7HI9UaCugKyExmC6CI1ry1vmkfcxxxyTvPjFL07wa4yWagLgBF7gVrTMo06KzrWufYz98tvf/nby53/+58mf/vSnuqfZqJx0wrjGqBOchfzmtpS+mYl0wkykE2YineSZdAl4tQ3UYT97plrem/prXfyucxTphClN9XqyySabJEcffTQD0fgkyGSqOgnCeMTY5XqiQF0BWQmNwXQRGteWt8wrbzxnzX9zaf7MtWYEwCn0XDrbjnRedeKeY9P8WPvl4x73uOS0005rerq1yksnjGmsOpHf3JbSNzORTpiJdMJMpJM8ky4BrzaBOtzyGnrTad6r6rUuflfXrh+IQozm5XqC5w3aM/2Qx/MU/WcCuud/8cUXJ7///e9dU5bX9SRDkWXmRSfZCfWQ6aKT1bDzDTfckP5qjXzfn5UrV/Zep/kov7m9xJuZLLVOtt9+++SAAw7ooavPbxUf+MAHEnCyvl2USt/D03dRW1XZd9hhh2SnnXaqbPOqekLbpZP50clSX79D+qpjk9+sQfVLZiKdMBPphJnE0smKFSvSF0IgrXNdc8ssX7483de1IX/IIYckz3rWs9L6XL/PPffc9MdYv3yb9S5+1zme63ed8k3KSN+Lp2+0i/H+1a9+ldx5553pi00sWIxAHV50guclwlYUsMMLPu64447kvvvuy/UT6YTb0ng36RN1y06Rt2bUFcQ+FBFmMOhIsZZ55o0L+xZbbJEcddRRsfCNul5wAR9wqlrmWSdV5160faz98gtf+EKy1lprFZ1WJ7t0wvjGqhP5zW0pfTMT6YSZSCfMRDrJM+kyM61oRh3eUOq+9RVHDM2kQ5AEnzZLF7/rHK+tTnA+J554YvAQCARhm/ol42nLm2tii88bWsSbcrHYG3YRoEP74E3EuC0b2rYFerbyZrN0Mf22Y/aRym+m6OuES7S3dOGtQF0B96E2WIG7mVl+ZyiyTJcOklVSkKnL++abb0623Xbb5G1ve1vy0EMPFdQ2LTM4gAe4gE+dpS7vOnX5ZYagE9+nOutj9fvWW29N3+575pln1jnNRmWkE8Y1Vp3Ib25L6ZuZSCfMRDphJtJJnkmXgFcoUIcgCIIdFugAbwRBLHDnHh1vgrVyrr1OvovfdervohMEfxDYcYOQYIBZWzhf9UtugS68uba8JcQbbYQP3lBsC4KoFmjFLDt7jqKVtXJu+sADD7irveZDfvd1gMXmLb/bT3RSoK5APeogDEYdm5k01Qku/C960YuS66+/niubkAXnDw72RVj31JvyrlsvyknfTCs27ze/+c3JO97xDj5wR0tsvzu6V7i7/GY06pfMRDphJtIJM5FOmIl0kmfSJeBlgToEN/BBQAPBKHdcB94IWllQDvvgg3U/mJX3rHyti9/lNS9s7aoTzMLCOdqC2Vr2XDT1S6MyS7vyntXEuSLeaBNoEYsF6GxvBPCsvdxgnm1fjLTI7z6OvRS85Xc7AgrUFXBTB2Ew6tjMpI1OPvvZzyYxH6TPXg7LghcI4PzxyvOmSxvedY8hfTOp2Ly/8Y1vJE984hP5wB0tsf3u6F7h7vKb0ahfMhPphJlIJ8xEOmEm0kmeSduAF4IXmDnnfhB4Q7DOXcDbLePn3bJN8m39rnuMNjpBcA5c8EGw0vIICGFGoa0/97nPLbw9tq5/ReXa+F1Ul2+ft+sJ2gUBOizQreUx+9F07AfwfCYx1+eNdx+spqhvBeoKlKMOwmCm2EGYQt7SVid4qO66666bHHnkkcmf/vSnfKVzuobzxPnivHH+bZa2vOscS/pmSrF533///cmaa66ZnH322XzwDpbYfndwrXRX+c141C+ZiXTCTKQTZiKdMBPpJM9kiAGvvIfhtSH6jSCkv4Rs22yzTW62nb9Pl3Xpm+ndfvvtqdGeQ4dbXJFHYBXtY0FV29N9xqDdDmvbFjPV9ZtpT1HfCtSxDlKLOgiDmWIHYQp5Sxed3Hbbbclb3vKW5GlPe1ry6U9/Ol/xnK3h/HCeOF+cd9ulC++qY0rfTGgxeO+yyy7JXnvtxQfvYFkMvzu4V7ir/GY06pfMRDphJtIJM5FOmIl0kmcyxIBX3sPw2hD9DgXlQjYE6uyWy/DZtbdK38wOL6pDwA2BOQTlMLvRgnEWsMMt27DjdmXbhpowC3KpFl2/mfwU9a1AHesgtaiDMJgpdhCmkLf0oZMrr7wyQbBi/fXXT0444YT8AUa+hvPBeeH8cJ5dlz54F/kgfTOZxeD91a9+NVlnnXX44B0si+F3B/cKd5XfjEb9kplIJ8xEOmEm0gkzkU7yTIYY8Mp7GF4bot8IytntrZaGbOutt54CdV6zxuyX3qGCz6PDLa5oM7xEwm7hxu2vCOQt1aLrN5OPqZOh8lagjnWQWobaYAXuZmb5naHIMmPp2PiF7Q1veEPyt3/7t+nbUPFWzDEu8Btvc8V54HwuueSS3k5D+maUY9G377n5jV87V1999da3Q/v1Yl06YSrGm7d0t4g3MxRvZiKdMBPphJlIJ8wklk6GGPDis2fLEP0OzZ4L2TSjjtszlr75SEk6Y86eR4cXRrizGxGsQ4AOwTrMssO6lQ3VFdOm6yDTjamTofJWoI51kFqG2mAF7mZm+Z2hyDJj69jnn39+svvuuydPeMITki233DLBA08vuuii7Hy6ZFDPEUcckX36rBd+wl/4Df/PO++8Lq4G95W+GcvY9G1n4Pq94447Jvvuu69t6pxKJ4zQ5c1bu1nEm/mJNzORTpiJdMJMpBNmEksnQwx48dmzZYh+h4JyIZsCddyesfTtH8neNmzBOQTibME2m0GH7bgFFrfDog1xy6xts/JIH3zwQXe117yug4wzpk6GyluBOtZBahlqgxW4m5nld4Yiy4y5Y2M22iGHHJK88IUvTANg//iP/5gceuih6RtT8cbMCy64ILnuuuuSX//61+kXxsMPP5yUfRCkW7Zs9sF6WXlse+ihh9L6cRwcD8fFG1vhB/xBYA7+wU/4O2bemWh6zqhfMlBXJyeffHL6khEu1c4i3szN5c1bu1nEm/mJNzORTpiJdMJMpBNmEksnQwx48dmzZYh+h4JyIZsCddyesfTtHwnBNrvFFbe5IgBnixu0c/PYx3/hhO1z7733Wrb3VNdBRhpTJ0PlrUAd6yC1DLXBCtzNzPI7Q5Fl5qVjY2DyxS9+MfnIRz6SvOc970l/6dluu+0SvOr9KU95Snr7IG4hLPsgMLfrru9PfyHaZZf3pzPrysrbNtSP4+B4+IUJx4cf8Ad+ucu88HbPqWte/ZIJujpZtWpVqskLL7yQC7awiDdDc3nz1m4W8WZ+4s1MpBNmIp0wE+mEmcTSyRADXnz2bBmi3wjKIcDjfkI2PaOO2zOWvvlIMwtuccULJnCLKwJxmFGHBYE5bKuz/OpXv6pTrFUZXQcZW0ydDJW3AnWsg9Qy1AYrcDczy+8MRZaZYsfOTt7LhAJ1XpHOq+LNCNUvmYmvk9e+9rXJfvvtxwVbWMSbofm8uUR7i3gzO/FmJtIJM5FOmIl0wkxi6WSIAS8+e7YM0e/Q7LmQ7cADD0yDQQgM9f38s1g6x/8ICAAAIABJREFUQQuMtV+yevIW3OaKgJ21lTubLl+S18SbmYxVJ0P1W4E61lhqGWqDFbibmeV3hiLL6EKaoUifdff+9y/MqEPa1zPqZkdIdOurC+ORvPolQ/H75UknnZRssMEGXLCFRbwZms+bS7S3iDezE29mIp0wE+mEmUgnzCSWToYY8OKzZ8tQ/EawzWbQ2e2Rto40NKMOgTo80xnb8NKCPoN1sXSCFhhrv2T1hC2YSYe2wLPp6i7izaTGqpOh+q1AHWsstQy1wQrczczyO0ORZXQhzVCkmaEMcPJe1VuTvpnTvOj7zjvvTAeul156KZ9kQ4t0wsDmRSd8Zu0t0gmzk06YiXTCTKQTZjJGnYx1PDgWv22WlquWMeoE/o/Vb5d9VR5BuiaBU10HmehYdTJUvxWoY42llqE2WIG7mVl+ZyiyjC6kGYo0M5YBTt7rhTXpm6nMk75x+wF+be66SCdMcJ50wmfXziKdMDfphJlIJ8xEOmEmY9TJWMeDY/FbgTruJyFLjOuJvQTCnj0XOq5vw0zHJksMv+34Y7yewHf5bS04S7voRIG6GcdcTkLL4UhXugiNa8tbxDvPA2uxeI9lgMNE9AUQYhJLJzjWYvfLz3/+88lGG20UOs1GtsX2u5FzJYXlN8OZJ33z2bWzSCfMTTphJtIJM5FO8kzGOh4ci98K1OX1VrQWq1/i1mJ3wYy5omAcZtI1mU2HemP5jbp1/XZbbiE/Rd4K1LEOUos6CIOZYgdhCnnLGHUylgFOnvTC2hh5w3P5za0Zup788pe/TG9/vfzyy3mHBhbxZlgh3lyqnUW8mZt4MxPphJlIJ8xEOmEmsXQy1vHgWPxWoI61HLLE0Lc9bw7BOTw/EMtuu+2Wvd015EdTWwy/zQddB43ELJ0ibwXqZu2fy6mD5HCkK1PsIEwhbxmjTsYywMmTXlgbI294Lr+5NYuuJy9/+cuTgw46iHdoYBFvhlXEm0s2t4g3MxNvZiKdMBPphJlIJ8wklk7GOh4ci994nIe/SN8+kX5nptmsOHveHFK82RWLvdH161//OjvRwhKrX8IV6YQbZIq8FahjHaQWdRAGM8UOwhTyljHqZCwDnDzphbUx8obn8ptbs+h68tnPfjbZZJNNeIcGFvFmWEW8uWRzi3gzM/FmJtIJM5FOmIl0wkxi6WSs48Gx+o2Wlb7j6RvPo9twww0TBOIsKIdAHRY8sw72a665Jr1zA0HUJs+vY6/7DTD69UsnPpFp8lagjnWQWtRBGEysgQKOJN6Lx1sDHGYNi/TNXJaiX95yyy3pIOrHP/4xO1TTshR+13SttJj8Zjzql8xEOmEm0gkzkU6YiXSSZzLW8eBY/QZ99cu8BrHWZ79E8A3PpkPADsE6mz1nM+wwuw4fbEMZC+zZTDz2rtjSp9/+UaQTn0i/OvFrHypvBer8lnpkfagNVuBuZpbfGYosowtphiLNaICT52Fr0omRmKVLdT3ZZpttksMOO2zmSMPcUvnd0E0qLr8JSa8DeL928faJTHMgzBTyFukkzwNr+r5kJmPUyVjHg2P1G6oZo07G5jdeGIGZc5g19/jHPz59gYTNrLOZdpYikGflYGsSsNN1cD6ug0PWtwJ1rLHUogspg9EFiZmMUSca4HA7wiJ9M5el0vcxxxyTbLbZZuxQTctS+V3TvcJi8pvRqF8yE+mEmUgnzEQ6YSbSSZ6JjQevuOKK5Lbbbuv9c+WVV/ZeJ/yEv3hRw9j8hu8XX3xxFCaouyvvvDrya2O5ntiMOXuZBG55xUskkNrtr7YNZ2gz7bANATv/TbF5Cvk1XU/yPLA2Fp34ng/V79Xg2MqVK1OwyPf9WbFiRe91mo/ym9tLvJmJdJJncskll6QDHKTWl/pMxTvPG2zVL5lJmU7OP//8VKPf+c53WmlUvJvx7tr/xVu862hIOpFOpBPWQB0mZd+XdfYvK4OAlz5iAA2U6WSo1++bb745F3PBbDosFoBD3mbPWWrb3IAdyiFQh4+/PPDAA0E2MfvlUHmXaQTb5Ddf47voRDPq/N74yDrEFmtRBJ7JijcziaUT+wUVaYwllt/wVTrhFptX3ltvvXVy5JFH8gnXsEgnDGledcJnWt8inTAr6YSZSCfMRDphJmPVCWYgoT1jfK666qoo9cLXIfj905/+NFlrrbWSH/3oR7XPcwh+h9qaFZ23jEHfmBVnt7hawA7PrIPdDcpZwA63vWIbFrSLPc8uf+bFa+AYaxkD79C5y2+m0kUnCtQxz9QioTGYLkLj2vIW8c7zwFos3grUMeuYvFG39M3Mq/R99NFHN7oFwT2CeLs0FvJVvHmP+hbxZlbizUykE2YinTAT6YSZSCfMZAg6OeKII9LZiNtuuy07WGAZgt8FrpWax+A3gnH+YkE5m0XnBudsG/YJ7evX5a+rX/pE9P8OE+n2/7wCdSGi+sc6SEUXJMYyhi8u32sF6nwiC+vSN3NZSn3/7Gc/SwfA+MW6bLFfQ90yS+m360fTvPxmYuqXzEQ6YSbSCTORTpiJdMJMpBNmUkcn99xzT7L22mtntw2fccYZXFHAIt4MpQ5v3mtmwTgQM+gwew4LXiRhKQJzWMdLJfbZZ5/sNliUtXJp4RZ/uvpddkjphOlMkbcCdayD1KIOwmCm2EGYQt4yRp0oUJdvQ1uTvo3ELF1qfeOhvkcdddTMIS+HX0DdX0Rt81L7bX40TeU3E1O/ZCbSCTORTpiJdMJMpBNmIp0wkzo6sdl09nw/BO3qLOLNlOrw5r0WLAjEYayIZ8vhpRFYEIDDDDrczmoz5Wy8iIAdyiFo13Xp4nfVsaUTJjRF3grUsQ5SizoIg5liB2EKecsYdaJAXb4NbU36NhKzdKn1fcoppyTf/e53Zw45OQy6MEALPfh3qf123GyUld+MS/2SmUgnzEQ6YSbSCTORTpiJdMJMqnTiz6azYB2Cd1WLeDOhKt68R7UFY0TMsrNAnbsHxo4bbrhhGuBDvu0Sw2/zRToxErN0irwVqJu1fy6nDpLDka5MsYMwhbxljDpRoC7fhrYmfRuJWTo0fVtwDr+GYmCMFAMx//YF/y1gszPqnpNOmOHQdMIehi3ym7lI38xEOmEm0gkzkU6YybzqxJ9NZ4E6pFXjD+kkvk4QfLNn0mGMiJl1oQV2/NiLoF2bZV713YaF7SN9G4lZ2kUnCtTNOOZyEloOR7rSRWhcW94i3nkeWIvFW4E6Zh2TN+qWvpl5kb4xwHIHVaHgHAJ07q+k/u2vd955Jx+wJ0uR331UL50wRfFmJtIJM5FOmIl0wkykE2YinTCTMp0UzaazYF3ViyXEuxlvLl1swbgQgTe7FdZ+xHWfTRfa2x1zhrYX2cp0UrRPXbt0wqSmyFuBOtZBalEHYTBT7CBMIW8Zo04UqMu3oa1J30ZilsbU9x133DE7kJOzARYCdjZzDjYE4yw4Z7+U2m5+oO73v/+9beo9lU4YaUydiLd4MwG2SCfMRP2SmUgnzEQ6YSZlOimbTWfBurIXS4h3M95cutiCl0rYONEvhWAdgnihF5D5Zeuul+mkbh1F5aQTJjNF3grUsQ5SizoIg5liB2EKecsYdaJAXb4NbU36NhKzNKa+Z0fJ5zDIQmAOHwTrsI4PgnO2YKCFbViwLXT7q5XtO5VOmGhMnYi3eDMBtkgnzET9kplIJ8xEOmEmRTrBbLr1118/waw5BOy++c1vpo/hOOeccxIE54499thkxx13TN8Gy7UuWMSbyRTx5pLdLAik4mUS7g+/XWqM6bd0wi0zRd4K1LEOUos6CIOZYgdhCnnLGHWiQF2+DW1N+jYSszSmvmdH4RyCb3hmCFJb3FlzsGO2HT4YdOGXUgT22t6+YMeok0onTCmmTsRbvJkAW6QTZqJ+yUykE2YinTCTIp3g+XPuM+jKxtNuOfcI4u3SWMgX8eaS7S0YH2IciRTjRQvYta8x3iOK4JN0wi0TUydD5a1AHesgtQy1wQrczczyO0ORZabYsbOTD2TKBhaB4o1N4s3I1C+ZSZXlrLPOSgdVVg4z6DCrzg3OoYzdxoBgnT2PxPaJkUrfTFX6ZibSCTORTpiJdMJMpBNmIp0wk5g6uffee/mAAQvKHX744Und8qji7rvvDtTUj2lKOsHYr8mYzy2LH3sxZrQ7M9rSnxLvuoxi9ssp8lagrkB5EhqDmWIHYQp5yxh1okBdvg1tTfo2ErM0pr5nRynO4ZbWUHDO3QMDLQzA3Nl37va+89IJE42pE/EWbybAFumEmahfMhPphJlIJ3kmGEtg5hXGH0ULnnXmBn6KysGOGVwICi3GGGVK+sZdF/h0DbaVtV3VtinxrmJh23U9MRKztItOFKibcczlJLQcjnSli9C4trxFvPM8sBaLtwJ1zDomb9QtfYeZh6z2/DmbOYeBGGbOhRYMfBHIc2+LDZXr0xarX8JH6YRbSryZiXTCTKQTZiKdMBPphJlMXScIuNkMfgTg8MH4A+OKomAcnnVWN/CGMUoo6Fd3f26xYsuU9I32QZDOAnZYj8G0mHa8/9NwzKn3yxD3Kenbzl+BOiPhpeogHpCIgSMcSbwXj7cCdcwalil+AYRJzKwx++WDDz44O9AjL4XAc0MwAMYg2YJz+DUaH3/BoMwGZkgXa5FOmHRMnYi3eDMBtkgnzET9kplIJ8xkqjpBUMfGFzbGwPgjtNh4xLYVlbPtCB7ZGAXjGsu7KZ6R1vdssKno24Kr4I1AKNoHAVZ7ZrEfYMUPwJjViLGlv83arE06Fd5N2Ez1elLGqItOFKgrICuhMZguQuPa8hbxzvPAWizeCtQx65i8Ubf0zcxXrVpFRgxa7Zlz7kYbRMOGvD/YwiCtz8GXe2w/H6tf4jjSiU873nVQvJk1LNI3c1G/ZCbSCTORTpjJ2HRSFIBDsA0BIVuKyrnb3XGL2d0UdVSVccvXyY+Nt51TU7/dH2ctD5YYQyIgB7bWXhbEw6zGPp5LZz4jbeq3u29VXtcTJjRF3grUsQ5SizoIg5liB2EKecsYdaJAXb4NbU36NhKzNKa+b7/99tmBHsnhF24MrjDwCt3CgIFW6BYS7G6DNaq0Z4N0wkBj6kS8xZsJsEU6YSbql8xEOmEm0smMiRuAwxjExiGYreUG1dxys71nOWxHUAjjkqIPyrh1zvZun5tnfYMVmNrjUUDJ/XHXHQNinLgYP97OM++2KtT1hMl10YkCdcwztUhoDKaL0Li2vEW88zywFou3AnXMOiZv1C19M/MyfWNAZs+JwUAM6/hFG/miBQM4DcyK6MS7nuCI0jdzL9M3l25mEW/mJd7MRDphJtIJM5mqTuxHQTeQhuCZrWPMgQ+CdW0CdVVBOAXqZlqs0y8RoEM7uAE5y7vBO/8OC4wLMXZEO1a1ycyjerk6fteriUtNtV8yiZllirwVqJu1fy6nDpLDka5MsYMwhbxljDpRoC7fhrYmfRuJWbrU+sbgC7+MYkBrHwzU7IPnkZgdKYJ1sRfphAkvtU7Yo3oW+c2cpG9mIp0wE+mEmUgnzGTIOsH4wl0Q0ME4IrQoUDeMH+TQZhacQ9DNAm9mQ9u5eWtLtC2CrkXta+WapkPWd9m5yG+mM9TrtwJ13FapZagNVuBuZpbfGYosowtShiLNKFCX52Fr0omRmKVDuJ4gUIdn0mGxX0RtgGYpBm/Yphl1s7bzc9K3T2QY/3iwV9WWIfTLai+5hPxmJuqXzEQ6YSbSCTPpWyf4oa8okNMmUIf6EDQq+uBYFmjis2tnmXedYBYkxnpYLCCHdXseHcaAmFFnAT03GItteMlHn8u8827Dqu9+6fowRd4K1LkKcPISmgPjkewUOwhTyFvGqBMF6vJtaGvSt5GYpUutbwysMJh1B1sz75YmJ50w96XWCXtUzyK/mZP0zUykE2YinTAT6YSZjEUnGGNgrIEPfhz0H7PRJlBXFYRToG6mlzo6wXgQs+LQVvhYG/nBOwTq7G4L+5EXR0K7WkBvduRuuTp+tz2CridMboq8FahjHaQWdRAGM8UOwhTyljHqRIG6fBvamvRtJGbpUusbgyx3oDXzbOly0gmzX2qdsEf1LPKbOUnfzEQ6YSbSCTORTpjJWHRis98QPMOCdcy+QnAIS5tAndWpGXUpwtI/dXSCwCfGg2gjBOIsEGoz6yx4h0Cdzbqzg2Id7enbbXvbtI7fbevW9YTJTZG3AnWsg9SiDsJgpthBmELeMkadKFCXb0Nbk76NxCxdSn3bL9z2q+nMq+pc34Mx94jSiUtjIb+UOmFv6lvkN7OSvpmJdMJMpBNmIp0wkzHoBAEfzNTCYoE65GGzIFDTQJ3N/EI9GI8geOQvCORhnNPnMgbeofNt4jeYoV0QrMPH2sidWeePAbENM+r6Xpr43fTYup4wsSnyXg0nfcMNN6RvmES+78/KlSt7r9N8lN/cXuLNTKSTPJMVK1akgxGk1pf6TMU7zxts1S+ZiauT3/3ud/SNbM8TsV9NqUCBAfuFgns4Rh86d/3uoz63DumkXCcuqz7y4i3edXQknUgn0glroA6ToX5f3nvvvekIAgEdBNVs5pwbqIPNxh9NA3Wo3A3CYSYY6vADSKFhDHyrwzZUZqi8Q766tpDfd9xxRwhPZgNLjPUwUw4BO7v7AgE5sHb5o4y7bpU88MADrVnD/5Df7nl1yet7h685U+StGXXWW71UkWwPSJKkFzO29mMRb+aIC3yMRTPqwlRj8cbRpG9mXoc3BlahwRXXlmQDbWyzX1hD5bra6vjd9hjSCZMTb2YinTAT6YSZSCfMRDphJlPWCWa1WZAOZNxAnUvKvdWyrBy22Q+FGIegfiwIKqEO/xlpWA/Ntkt3avFnqvq2gB2QoT3BHW2J4B3y1g4tkJbuMlXeZVCmfD0p4tJFJwrUFVCV0BhMF6FxbXmLeOd5YC0WbwXqmHVM3qhb+mbmXfSNga0Nrm2Q697W4N4CgV/E6wb72Eu2dPGba8tbpJM8D6yJNzORTpiJdMJMpBNmIp0wk6nqBMEdC6oZlaJAXZNy9kMhUsujfuRt3IIUHwTwMNvLr9/8aZpK3zNiYAvmCNb1OQacHUHjE5eF5ad6PbHzD6Vd+qUCdSGi+sc6SKWL0IIVOkZ1bAfGI9lYvBWoY9awxOKNuqVvZl6XNwawNri1WmwAhnX7pRQDMQvaIcXgDAPgooG31dU0ret303pRXjphauLNTKQTZiKdMBPphJlIJ8xkijrBGMIfV4BM3fFCqJwF3Wwc4gfqXPL4AREfLBjjhOpzy9fNz5O+jWPdc0c5jAPxo22swJzvyzzx9s+t7foUrydVrLroRIG6AroSGoPpIjSuLW8R7zwPrMXirUAds47JG3VL38y8rr4x+MUMOXsOiT17xH6pdgN0CNqhHJ45Y7+i9j1gq+s3n3G1RTphRuLNTKQTZiKdMBPphJlIJ8xEOpkxKQqYYRxhgT2koXIYm8BuYw6MUdyZ/rOjJOmYxn5kxBgHY5Y+lnnRtzEG06YBO9u3r1mKZe0yL7zLzrHpNl1PmFgXnShQxzxTi4TGYLoIjWvLW8Q7zwNrsXgrUMesY/JG3dI3M2+ibxv4YgBmA18M3rCOxZ77gtTKure/8tHbW5r43fQo0gkTE29mIp0wE+mEmUgnzEQ6YSbSyYxJKACHrQimIfBjwTg8b85fMB6xMQm2YYyCcqgz9LGxjF9Pl/V50rf7I63dHgxbnQVsQ21UZ98mZeaJd5PzLiur6wnT6aITBeqYZ2qR0BhMF6FxbXmLeOd5YC0WbwXqmHVM3qhb+mbmTfRtvzyjFgvWYeBmA10MoDGAQ5DOfkVF3mbf8dHbW5r43fQo0gkTE29mIp0wE+mEmUgnzEQ6YSbSyYwJxgxVC2brN53lVVVnX9vnVd8WJEXwDTMV7QfZIm7YbnddFJXpwz6vvLuw0fWE6XXRiQJ1zDO1SGgMpovQuLa8RbzzPLAWi7cCdcw6Jm/ULX0z87r6xgANgzME5ey2Vps5ZwMxDMrs1hGk9qs2Bt11f4FlD8OWun6H9y63SifMR7yZiXTCTKQTZiKdMBPphJlIJ8xkrJZ51zfGdvjhFjMUkdpYb6naa955t+Gq6wlT66ITBeqYZ2qR0BhMF6FxbXmLeOd5YC0WbwXqmHVM3qhb+mbmdfWNQBsCchacQ014CDMGaPhV2x7IbAM2W0c5C9Ihde3sTX1LXb/r1zgrKZ3MWFhOvI3ELJVOZiwsJ50YiVkqncxYWE46MRKzVDqZsRh7bp70jXEbgnE2jnPbxmbM4Udc/CC7VDMc54m3y7dLXtcTptdFJwrUMc/UIqExmC5C49ryFvHO88BaLN4K1DHrmLxRt/TNzNvqGwE5zKyzBQM1BOEw8w4BPdyWgoEbPphd5z4bxvbpkrb1u84xpROmJN7MRDphJtIJM5FOmIl0wkykE2YyVss86RvjOoznym53RRAPYz+MCfFBPhTYi9We88S7L0a6njDJLjpRoI55phYJjcF0ERrXlreId54H1mLxVqCOWcfkjbqlb2beRN82mw4DMLsN1mq0219t3VLsYzPuMODr6xfXJn6bL3VT6YRJiTczkU6YiXTCTKQTZiKdMBPphJmM1TJ2fWOchmCbu2D2nL0coux2V+yLH2cxRsQ+i7GMnXcMRrqeMNUuOlGgjnmmFgmNwXQRGteWt4h3ngfWYvFWoI5Zx+SNuqVvZt5U3xio4VM2AMNsOwTorJw/4GMvmlua+t3kCNIJ0xJvZiKdMBPphJlIJ8xEOmEm0gkzGatlrPq+/fbb05lwuAPCf0wJAnAY2+GHWvwwi5lzRbe7YsyHOop+wO27XcfKW36zEoZ6HVSgjtsqtQy1wQrczczyO0ORZXRBylCkGQXq8jxsTToxErN0aNcTuxUCv5ra7a2WYnCGX1KxzQZpls7OqHtOOmGGQ9MJexi2yG/mIn0zE+mEmUgnzEQ6YSZj1QmfyTgsY+W9atWqFDDGcO6CwJtvw3bY7XZXtzzGf9hW9oOuW75rfqy85Te3/FCv3wrUcVullqE2WIG7mVl+ZyiyjC5IGYo0o0BdnoetSSdGYpYO9XqCX1YRtLMPBmYIyvm3t2J2Xd/PK5FOZvqw3FB1Yv4VpfKbyUjfzEQ6YSbSCTORTpjJ0HVSJ6CDHwPtZVV8hsWWovEHxiuY9d/32ASeDJ13Ea0//vGPKWME2tzFZtG5Nrct3DGfzbxzy8bOj5W3/GZlDPX6rUAdt1VqGWqDFbibmeV3hiLL6IKUoUgzCtTlediadGIkZukYricYDPtvBkMAD4E72PseEEsnM31Ybgw6MV/dVH67NBby0jczkU6YiXTCTKQTZjJ0nSDog+CQG/DxzwKz9d0FwaM6QTbUjVlfbmAJ9cCGcUuMZei8y84Z4zbMngMfjN/A2A12Yh1thfbAuM5f6gRd/X26ro+Vt/zmlh/q9VuBOm6r1DLUBitwNzPL7wxFltEFKUORZhSoy/OwNenESMzSIV9PMGjDG8GKbm/FdgTqMOjrc5FOmOaQdcLezizye8bCctK3kZil0smMheWkEyMxS6WTGQvLjUEnGEPY7ZUI2GHd/dgzz8yGYBE+GGNULdjHDSphNh0+sZYx8C46d7BCsA0BO8xiRJuAM2z42HjPD3wW1bcY9rHylt+sjqFevxWo47ZKLUNtsAJ3M7P8zlBkGV2QMhRpRoG6PA9bk06MxCwd6vXEflnFwK5q6XtQJ50w8aHqhD3NW+R3ngfWpG9mIp0wE+mEmUgnzGQMOrEf9eA98n4Azp1RF9runzV+ILSgHoJ0+Ng6AlCWR+AJnz6XMfAuOl83oIkymE1nM+jwgysCeG2W3//+9212q7XPWHnLb27eoV6/FajjtkotQ22wAnczs/zOUGQZXZAyFGlGgbo8D1uTTozELB3q9QQDYQx4l2KRTpj6UHXCnuYt8jvPA2vSNzORTpiJdMJMpBNmMiad2K2T/qw6d0YdAkdVYw9s94NKIRsCdn5wigk2s4yJt39m/u3A4IPAKJgjUGcz7JrOSMQbZWMtY+Utv1kRQ71+K1DHbZVahtpgBe5mZvmdocgyuiBlKNKMAnV5HrYmnRiJWTrE6wkG0Rg426B65u3i5KQT5jxEnbCXbJHfzET6ZibSCTORTpiJdMJMhqoTBIAwm82dcW/PqfNnzbkz6uwMy8YfoaBcyGYz66zOPtKh8q46N7QDuNuCQKcFO8EaQTqkCNIhaIePBfJsn6L0xhtvLNrU2T5W3vKbm36o128F6ritUstQG6zA3cwsvzMUWUYXpAxFmlGgLs/D1qQTIzFLh3g9wUANv7Au1SKdMPkh6oS9ZIv8ZibSNzORTpiJdMJMpBNmMmSdIBCEABCCRBYEsuCZm7oz6syO/TCzP7QgKOfe/op9EFjybSiHbX0uQ+bd5Dz9mYYIooKXLWg7rFs7lAVO1S+N2iwdq06m6LcCdTPd5nLq2Dkc6coUOwhTyFvGqBMF6vJtaGvSt5GYpUPVt/sr+Mzb8hwGcm3282uVTnwiSTJUnbCneYv8zvPAmvTNTKQTZiKdMBPphJkMXScWLMMPgJjRVRbw4bMLW1CnzQazEiGbBf2sTB/p0HkXneODDz6YbUIbhAKYIYYoawHQrAIvo37pAdH3PANJhjuOVaAu2FzDbbACdzOzLkgZiiwz1i+uWH4rUJdJI5eJxRsHUb/MoU5X+uQdGtThIBh42ww8/CruDp7dPHtXbOnTb/8o0olPRIEjJqLrSYiJ+iVT0fWEmUgnzGTKOsFMLfyAVzSGYFrVllBAKWRToG7G0u2X7i2wsxJJGkQtmsXolvPzU9a3z8LWXd5m6ysVbybZhbcCdcwztUhoDKaL0Li2vEW88zywFou3AnXMOiZv1C19M/M+9Y1gnP0SjhQPJcbzZxCcw22ytt0eVoyBIAbObZY+/faPL534ROJdB3Ek8RZvJsAW6YSZ6DrITKQTZjK4YyLHAAAgAElEQVQWnbgBIIwdLIgWSu12WT7bBUsoKBeyWd1F9bSxj4W3f251/UY7FQXy/DptXf3SSMzSurxne9TPiTez6sJ7NQBduXJlOmBFvu/PihUreq/TfJTf3F7izUykkzyTSy65JA1gILW+1Gcq3nneYKt+yUya6OTee+/lbz7HgoEbgnCYJecG52DHYNgW5GFD8M59BspDDz1Uuy808btpv5JOuulEvJlfUybSNzNUv2Qm0gkzkU6YyVB1cvfdd9uwIMGsOvyYZwuCanY7pQXT3BRjjLIltH+TZ9TBt6bXbSs/VN7mX1Fa5Pedd96ZrFq1KsONH2LtpR+ZMZC57777Mobql+Ppl0X6MHuRTmx7l3SoOtGMukAHhwmNHWvpElmt8kl+MyHxzjPRjLo8D1uTTozELB3T9cQNyLmDbt9us+2a/iprVKQTIzFLx6STmdf6nndZWF76NhKzVPqesbCcdGIkZql0MmNhuTHoBDPobEY+/A7NfrPzQVonUOc/WiNUJ8YpKIdbb/t4fi58GwNvl6Xly/zeYIMNktNPP92KNmalfpmhyzJlvLNCLTPizeC68FagjnmmFgmNwXQRGteWt4h3ngfWYvFWoI5Zx+SNuqVvZt63vu32VhwJeQvEYQBsv8DCZre/skf1LH377R5VOnFpLOTFm5lIJ8xEOmEm0gkzkU6YyRR1grEAfsTDzHrcyuouoaCauz0UqLPn3KHO0Gy80Iw6lMUHx6+6ndY9fll+3vR9yimnJGuvvXbyhz/8oey0S7dNUd+lQCL+f4njijfT79IvFahjnqlFQmMwXYTGteUt4p3ngbVYvBWoY9YxeaNu6ZuZ961vNwiHvDurDr+YY/CMwTBue+2y9O2364t04tJYyIs3M5FOmIl0wkykE2YinTCTqeoE4wSMDRCYcxesh4JtFlgLBerc/UP5quBfaJ82tnnT98te9rLkQx/6UBsU2T5T1XcGIJCZN50ETrGxaag6UaCuoCmH2mAF7mZm+Z2hyDK6IGUo0owCdXketiadGIlZOrbrCQbStmCgbcE5DKzxyzl+9UYAD+Uwy86/PcX2LUulE6YzNp3YGchvIzFLpe8ZC8tJJ0ZilkonMxaWk06MxCwduk4wHggF6srGBgrUzdq3r1xIJ+eff356m/Ett9zS6TDql4wvxJtLtbOIN3PrwluBOuaZWiQ0BtNFaFxb3iLeeR5Yi8VbgTpmHZM36pa+mXkMfSMYZ8E5zJ5DHsE5//ZXDM5tgI5Bt90ay16yJYbfdhTpxEjMUvGesbCcdGIkZql0MmNhOenESMxS6WTGwnJT1on9oGcskFbNflOgzqXVTz7UL3feeedkjz326HyAKeu7CF6Id1HZpnbxZmJdeCtQxzxTi4TGYLoIjWvLW8Q7zwNrsXgrUMesY/JG3dI3M+9D37h1BUE2C87hOTAYZCMw59/+6s62Q5DOFjdvtrK0D7+L6pdOmIx4MxPphJlIJ8xEOmEm0gkzmbJOMF5wxwagEwrUYZxhPwRinNF0CdXZtI465edF3zfccEM6m+6yyy6rc9qlZaas7yIw86KTovNrYx+qThSoK2jNoTZYgbuZWX5nKLKMLkgZijSjQF2eh61JJ0Zilg79eoIgGwbNdlsrPHcH3W4Qzre7b3mbnXF1TjphRkPXCXu8YJHfTEb6ZibSCTORTpiJdMJMhq4T3OLq3+aKH/5C4wP8+IeAmzuu4DMOW4rqDJdubx0676Iz8/1+3/vel7zyla8sKt7Irn7JuHzeXKK9RbyZXRfeCtQxz9QioTGYLkLj2vIW8c7zwFos3grUMeuYvFG39M3MY+kbg2gbZCOPwTUWzLJDsM6dfcdeVVti+Y0jSyfMX7yZiXTCTKQTZiKdMBPphJlIJ8xkrJZ50Pc999yTrLnmmslpp53WSzNI34xxHnTCZ9XNMlSdKFBX0K5DbbACdzOz/M5QZBldkDIUaUaBujwPW5NOjMQsHeP1BIG5E088MT0J5O12FXvjK7YhkOf/ij476/KcdMJ8xqgTnIX85raUvpmJdMJMpBNmIp0wk7HqhM9kHJax8nb9Puqoo5JNN920N+Dql4zS5c1bu1nEm/l14a1AHfNMLRIag+kiNK4tbxHvPA+sxeKtQB2zjskbdUvfzDyWvnEku80VM+pwa6wF59iL5paYfksn3B7izUykE2YinTAT6YSZSCfMRDphJmO1zIO+119//eRzn/tcb00gfTPKedAJn1U3y1B1okBdQbsOtcEK3M3M8jtDkWV0QcpQpBkF6vI8bE06MRKzdKzXE/f219nZ9JOTTpjjWHUiv7ktpW9mIp0wE+mEmUgnzGSsOrn33nv5ZAIWlDviiCOSuuVRxd133x2oqR/TWHmb31/5yleSJzzhCckf//jHfoDoh/IgR+Md3NjRqOsgA+zCW4E65plaJDQG00VoXFveIt55Hljri/fKlSsTPPPBllCgDttvvvlmK9Ip7cvvkBPSCVMRb2aCW15xq6vdAssl2lvEm9mpXzIT6YSZSCfMRDphJtIJM5FOmMkQdBIaT7OnecsQ/M57VG9tMfx+6Utfmhx00EH1HKpZajH8rulKo2Lym3FN8TqoQB3rILWogzCYKXYQppC3jEEnCMKtttpqyY477pjst99+6a9/WMevgPhsvvnmCaaaK1D3/+Ubt8e1MegkdLpj9Rvnsttuu7V6O1uIg2vTddClsZAfq07kN7el9M1MpBNmIp0wE+mEmcy7ThSo4zZvY4FOzjvvvPR/lVtvvbVNFYX7qF8ymnnvl3zG1Zah6kSBuoK2G2qDFbibmeV3hiLL6IKUJMuWLUu/ABGgC32wva9FvJmk+iUziakTHM1/WcR9993HTrSwxPRbOuEGEW9mIp0wE+mEmUgnzEQ6YSbSCTOpqxMF6phdGwt477TTTun/Km32L9tH+mY6dfXNe1ZbxJsZdeGtQB3zTC0SGoPpIjSuLW8R7zwPrPXJ22bVhYJ0sF144YXsQEtLn377LkgnPpF+deLXPlbe/nnccsstydprr50g7bpI30xwrDqR39yW0jczkU6YiXTCTKQTZjLvOlGgjtu8jeUHP/hBOongRz/6UZvdS/dRv2Q8894v+YyrLUPViQJ1BW031AYrcDczy+8MRZbRBWkBRdGsOtwS2+ci3kxT/ZKZxNRJaPbcpptumhx33HHsSENLTL+lE24M8WYm0gkzkU6YiXTCTKQTZiKdMJO6OlGgjtm1sbz97W9PXvWqV7XZtXIf6ZsR1dU371ltEW9m1IW3AnXMM7VIaAymi9C4trxFvPM8sNY3b7xUIjSjrs/ZdDH8dslIJy6NhXzfOnGPME+8Dz744GS77bZzT69VXrwZ2zzphM+unUU6YW7SCTORTpiJdMJMpBNmMgSdKFDH7dLUsmrVqmSNNdZIli9f3nTXWuWHoJNajnqF5LcHJML/xe4RhspbgTq3lZz8UBvMcTGYld+MRQOcGRO8OMIN1mG970W8maj6JTNZbJ1cccUVqfa7Hrfr/kxiZpFOZiwsJ95GYpZKJzMWlpNOjMQslU5mLCwnnRiJWSqdzFhYrq5OFKgzYu3TT3ziE8mzn/3s9hVU7Cl9M6C6+uY9qy3izYy68FagjnmmFgmNwXQRGteWt4h3ngfWYvA+44wzcoG6k08+mQ/c0RLDb3NJOjESs1S8ZywsV6STjTfeODnhhBOsWKtUvBlbEW8u2dwi3sxMvJmJdMJMpBNmIp0wE+mEmdTViQJ1zK6p5VnPelbysY99rOlutctL34yqrr55z2qLeDOjLrwVqGOeqUVCYzBdhMa15S3ineeBtVi8119//TRYhxQvmeh7ieU3/JROuLXEm5kU6eTAAw/s/BwU8a7Pm0s2t4g3MyvSN5dsbhFvZibezEQ6YSbSCTOZd50oUMdt3sTy5S9/OXniE5+Y3HrrrU12a1RW/ZJxzXu/5DOutgxVJwrUFbTdUBuswN3MLL8zFFlGF6QMRZrBLDrc/nrEEUfkN/S0Jt4MUv2SmSyFTi699NJU+3fccQc7VNOyFH7XdK20WB2/L7roovS6gGsDPlivs0jfTKkOb96rnkW8mdM881a/5PZua5lnnbRlousJk6ujE/TL97///emYAqm+L5ljleUlL3lJgucH1+FdVVfRdumbyYg3MxmqThSo47ZKLUNtsAJ3M7P8zlBkmSuvvDK57bbbonwuvvjiKPXC31h+X3/99cnf/M3fJEhjcInlN3ztwjsTREFGX1wMZh6vJxtssEFy0kkn8cnWtDTRCd4+e/vttye//e1vkwcffDB5+OGHSz//+7//W7q9av+y7fjlv2w7tiE4t2zZ7IP1qn2wfan99n2s2ZSaoRsA1UTfgd1LTUO5nqhfll+H/P4UWq9zPfH3KxWHs3EoOnFcqpWV34ypyfVkjP1yl10WAnW77vr+9PvT13xoXd+XCzo599xz0yAnxvZNdMIqK7eoXzIf8WYmQ9XJamisG264Ie0kyPf9wZsm+67T6pPf3F7inWeyYsWK9IvAfYGC8qtNkoldN4pSXU/yfQec5vF68q53vSv5+7//+9bfS2U6wRf9Zz7zmbT+ZzzjGcmf/dmfJU996lOTv/zLv0xWX331wX9Cgbox+B3ycZtttkn++Z//Obn88ssL23oe9V10fatrL9N33TqKyi0Vb/XL4Vx71C/5e7aov7h29cvhaNi+b/B9iQAd/qfAD1xYt21jS5eiX26//fbJrrvumn4/z6O+3f7bJr9U35dtfHX3kd98je+ib82o46BqahlqZLXA3cwsvzMUacaeH4GAnXsh6Sv/wx/+MEq9FmDs4vcb3vCG9MH5oXON5TeOddVVV7Vmgtezw++f/OQnVMcee+yR/Nd//RfZQ+fn2/KqCK9hn1iL+iWTXSreuD0FA+tVq1axUzUsRX5/9KMfTR796Ecnb3rTm5Kvfe1ryc0331yjtmEVCQXqhuVhPW/uv//+5Lvf/W6y//77J495zGOSfffdN/g8TvVL5lmkby7Z3LIUvNUvm7dTrD3UL9uTVb9szy7Wnvq+bE8WY3yMw/BDGpZ503d7MrM9l+L7cnb09jn5zey66FuBOuaZWiQ0BtNFaFxb3hKLtwXqkMZYhur3TTfdlH4JnnXWWcHTxu2p11xzTXBbyPjJT34yueuuu9JNqBProc8+++yTBtqsbKiuMhsCiK9+9auzIjgPLLDjS/3rX/96tq3vzBj1DQbym5VQ1S+f+cxnJm3feOzz/ulPf5rgbbJvfvObo95KyWfZv6Xts7D696S/GvE8wq233jrZYostkhtvvDFXcZVOcoUbrvg6abh7aXH5zXh83uqXzGhIFvXLZq3h67vZ3uWlF/N6on5Z3hZLvXWx+uV73vOe3Fh/XvTdZ/stZr+U38N9WaECdQXqVAdhMGO8kM57oA7BtlDAbLfddkse//jHB7eh/HOf+9x0e51gHYJueNirLRaEcwNq2GZ+FOnE9rN6kMJm+yFFoG/DDTdMbXYO8BEBuq222ipqIKTIb9fftnldT5jcUvLGIHGHHXZgp2pYXL9//vOfJxtttFFy/PHH19hTRZaSwL/8y78k6623XnLFFVdkbqhfZiiyjKvvzNhTZrF4q1/21GCLUI36ZT3I6pf1OKlUPwRi9su77747nel+xhlnZM7Og76zk+kps1jflz25m1UjvzMUWaaLvhWoyzDmMxJangfWugiNa8tbYvGe90AdKIYCYAh2lc0+a8IbAbRQQK8oUHf00Ufngm8WiEN5BOJ8f23WHM7Fn1FnKsF+J554IgXq/LqsfJt0jPrGecpvbu0qfZ933nnpDE285KHpYrzxkojnPe95yac+9ammVaj8EhHALMq/+Iu/SM4+++zUgyqddHHTdNKljqJ95TeTMd7ql8xm6Bb1y+oWMn1Xl2xeYjGuJ+qXzdtlqfeI1S8//vGPp2Mn9/zGrm/3XPrKL0a/7MtXtx757dJYyHfRtwJ1zDO1SGgMpovQuLa8JRbvKQTq8iSTbPaZb3fXm/DGzLbQUhSow7MnEHDzg3soj6Bd2eIG6twgHAKPCNYdeOCBWRAQfmGWnVuurO6qbWPUN85JfnPL1tH3Ouusk5x66qm8c4UFvPF2uhe+8IUJnn+lZVwEPvzhD6ezIB966CEK/Pd5JuqXTLNOv+S96lnUL+txGmop9cvylhnz9UTfl+VtO+StMfolZrafcMIJudMes75zJ9LjSuzvyx5dzVUlv3M40pUu+lagjnmmFgmNwXQRGteWt8TiPcVAHYJamH1mM9n8FLex4tbXOgEuzMpD8Cy0WODN6rd16ASz5PwZfXjGnB+8Q73ww+pwb31FEA7rqMuCgq5OEKjDfu6MvJCfdW1j1DfOTX5zC7s64a0Llr322ivZeeedizYX2sEbfWjvvfcuLDP0Deg36I/4oI/VXdDXsO/Ylz333DM54IADFKgLNOSYrydT7Jdt+3Kg6ZfcpH5Z3ATql8VsYm9p08cwDrfv2KIxdGy/+6q/z36JWXpPetKTEvxQ5i5j1rd7Hn3m64xj2x5PvJncUHkrUMdtlVqG2mAF7mZm+Z2hSDNTCtQhCIZ/uu0f71AgDjYMIHbfffdg0CxPL8nq8u1Yt+CZbcNgBh/7AnCfa4eBCp6ZV7SUBdsQdMT+KGPBPzdfVGdTu/nddL865dUvmdJS88btj2ussUaCNxE2Wa6++ur0+Splmm1S32KXRV+yawSOjX5c5x8JlMM/HujjY19uu+225LGPfWxy3XXXRTuVpdZ32xMbq99T7Jdt+3JbbcTeT/2ymLD6ZTGbmFva9DF3H4wT8L055qXPfvniF784wSw9fxmrvuW335LDfSkDe5q3DPX/NAXq8u2UrQ21wTIHCzLyOw9mSoE6DA4QDAsF6IyK/VNeRydls+lQX5NAHf65d4MD5k+d1PbD22b/6q/+Kj2/GEESfeFya9TRCe9VzzIE3vhl9xvf+EY9hx8pdfjhhyeYjTfWBf3a7bvomxYArzonlJuHQB3Oc5dddkk+8pGPVJ1y6+1D0Hcb58fq9xT7ZZe+3EYbi7GP+mWYsvplmEtsax99zP2+je1vrPr76JfnnHNOGrTE/2X+MlZ9y2+/JRWoYyLd7nxSoC5ENJHQQljGeEGaUqAOt4oWDQgwKw0BL7v1tE4AxgJkIS3A5h8L/8DjYzrBjDoLqMG3omCAe+ur1YF9sQ+Cc1YHtuGW3ViL+R2j/jq82x5XfjO5urxxS8eb3/xmrqDEst122yXLly8vKTGuTejn1seqPJ+nQB2eT/i6172u6pRbb1e/ZHR1+yXvWW2Zcr80Ok36su0ztFT9MtwiY72eTL1f4ru1aiwdbvFhWfvol2984xuTd7zjHcETG6u+5Tc3Z8zv+SnyVqCONZZaJDQGM8YOMpVAHQYCeGabHzyzVsRsO9zyarPtqvSNf8ixT9mCY1lgDamtm04QZEOAEAOVqpl+RYEC126BOjuHMt/abDO/2+xbtU8V76r9y7bLb6ZTl/e3v/3t9BbIP/3pT1xJgQW3sfzud78r2DouM/pUUQA9dCbzFKi7/vrr02ti6Dz7sKlfMsW6/ZL3rLZMuV+CTtO+XE10aUqoX4a5j/V6MuV+iTExzt8dx4Zbd/jWrv0Sj5kAiyuuuCJ4smPVt/zm5oz5PT9F3grUscZSi4TGYMbYQaYQqMM/z5iBhsBaWaDO3QZ9lw0e3LKshAWLXwb/KOBjOkFADcFB2Ip+UQzNprN6kCLAZ/siEIkH+CMAGGMxv2PUresJUx0Kb9xOfdppp7GDBRYMNudhsX7W5FzmKVD34IMPJo9+9KObnH6jskPRdyOnR/xymin3yzZ9uakuFqu8+mWY9FivJ1Pul9aSGAeXjbet3JDTrv3y3e9+d/IP//APhac4Vn3Lb25S/b/DTLroRIE65plaJDQG00VoXFveEov3vAfq8I8zPlgsUBcKfiHYZUEzDOoPPPDAXBDMbQ0EwqxO1+7nQ4E6HOeUU07JZuMhuIaBmt1y69eBdXcAY+cQKgf/L7jggixwFyrTxTZGfeN85Te3epPryR577JG89a1v5UoKLPPwj0fbf+znKVCHt8496lGPKmjl7mb1S2bYpF/y3uWWqfbLtn25nObSbVW/DLMf6/Vkqv3SbUX00TpjanefoeW79Ev8T4Ifxb71rW8VntZY9S2/uUljfs9PkbcCdayx1CKhMZgxdpB5DtThy88NgLlBLmxzF3cb7GX6thls7v6hvBuoQ/3YD4G5yy67LCuOAUrZ216tIPZFWfMTKT62IJiHQB38xnH987NyXdIx6hvnK7+51cv07Zc+/fTTk7XWWss3F66P/R8P9Cv0NXexfyLQt8r6/zwF6nD+MdtS/dJV2EK+Sb/kvcstMduy/Mj9bG3TL8v26cerpaklZluqX3Kbql8yE7OU9bGi70t8v7rfoxi7op6xL2375cc+9rFks802Kz199UvGE7Nfivd4eCtQx22VWtRBGMwYO/Y8B+r8FsJAoCgohm1uYK1I3yhn/7T79ds6njuHFz3gWMjbragYnOBjOkEwDQMUBO/cQYvVYynKoS7U4/oJf80Xqxt+xwoWmN/mV59pEe8+jiG/mWIT3ril47GPfWxy5plnckUBS9vBaqCqJTGhL+Ic3A/6HZaifzxsm+2Dfj0PS8y2VL9khTTpl7x3uSVmW5YfuZ+tbfpl2T79eLU0tcRsS/VLblP1S2ZilrI+VvZ9ad+VSDF+nYelbb9cd911k89//vOlCNQvGU/Mfine4+GtQB23VWpRB2EwY+zYbQN1+MfV/aJFPvTmUl8n2K+PL+U2fpvP3HKz22Jtm++32TEoqVrsHP1ZbRZMM50gQIegGsqBHer298GxUAbP2MOCui2gCDvy2AeBAaTwGykCe+5swiqf62w3v+uUbVqmiHfTekLl5TdTacobb34tehuZX3vbwapfj9aXnkDMtlS/5PZt2i+5hmJLzLYsPqq2xCAQsy3VL7nF1C+ZiSxMoE2//NKXvpQ8+clPTh5++GGu0LGoXzowHsnG7JfiPR7eCtRxW6UWdRAGM8aO3SbgZWdugS8LLmHGFwJEbjDLdIJAE4JR+CIbYqAOvlsADOdnftu5IsX5IjjWdnEDdZhp59ZlwTYE3GA3pkhdv9xAHbYhGIftFpQzv21Wn9XT1md3vzHqG/7Lb7cVF/KmE94StnzjG99InvjEJ4Y3etY2g1WvCq0OhEDMtlS/5EZu2i+5hmJLzLYsPqq2xCAQsy3VL7nF1C+ZiSxMoE2/fNGLXpQceuihXJlnUb/0gBT8n8al2lnEm7nFvA524a1AHbdVahlqgxW4m5nld4YizfQRqHNrRMAIX1YWhDLesCPIhEDUkAJ18BOBLviFGW62mN+2jrSr3xaoO+GEEzI+bv0IqiGYiXIWYEMA0QJy8M/1E3bYLEiHuly/cV52y6x7nLb5LhfSqmO6fleVbbpdfjOxprzvv//+ZM0110zOPvtsrsyztBmselVodSAEYral+iU3ctN+yTUUW2K2ZfFRtSUGgZhtqX7JLaZ+yUxkYQJN++X3vve99P+lOn2uThn2qJ4lpr7lN7eBeDOTLjpRoI55phYJjcF0ERrXlrfE4t13oA5eI3hkQS/fbwSPuga8cIw2fiNQGDo2Al3w1327qu93vjXarWGWGz7Lly9vV0GSpLfAWuDODehZha7fOB8cr69ljPrGuctvVoCrE94atuyyyy7JXnvtFd7oWJsOVp1dlR0YgZhtqX7Jjd2mX3ItYUvMtgwfUdZYBGK2pfolt5r6JTORhQk07Zc77rhjsueee3JFAYv6JUOJ2S/Fezy8Fajjtkot6iAMZowdu03Ay84cga/QFxMCSGb3dbKUgTrzu07q+11nn7plxqgTnJv85haekk6++tWvJuussw5D8CzW9z2zVkdIIGZb6nrCgoh5PYnZlnwmssQkELMt1S+55dQvmYksTKBJv7z22mvT/5NWrFjBFQUs6pcMJWa/FO/x8FagjtsqtaiDMJgxdmwF6rgdYZG+mcsY9Y2zkN/clm30fd999yWrr756cu6553KFjqXJYNXZTdkBEojZluqX3OBt+iXXErbEbMvwEWWNRSBmW6pfcqupXzITWZhAk36JZ3lvv/32XEmBRf2SwcTsl+I9Ht4K1HFbpRZ1EAYzxo6tQB23IyzSN3MZo75xFvKb27KtvnGrxr777ssVOpYmg1VnN2UHSCBmW6pfcoO37ZdcE1titiUfTZaYBGK2pfolt5z6JTORhQnU7Zd33nln8qhHPSo588wzuZICi/olg4nZL8V7PLwVqOO2Si3qIAxmjB1bgTpuR1ikb+YyRn3jLOQ3t2VbfZ988snJuuuuyxU6FgxWH3roIX3mgEHdfzyc5q+dVb9kVG37JdfEFvXL+bkmqV+yvsd6PVG/nF6/PPLII5PNN9+cRVxiGau+5Tc3aszv+SnyXg1AV65cmf7jjnzfH9yf3nedVp/85vYS7zyTSy65JH1OAlLTTd0Ub0zFIMMvf+CBBybrrbdeavd5b7PNNgm2+/s0Xe/id51j+X7X2aduGfXLvAbBTbyZyRB1ctVVV6V9/tRTTy3sw7gm6DM/DOpe15qWG6K+65zDWP1Wn5yfPhkad9XRbp0yY9X3WP1Wv5xev3zqU5+afOQjHykcQ4X66Vj1Lb95bK//d5hJF51oRh0Hg1MLLiSxlilGhKtYxuIdY0YdXhgxxLe+VjF2t7fljTeyFr1p9eCDD063Sd8u6YV8W95cE1vEm5l04f3a17422W+//bjSRyz4x0PLfBCI2Zbql6yRLv2Sa8tbYrZl/khai00gZluqX3LrqV8yE1mYQJ1++R//8R/JU57yFN65wqJ+yYBi9kvxHg9vBeq4rVKLOgiDGWPH7jtQd80116SzafBGWCy+Tqbw1lfMNNxqq60SBO1suemmm5LHP/7xCbiMUSc4DzN1xgMAACAASURBVPltrTlLfX3PtnTPDZX3SSedlGywwQaFJ1hnsFq4szYMikDMthyqvqsaYKx+x2zLKmba3i+BmG05Vn2P1e+Ybdmv6lRbFYE6bfnCF74wOeyww6qqou1j1bf8pqak/4u5RHvLFHkrUFeglyn+g1qAIjOPsYP0EahDQAofBKgQjMLbjGxxdYIyG264YTbbzsq0Sbv4Xed4rt91yvtlEJA866yzMjNm0yGIiWWMOpHfWVPmMl11kqvMWxmqTvAgZAxIL730Us/jhdU6g9XgjjIOjkDMthyqvqsaYax+x2zLKmba3i+BmG05Vn2P1e+Ybdmv6lRbFYGqtjz77LPTsdMvf/nLqqpo+1j1Lb+pKRWoYySd/i9WoC4AFKYp/oNagCIzj/GC1Dbg9clPfpKeQ4VZZAjWuYvpBIErfIm5H9TRdmnrd93jmd91y6OczRbEeSFYiRQfBOlwK7Ctb7bZZoW3xzY5XqhsG79D9YRsY9Q3zkN+c2t21Qm0jmdNhpaqwWpoH9mGSSBmW6pfcpt37Zdc48wSsy1nR1FuMQjEbEv1S25B9UtmIgsTqOqXb3jDG5J3vvOdvGMNi/olQ4rZL8V7PLwVqOO2Si3qIAxmjB17iAEvJsuWIfod+pIO2bbddtvcbDs+u/YW9UtmN8Z+ibMYst+f//znk4022ohhJ0kajA9ukHF0BELXr75OYsj6LjvHsfodsy3LeGlb/wRituVY9T1Wv2O2Zf/KU41lBMra0h4LhBdytVnGqm/5za2t/9OYSRedKFDHPFOLhMZgugiNa8tbYvEeYsArf+bhtSH6HfqSDtkQqLNn+IXPrr01lk7g0Rj1Lb/DWuqqE9y6AW1ffvnldICQ5qmQDKMgELMtdT1hCXTtl1zjzBKzLWdHUW4xCMRsS/VLbkH1S2YiCxMo65d77713ghdxtV3UL5lczH4p3uPhrUAdt1VqUQdhMGPs2EMMeDFZtgzRb3xJ2+2tloZsz3rWsxSo85pU1xMPyAgCoy9/+cuTgw46iBwvG6xSYRkGTSBmW47x+xKNNVa/Y7bloEU8h87FbMux6nusfsdsyzmU/qBPqagt77jjjvSHzW9/+9ut/R+rvuU3N7n+32EmXXSiQB3zTC0SGoPpIjSuLW+JxXuIAa/8mYfXhuh36Es6ZNOMOm7TWPrGkcbYL8fg92c/+9lkk002ocYMaZ4KyTAKAjHbUv2SJRDzOhizLflMZIlJIGZbql9yy6lfMhNZmEBRv/zoRz+abLHFFrxDA4v6JcOK2S/Fezy8Fajjtkot6iAMZowde4gBLybLliH6HfqSDtkUqOP21PWEmQz9enLLLbekvxL/+Mc/zjkf0nyugFZGQyBmWw5d30WNNFa/Y7ZlESvZ4xCI2ZZj1fdY/Y7ZlnHUp1qLCBS15dOf/vTk3//934t2q2Ufq77lNzev/t9hJl10okAd80wtEhqD6SI0ri1vicV7iAGv/JmH14bod+hLOmRToI7bNJa+caQx9sux+L3NNtskhx12WK5BQ5rPFdDKaAjEbEv1S5ZBzOtgzLbkM5ElJoGYbal+yS2nfslMZGECoX75hS98IXnqU5/KhRta1C8ZWMx+Kd7j4a1AHbdValEHYTBj7NhDDHgxWbYM0W98Sduz6SwN2fSMOm5PXU+YyRiuJ8ccc0yy2Wab5Zy3weo999yTs2tlfASsLWN4PgZ9h857rH7HbMsQJ9niEYjZlmPV91j9jtmW8RSomkMEQm251VZbJYcffnioeCPbWPUtv7mZ9f8OM+miEwXqmGdqkdAYTBehcW15SyzeQwx45c88vDZEv0Nf0iHbIYccktx0003JWWedldx1113hE2xpjaUTuDNGfcvvsJD60smNN96Y3v563XXXZQeC5pctW5acccYZmU2ZcRIIXb/6OhNdT5hkX/2Sa07SfhqyyzY+AuqX3GZjvZ7EbEumJEtMAn5bYowP269+9avOhx2rvuU3N33M7/kp8lagjjWWWiQ0BjPGDjLEgBeTZctQ/MYXsc2e22effbK82fAlbXlLEag7+OCD0y9w/NrWZ7BO/ZK1MsZ+ibMYi99bb711cuSRRyaYQXfEEUekuobub775Zm4MWUZFwP/Ho0/nx6Jv/5zH6nfMtvQZaT0ugZhtOVZ9j9XvmG0ZV4Wq3Sfgt+XrX//65F3vepdfrNX6WPUtv7m59X8aM+miEwXqmGdqkdAYTBehcW15SyzeQwl45c+2em0sfvtf3DizMepEfoc1GatfDpk3AnAnn3xyOmMO6Ste8YrkcY97XLL22mtnQTroXre+hjUzJmvo+tWX/7oOMsmY15OYbclnIktMAjHbUv2SW079kpnIwgTcfnn11Ven4yH/ZVu8Vz2L+iVzitkvxXs8vBWo47ZKLeogDGaMHXssAS+f9lj8dr+47RzGqBP4Lr+tBWfpVK+DuLUV2i76bL755jNIA8uF+iRcLLLXcd/f118vqqNuuaL9Y9tj+tf2elLHp7vvvjtD45f317OCj2T87f76vffe6++SrvvlgoUqjDGvJ334V+F+rc1FfhTZUWnRtiK77wjKhcqGbGXH8+tdqvUiv/vwp22/rHPsmPoeq9+x2rJtvdivzb5F+5XVVbatTE919isqU2QvO17dbW7de+21V/K6172u7q6V5caqb/nNTavrIDPpohMF6phnapHQGEwXoXFteUss3mMJeOVpJMlY/Ha/uO0cxqgT+C6/rQVnaax+OQbeeHsx9B367LjjjjNIS5BzffIPH+qTVsa2ufuH8lbeUtvP1pGGbGYP1ena3HqWMl90Dn341PZ6Uscnl2UoX+Z/qP6QDXWE6vZtZcfyt8W8nhSdg+/DYqyHfAnZzJcipkV27Odus3r81D2mW74o7++/VOuu33370LZf1vEjpr7H6nestnTrrdKzu91tR9du+aLtrt3NYz93sXrKUitv+5aVtW22j5va/mbz183eV2r1//rXv06vP9/5znf6qlrj7wBJXU8Yylivg138VqCOdZBa1EEYTBehcW15SyzeYwl45WkoUOfzsPVYOkH9Y9S3/DZl5NO+dIKZczZQdtP99tsvf8AlWrOBsx3e1i01e1VaVt62IS372DGsvK37adV2v3zM9Zi+1L2elDH1t4VY+OdQto+V9cv463YcK2/rflq13S/ftF+uXLnSr6JwvakvhRVF2lDkn2uvk/fdc/fBNne9KO/X4e8X2r6YNtfvvo9bt1+2OW5TfTc5xpD8HkK/LNJIyB6ygb1v99etfXy7u+7mQ3VaHZbWKe+XsX0txfaqj5XtMzW/8KzeF7zgBX1WrfF3gOZUrieBUy80Dek6WOhkYEMXvxWoCwCFSR2EwXQRGteWt8TirUBdnrOt9cX71a9+tVWZpWPUCZyX31kTZpm+dJJV6GTGwBvPoQsF65b6ja82YLYUWN18aN1BT1l/X7dA2Ta3nOVRvupjZZc6bXpuTfxto+8m/oQYwz+3Djfvb6tzLqFj+LY69ViZptcT9D88GxLPiqxa/HOtKr/Y26v887m662W++vW6637erTOULzvOYm5z/e77uG36ZV0fmuq7br0oNyS/l7JfVuk2pJ2QDUx9u79u7ePb3XU3b3XCVvaxet20SfnQMf263PW+8nbcpz3taclJJ53UV7VpPUPSd5MTk99MayrXQT7zYksXnShQV8BVQmMwXYTGteUtsXgrUJfnbGuxeKP+MepEfpsy8ql0kqRvd/VfJLHUb3y1AbOf5lsv/48Iylr5snLuNn8fW/dTfx933c8X+eCXW4z1mL40vQ66vvh83W1lXNxybh77WJ22v637qW23fdx1P+8fw9/ur7e5ntjzIhEwLwvYNfXF962PdZelX1+Vf0XbQ3b3OKG8Hdvd183bdjet2u6WjZ2P6UvTftnkXNvou279Q/N7qftlkUZCdtj8D7j7Zd11v7y/bu3m7hOq08pZ6pc3u5tWlfF9Ca279fWVx3EQoEOgru9laPque37ym0lN6TrIZx+2dNGJAnVhpppRF+DSRWiB6nKmWB1bgboc5mwlFm8cYIw6kd+ZNHIZ6WQBB271cQfDS/3GV/iCxVLLuz662xbOgsuH7GazNFSPbQulvg+h9dB+S2Frem5NfGx6HSzypczus63yr6iuov38+kPrRfuG7G2uJwjOucdFwC50613Tcwv515fNfHH99vP+sfzt7rpf1l1HOXdx1/28W2co79azlHnX7779aNovmxy/jb7r1j80v5e6XxZpJGQP2cDdt/vr1ja+3V1381YnbGUfv96ysrbN9rFjNFl3y3bJwxfc8opbX/tehqbvuucnv5nUlK6DfPZhSxedKFAXZqpAXYBLF6EFqsuZYnVsBepymLOVWLxxgDHqRH5n0shlpJMZjuOOOy4dfK+zzjrpQPWiiy6abVzknA3eLa17eJS3xc9bXa4dZd11t4ybtzr98q7d8m59ZlvsFG2HfzbsE6Mtm1wHjaXPoS2rov1cux3TT10f3PKu3fJV262cpW2uJxdeeGHwn17M6MHM1sVoS/O/bhriErK59RVtL7JjX2yzj9Xlli/KW1k3dcu69sXML0ZbNumXTc+9jb7rHmNofi91vzTd+7r118E3ZAvZQ+Vgs4+1lVvOzYfqtH0sLSrv24vK2zFQvuxj+/eRWr/cfffd02MuX768j2pzdQxN3znnSlbkN8OZ0nWQzz5s6aITBerCTBWoC3DpIrRAdTlTrI5tgborrrgiue2223r/XHzxxb3XCT/hL76Ex+Y3fL/yyiujMEHdXXnnROetjFHfOAX57TVkpGeMIqjz8pf/Y7Lees9Oli1bCPLwkRff4g7wi/LmVdF2125lLS3bZmXcFOWrPm75pcijLdGGu+yyf/rZf//9e79m1bkO/uY3v0lZgYFxLmNnrKrKWF1W3tIiu23307Lj2DbbB+dS9R3b5vp92WWXlerpJS95SbL77h9K23Mo/TLEOWQzdkiNZyh1y1ne6itKrU63fKhu12ZllyodSr+s0nHR9jb6LqrLt9e5nvj71F1v4/dS9csqvVp/cDXs22zdUitbtG52P8V+ZnPrgK3sY2XdtGl5f193ve+89ctnPnPj5G//dkvNqHMAa/ztwHgkG+v/eVQ/Rd6r4aRvuOGG9OSR7/uDWxT6rtPqk9/cXuLNTMq+ALWtfEAxb3zs2hFKdT3hvqPryYyJDVb/4R+WDSZQ5/ZPGy7BhsVSs7s228+2hcqGttl+fmplQ2lZ3aHyi2GztvTPY7HX4YctIU4hm5W3NFQmZEN514586GP1hlJ3f387ziVU32LY1lzzz5Kdd95vUP0yxNtn5q4XsQ3ZXZubb3JMfz/Xl6XKD6Vfgo0+3RnE7JdF+g3ZzWZtavo2e2j9/2/v7FklqbYAOkaKg2Ki2ag/QDASjMSvQBCGEdFEeDwQfD/A+IGIYOYHiPgDFP0LZooG6qiDgSCMMGA0iYGMgSZTj1OPOtbpVXVvddfd1XVurQuXPrX7dPWutdc+XX24jv3n+uM0t3/cH3fn6T+e9nw3d2zebjwdT/3tzj33MfXlv/713/Z9L1/+T7tRN3QPPSfm/fc/95odR++/yWSLnvgXdSMrmDvCBJMWj6ifSN7ff/992GbxV199FXZu8+YiPYf3ae7W6rd5s7IR60n3JTL91c6x/3Knu1FPV97dyI899ukMva5/jv7cbtydd2xe//n+nH58bNy9x9KPXS1ffvn1Jv2+/vrrZ76OT1m///jjj3zpfUZdcCi2+1w3Z+yxm58euzm7425O//n+nH58bJyupfuCMfZ4yPr9+eefj34xffjhh5vnnntulX9R1+fUZ9mx7h7TvKm/3Wv6j7vvM/ZcN697TPPGxv1zLDleS1+O+Xta/BC/Tztn9/yU9aSbu+/jIXkfuy/77vYdHYqn2Fi864OxOd3z/ffoj3fP2x13j7uv78f7z6X42G///YbGu+ccmjMn1vVl5L1PcjbqJ+J+sMvVvDsS/zzK+x8W3WiOJ27UdRR3HhVtB8hG/+SUFMqInpQ80tGcBYlnKyPyLnnImzxSJMKT7t9pSTet6Tcdr+Gnu0nvHlNO/XE/x358bNyfv3uu9Jqh3/5ruvN2j1Of68+LHi9Ry33XwZN47fLoz90dd8fdY/+1/VgaD/0Oze+/rnu+i3WPXfykx0P6cvcfrU/v9+STTzbvvvtuk/6nLkvU8qRrGnpuiMlQbPe1u3N2j3fnp+OT5vSf68bdY/9cXax77D+35HiJWu7bl/tc/yF+Tz3/2vI+dl+OuToWH+I8de5J83af6467x/77drHdxzSni/XnnxTvzxt7bX/OnLF9OU5vbX05nmn5jHmXPNLRWtdvN+pYqzay1oKNpJvD5p1R5IELUkaRB3qSUeSBnmQUeaAnGUUeRN8U5zc6ZZDy6HLpxkOPQ6cZmteP9V+T4t1PfzwU232+f85unF63O68719KPkXnsu57s5tLnNcZld87QOfqv7T/fH3dz+rH+OD2fjnd/u3j3+tMeD1lPrly5kt83bdCl/xxo6Gc336E5x4ydlt/Q80Ox3WsYmpNi3W+avzune67/ODRv972WOt7N9yzfd9++3Oe9D/F76vnXlvcx+7Lzts+ui+3jztS5Q/OG3m93Xn9ON0457847KTY0t3/dY6/dnXMWx1NyOfR91ub31Oswb5La0jrIqx+OzPHEjbphpqvdWR1JN4dtkIwiD+Y0SD7JyEDeBCNvMtETMqnVk8ibVVIyEkkgspaRfkcyiTz3vutg+ou59J+3pk2BsQ26Lt/IWnbv4eMyBCJrGdmX+/q9D8015W1f7lO58zPXvmQt19SXzG48Yt5ks9b124061qqNrLVgI+nmsHlnFHnggpRR5IGeZBR5oCcZRR7oSUaRB5E3q/lNHCxCILKWkevJInAC3mTf9eTGjRtN+p3yE1nLKe/vnLMjEFnLyL7c1+99iK0pb/tyn8qdn7n2JWu5pr5kduMR8yabta7fbtSxVm1krQUbSTeHzTujyAMXpIwiD/Qko8gDPcko8kBPMoo8iLxZzW/iYBECkbWMXE8WgRPwJpHrSWQtA1B4yhMIRNYysi8j/a4178hanqCQTwUQiKxlrX6bN0VzHSSTOZ64UUeebUTRCGaOaDxbGZF3ySMdyZtM9IRM9IRMIj2JvFnllRiJJBBZy8i+/P3338Ow9P9PtGf9JvblWRM9n+ertS8j/Y5cTyLzjqzl+bR/vVcVWcta/TZv+hq5nmyRtxt1dKyNKBrBbLFBSKGM6EnJIx3pCZnoCZnU6knkzSopGYkkEFnLWv2uNe/IWkY66LlJILKWtfpda96RtaQ5RiIJRNayVr/Nm8b5fYdM5njiRh15thFFI5g5ovFsZUTeJY90JG8y0RMy0RMyifQk8maVV2IkkkBkLe1LVs6+JBMjJGBfkkmt60lkLUnJSCSByFrW6rd507jIz/kt8najjo61EUUjmC02CCmUET0peaQjPSETPSGTWj2JvFklJSORBCJrWavfteYdWctIBz03CUTWsla/a807spY0x0gkgcha1uq3edM4v++QyRxP3KgjzzaiaAQzRzSerYzIu+SRjuRNJnpCJnpCJpGeRN6s8kqMRBKIrKV9ycrZl2RihATsSzKpdT2JrCUpGYkkEFnLWv02bxoX+Tm/Rd5u1NGxNqJoBLPFBiGFMqInJY90pCdkoidkUqsnkTerpGQkkkBkLWv1u9a8I2sZ6aDnJoHIWtbqd615R9aS5hiJJBBZy1r9Nm8a5/cdMpnjiRt15NlGFI1g5ojGs5UReZc80pG8yURPyERPyCTSk8ibVV6JkUgCkbW0L1k5+5JMjJCAfUkmta4nkbUkJSORBCJrWavf5k3jIj/nt8jbjTo61kYUjWC22CCkUEb0pOSRjvSETPSETGr1JPJmlZSMRBKIrGWtftead2QtIx303CQQWcta/a4178ha0hwjkQQia1mr3+ZN4/y+QyZzPHGjjjzbiKIRzBzReLYyIu+SRzqSN5noCZnoCZlEehJ5s8orMRJJILKW9iUrZ1+SiRESsC/JpNb1JLKWpGQkkkBkLWv127xpXOTn/BZ5u1FHx9qIohHMFhuEFMqInpQ80pGekImekEmtnkTerJKSkUgCkbWs1e9a846sZaSDnpsEImtZq9+15h1ZS5pjJJJAZC1r9du8aZzfd8hkjidu1JFnG1E0gpkjGs9WRuRd8khH8iYTPSETPSGTSE8ib1Z5JUYiCUTW0r5k5exLMjFCAvYlmdS6nkTWkpSMRBKIrGWtfps3jYv8nN8ibzfq6FgbUTSC2WKDkEIZ0ZOSRzrSEzLREzKp1ZPIm1VSMhJJILKWtfpda96RtYx00HOTQGQta/W71rwja0lzjEQSiKxlrX6bN43z+w6ZzPHEjTrybCOKRjBzROPZyoi8Sx7pSN5koidkoidkEulJ5M0qr8RIJIHIWtqXrJx9SSZGSMC+JJNa15PIWpKSkUgCkbWs1W/zpnGRn/Nb5O1GHR1rI4pGMFtsEFIoI3pS8khHekImekImtXoSebNKSkYiCUTWsla/a807spaRDnpuEoisZa1+15p3ZC1pjpFIApG1rNVv86Zxft8hkzmeuFFHnm1E0Qhmjmg8WxmRd8kjHcmbTPSETPSETCI9ibxZ5ZUYiSQQWUv7kpWzL8nECAnYl2RS63oSWUtSMhJJILKWtfpt3jQu8nN+i7zdqKNjbUTRCGaLDUIKZURPSh7pSE/IRE/IpFZPIm9WSclIJIHIWtbqd615R9Yy0kHPTQKRtazV71rzjqwlzTESSSCylrX6bd40zu87ZDLHkwsJ6LVr15r0GPF79erVkPOa93C95E0u+k0mekImekImekImkTer/Hg3Ekkg1TLivsf7E/ZNYhK5ntiXkZ2y7LntS/ZPrfcn9uWyvRP5bvbl+enLWteTLebtX9SNrGrppjLqZ87O6mk5mTcJyZtM9IRM9IRM9IRM/OJBJrVGImvpekIrIteTyFrySoxEEoispX3JytmXZGKEBOxLMnE9IZPI9WSLvN2oo2NtRNEIZosNQgplRE9KHulIT8hET8ikVk8ib1ZJyUgkgcha1up3rXlH1jLSQc9NApG1rNXvWvOOrCXNMRJJILKWtfpt3jTO7ztkMscTN+rIs40oGsHMEY1nKyPyLnmkI3mTiZ6QiZ6QSaQnkTervBIjkQQia2lfsnL2JZkYIQH7kkxqXU8ia0lKRiIJRNayVr/Nm8ZFfs5vkbcbdXSsjSgawWyxQUihjOhJySMd6QmZ6AmZ1OpJ5M0qKRmJJBBZy1r9rjXvyFpGOui5SSCylrX6XWvekbWkOUYiCUTWsla/zZvG+X2HTOZ44kYdebYRRSOYOaLxbGVE3iWPdCRvMtETMtETMon0JPJmlVdiJJJAZC3tS1bOviQTIyRgX5JJretJZC1JyUgkgcha1uq3edO4yM/5LfJ2o46OtRFFI5gtNggplBE9KXmkIz0hEz0hk1o9ibxZJSUjkQQia1mr37XmHVnLSAc9NwlE1rJWv2vNO7KWNMdIJIHIWtbqt3nTOL/vkMkcT9yoI882omgEM0c0nq2MyLvkkY7kTSZ6QiZ6QiaRnkTerPJKjEQSiKylfcnK2ZdkYoQE7EsyqXU9iawlKRmJJBBZy1r9Nm8aF/k5v0XebtTRsTaiaASzxQYhhTKiJyWPdKQnZKInZFKrJ5E3q6RkJJJAZC1r9bvWvCNrGemg5yaByFrW6neteUfWkuYYiSQQWcta/TZvGuf3HTKZ44kbdeTZRhSNYOaIxrOVEXmXPNKRvMlET8hET8gkypPbt283kTervBIjkQQia2lfsnL2JZkYIQH7kkxqXE/8vGQda47Yl6xejX2ZrsK8Wcuo+5O5vN2oY63ayFoLNpJuDpt3RpEHLkgZRR7oSUaRB3qSUeSBnmQU7eDWrVvNxYsXy6BH1RLwiwdLV+M6aF+yjjVH7EtWz74kEyPLErAvybvGvkxXYd6s5Vq/77hRx1q1kbUWbCTdHDbvjCIPXJAyijzQk4wiD/Qko8gDPcko2sHNmzeb+++/vwx6VC0Bv3iwdDWug/Yl61hzxL5k9exLMjGyLAH7krxr7Mt0FebNWq71+44bdaxVG1lrwUbSzWHzzijywAUpo8gDPcko8kBPMoo80JOMoh38+eefzZ133lkGPaqSwN9//x36nzG7nlCLqPXEviTrWiP25XDlalxP7MvhWtYYtS+Hq1ZjX6YrMW/WM+r+ZC5vN+pYqzay1oKNpJvD5p1R5IELUkaRB3qSUeSBnmQUeaAnGUUePPjgg83169fzsYM6CXz77bfNI488Epa86wnRRq4n9iV51xixL4erVut6Yl8O17O2qH05XLFa+9K8Wc/I+5M5vN2oY63ayFoLNpJuDpt3RpEHcxokn2RkIG+CkTeZ6AmZ1OrJM88803zyySe8ICNVEfjoo4+al156KSznWv2uNW/7MkzlRU9sXw7jti+HuRhdhoB9Ocy51r40b9Zzrd/T3KhjrdrIWgs2km4Om3dGkQcuSBlFHuhJRpEHepJR5IGeZBR58P777zfPP/98PnZQJ4Fnn322eeedd8KSdz0h2sj1xL4k7xoj9uVw1WpdT+zL4XrWFrUvhytWa1+aN+sZeX8yh7cbdaxVG1lrwUbSzWHzzijyYE6D5JOMDORNMPImEz0hk1o9+e2335p77723+eWXX3hRRqog8MMPPzSXLl1q7EuWy74kEyPLELAvxznbl+NsfCaWgH05zrfWvjRv1nSt94Nu1LFWbWStBRtJN4fNO6PIAxekjCIP9CSjyAM9ySjyQE8yijxInrz99tvNlStXcsxBXQReeOGF5s0333SjbqBsNa+D9uVAQSsK2ZfjxbIvx9n4TCwB+3Kcb819OX5V857xewP5zfHEjTrybCOKRjBzROPZyoi8Sx7pSN5koidkoidksoQnjz/+L5MgOAAABqhJREFUePPqq6/yzY2smsAHH3zQPPHEE22OS3gSAcO8SbVbB+1LsqkhYl+eXKXO75NnHfbsEuuJfXlYbY79Kvvy5ArU3pcnX91hzy6xnhyW2cmvWmvebtSN1G2tBRtJN4fNO6PIAxfSjCIP9CSjyAM9ySjyQE8yijzoPPnuu++a++67r/n444/zcw7WTeDTTz9t7r777ubHH39sE9Vv1qvzm8/MjyzB276cX6elz2Bfnk7cvjydkTPOloB9eTrP2vvy9Cvcf8YSn/P7Z3X6K9aatxt1I7Vba8FG0s1h884o8sCFNKPIAz3JKPJATzKKPNCTjCIP+p58/fXXzT333NOkfzDbn3UTeO2119qN1S+//DInqt8ZRR70/c7BMxosxdu+PKOCLXAa+3IaZPtyGidnnQ0B+3Iax/PQl9OudPqspT7np2c0beZa83ajbqR+ay3YSLo5bN4ZRR64kGYUeaAnGUUe6ElGkQd6klHkwa4nP/30U/PUU081ly9fbq5evZrn1Tj44osvmjfeeCP/puPaf65fv968+OKLzWOPPdZ88803xeXod4GjPdj1mzMOjyzJ2748vE5LvNK+3I+yfbkfryVm+3l5dpTPi99nR6Tx39AdgLlFT9yoGxAhhZa8oRxJ4aCweRPbFhubFMqInpQ80pGekImekMmYJ2+99Vbz0EMPNU8//XTz4YcftptCf/31V3P79u1qftMm3b///c9vOq4l/36lfv311+azzz5rN08vXrzYpNoM/eg3qYz5zZn7R47B27487vrTt8S+7NPYb2xfHtfjoc9BPy/3c/ik2efN75Oudepzx/i8nJrbSfPMm3Tm+H0hvfjnn39uv6Sm8Vn/Xrt27czP2eVo3qyXvMlET8hET8hET8hET8jkNE/SJt0rr7zSPProo82FCxeaO+64o5rfoS8eNeSfOKcNuQceeKC56667mkuXLrV/5fjee+81N27cGL0H0e/9/e7uvw55PCZv+3L5dci+ZH8d0jfpNad97hx63vQ6+/Kw3vDzUr/Pa1/Wup6cx7z9izpufLYRd4QJJjVA1I+8SVbeZKInZKInZKInZDLFk6EvHjwTI2vgfevWrebmzZtNepz6s4a8p+ban2fefRr/H0/xm6+aFjk2b/tyWp2mzDrPnky5/qE5x/Z7KKcpsWPnbV9OqdK0OfYlOR3bb2Y0LWLe5DTHbzfqyLONKBrBzBGNZysj8i55pCN5k4mekImekImekMkUTw79N3fkfRhvvmpaRN7kNMVvvmpa5Ni87ctpdZoy6zx7MuX6h+Yc2++hnKbEjp23fTmlStPm2JfkdGy/mdG0iHmT0xy/3agjzzaiaAQzRzSerYzIu+SRjuRNJnpCJnpCJnpCJnpCJnpCJnpCJnpCJnpCJnpCJnpCJnpCJnpCJnpCJlv0xI06etBGbBCC2WKDkEIZ0ZOSRzrSEzLREzLREzLREzLREzLREzLREzLREzLREzLREzLREzLREzLREzLREzKZ44kbdeTZRhSNYOaIxrOVEXmXPNKRvMlET8hET8hET8hET8hET8hET8hET8hET8hET8hET8hET8hET8hET8hki564UUcP2ogNQjBbbBBSKCN6UvJIR3pCJnpCJnpCJnpCJnpCJnpCJnpCJnpCJnpCJnpCJnpCJnpCJnpCJnpCJnM8caOOPNuIohHMHNF4tjIi75JHOpI3megJmegJmegJmegJmegJmegJmegJmegJmegJmegJmegJmegJmegJmWzREzfq6EEbsUEIZosNQgplRE9KHulIT8hET8hET8hET8hET8hET8hET8hET8hET8hET8hET8hET8hET8hET8hkjidu1JFnG1E0gpkjGs9WRuRd8khH8iYTPSETPSETPSETPSETPSETPSETPSETPSETPSETPSETPSETPSETPSGTLXriRh09aCM2CMFssUFIoYzoSckjHekJmegJmegJmegJmegJmegJmegJmegJmegJmegJmegJmegJmegJmegJmczxxI068mwjikYwc0Tj2cqIvEse6UjeZKInZKInZKInZKInZKInZKInZKInZKInZKInZKInZKInZKInZKInZLJFT9yoowdtxAYhmC02CCmUET0peaQjPSETPSETPSETPSETPSETPSETPSETPSETPSETPSETPSETPSETPSETPSGTOZ64UUeebUTRCGaOaDxbGZF3ySMdyZtM9IRM9IRM9IRM9IRM9IRM9IRM9IRM9IRM9IRM9IRM9IRM9IRM9IRMtujJ/wAet2NdQIX/wgAAAABJRU5ErkJggg==;" vertex="1" parent="1">
          <mxGeometry x="10" y="338.88" width="1013.64" height="381.12" as="geometry" />
        </mxCell>
      </root>
    </mxGraphModel>
  </diagram>
  <diagram id="lP61cjCVaztXyhVd9eDz" name="2.3系统流程图">
    <mxGraphModel dx="1264" dy="886" grid="1" gridSize="10" guides="1" tooltips="1" connect="1" arrows="1" fold="1" page="1" pageScale="1" pageWidth="827" pageHeight="1169" math="0" shadow="0">
      <root>
        <mxCell id="0" />
        <mxCell id="1" parent="0" />
        <mxCell id="MOPGVhFuVl4-QU0xAdFj-5" value="" style="edgeStyle=orthogonalEdgeStyle;rounded=0;orthogonalLoop=1;jettySize=auto;html=1;" edge="1" parent="1" source="MOPGVhFuVl4-QU0xAdFj-2" target="MOPGVhFuVl4-QU0xAdFj-4">
          <mxGeometry relative="1" as="geometry" />
        </mxCell>
        <mxCell id="MOPGVhFuVl4-QU0xAdFj-2" value="客户" style="rounded=1;whiteSpace=wrap;html=1;absoluteArcSize=1;arcSize=14;strokeWidth=2;" vertex="1" parent="1">
          <mxGeometry x="80" y="80" width="80" height="80" as="geometry" />
        </mxCell>
        <mxCell id="MOPGVhFuVl4-QU0xAdFj-7" value="" style="edgeStyle=orthogonalEdgeStyle;rounded=0;orthogonalLoop=1;jettySize=auto;html=1;" edge="1" parent="1" source="MOPGVhFuVl4-QU0xAdFj-4" target="MOPGVhFuVl4-QU0xAdFj-6">
          <mxGeometry relative="1" as="geometry" />
        </mxCell>
        <mxCell id="MOPGVhFuVl4-QU0xAdFj-4" value="开购票证明" style="whiteSpace=wrap;html=1;rounded=1;arcSize=14;strokeWidth=2;" vertex="1" parent="1">
          <mxGeometry x="230" y="90" width="120" height="60" as="geometry" />
        </mxCell>
        <mxCell id="MOPGVhFuVl4-QU0xAdFj-9" value="" style="edgeStyle=orthogonalEdgeStyle;rounded=0;orthogonalLoop=1;jettySize=auto;html=1;" edge="1" parent="1" source="MOPGVhFuVl4-QU0xAdFj-6" target="MOPGVhFuVl4-QU0xAdFj-8">
          <mxGeometry relative="1" as="geometry" />
        </mxCell>
        <mxCell id="MOPGVhFuVl4-QU0xAdFj-6" value="购票证明" style="whiteSpace=wrap;html=1;rounded=1;arcSize=14;strokeWidth=2;" vertex="1" parent="1">
          <mxGeometry x="430" y="90" width="120" height="60" as="geometry" />
        </mxCell>
        <mxCell id="MOPGVhFuVl4-QU0xAdFj-11" value="" style="edgeStyle=orthogonalEdgeStyle;rounded=0;orthogonalLoop=1;jettySize=auto;html=1;" edge="1" parent="1" source="MOPGVhFuVl4-QU0xAdFj-8" target="MOPGVhFuVl4-QU0xAdFj-10">
          <mxGeometry relative="1" as="geometry" />
        </mxCell>
        <mxCell id="MOPGVhFuVl4-QU0xAdFj-12" value="" style="edgeStyle=orthogonalEdgeStyle;rounded=0;orthogonalLoop=1;jettySize=auto;html=1;" edge="1" parent="1" source="MOPGVhFuVl4-QU0xAdFj-8" target="MOPGVhFuVl4-QU0xAdFj-10">
          <mxGeometry relative="1" as="geometry" />
        </mxCell>
        <mxCell id="MOPGVhFuVl4-QU0xAdFj-8" value="开购票发票" style="whiteSpace=wrap;html=1;rounded=1;arcSize=14;strokeWidth=2;" vertex="1" parent="1">
          <mxGeometry x="430" y="230" width="120" height="60" as="geometry" />
        </mxCell>
        <mxCell id="MOPGVhFuVl4-QU0xAdFj-18" value="" style="edgeStyle=orthogonalEdgeStyle;rounded=0;orthogonalLoop=1;jettySize=auto;html=1;" edge="1" parent="1" source="MOPGVhFuVl4-QU0xAdFj-10" target="MOPGVhFuVl4-QU0xAdFj-17">
          <mxGeometry relative="1" as="geometry" />
        </mxCell>
        <mxCell id="MOPGVhFuVl4-QU0xAdFj-10" value="发票" style="whiteSpace=wrap;html=1;aspect=fixed;labelBorderColor=none;textShadow=0;rounded=1;strokeWidth=2;" vertex="1" parent="1">
          <mxGeometry x="600" y="220" width="80" height="80" as="geometry" />
        </mxCell>
        <mxCell id="MOPGVhFuVl4-QU0xAdFj-16" value="" style="edgeStyle=orthogonalEdgeStyle;rounded=0;orthogonalLoop=1;jettySize=auto;html=1;" edge="1" parent="1" source="MOPGVhFuVl4-QU0xAdFj-13" target="MOPGVhFuVl4-QU0xAdFj-15">
          <mxGeometry relative="1" as="geometry" />
        </mxCell>
        <mxCell id="MOPGVhFuVl4-QU0xAdFj-13" value="机票单" style="whiteSpace=wrap;html=1;labelBorderColor=none;rounded=1;strokeWidth=2;" vertex="1" parent="1">
          <mxGeometry x="720" y="390" width="120" height="60" as="geometry" />
        </mxCell>
        <mxCell id="MOPGVhFuVl4-QU0xAdFj-25" value="" style="edgeStyle=orthogonalEdgeStyle;rounded=0;orthogonalLoop=1;jettySize=auto;html=1;" edge="1" parent="1" source="MOPGVhFuVl4-QU0xAdFj-15" target="MOPGVhFuVl4-QU0xAdFj-24">
          <mxGeometry relative="1" as="geometry" />
        </mxCell>
        <mxCell id="MOPGVhFuVl4-QU0xAdFj-15" value="机票" style="whiteSpace=wrap;html=1;aspect=fixed;labelBorderColor=none;textShadow=0;rounded=1;strokeWidth=2;" vertex="1" parent="1">
          <mxGeometry x="740" y="500" width="80" height="80" as="geometry" />
        </mxCell>
        <mxCell id="MOPGVhFuVl4-QU0xAdFj-19" value="" style="edgeStyle=orthogonalEdgeStyle;rounded=0;orthogonalLoop=1;jettySize=auto;html=1;" edge="1" parent="1" source="MOPGVhFuVl4-QU0xAdFj-17" target="MOPGVhFuVl4-QU0xAdFj-13">
          <mxGeometry relative="1" as="geometry" />
        </mxCell>
        <mxCell id="MOPGVhFuVl4-QU0xAdFj-17" value="收费" style="whiteSpace=wrap;html=1;aspect=fixed;labelBorderColor=none;textShadow=0;rounded=1;strokeWidth=2;" vertex="1" parent="1">
          <mxGeometry x="600" y="380" width="80" height="80" as="geometry" />
        </mxCell>
        <mxCell id="MOPGVhFuVl4-QU0xAdFj-24" value="客户" style="whiteSpace=wrap;html=1;aspect=fixed;labelBorderColor=none;textShadow=0;rounded=1;strokeWidth=2;" vertex="1" parent="1">
          <mxGeometry x="900" y="500" width="80" height="80" as="geometry" />
        </mxCell>
      </root>
    </mxGraphModel>
  </diagram>
  <diagram id="DUO0k4tY-W5S0t0SGeYA" name="2.4患者监护系统的基本系统模型">
    <mxGraphModel dx="1125" dy="620" grid="1" gridSize="10" guides="1" tooltips="1" connect="1" arrows="1" fold="1" page="1" pageScale="1" pageWidth="827" pageHeight="1169" math="0" shadow="0">
      <root>
        <mxCell id="0" />
        <mxCell id="1" parent="0" />
        <mxCell id="ldqXXtWffIJRdQADX-Jq-1" value="病人" style="whiteSpace=wrap;html=1;aspect=fixed;" vertex="1" parent="1">
          <mxGeometry x="90" y="90" width="70" height="70" as="geometry" />
        </mxCell>
        <mxCell id="ldqXXtWffIJRdQADX-Jq-9" style="edgeStyle=orthogonalEdgeStyle;rounded=0;orthogonalLoop=1;jettySize=auto;html=1;exitX=1;exitY=0.5;exitDx=0;exitDy=0;entryX=0;entryY=0.5;entryDx=0;entryDy=0;" edge="1" parent="1" source="ldqXXtWffIJRdQADX-Jq-2" target="ldqXXtWffIJRdQADX-Jq-4">
          <mxGeometry relative="1" as="geometry" />
        </mxCell>
        <mxCell id="ldqXXtWffIJRdQADX-Jq-14" value="日期、时间" style="edgeLabel;html=1;align=center;verticalAlign=middle;resizable=0;points=[];" vertex="1" connectable="0" parent="ldqXXtWffIJRdQADX-Jq-9">
          <mxGeometry x="-0.0396" y="2" relative="1" as="geometry">
            <mxPoint y="-8" as="offset" />
          </mxGeometry>
        </mxCell>
        <mxCell id="ldqXXtWffIJRdQADX-Jq-2" value="时钟" style="whiteSpace=wrap;html=1;aspect=fixed;" vertex="1" parent="1">
          <mxGeometry x="90" y="195" width="70" height="70" as="geometry" />
        </mxCell>
        <mxCell id="ldqXXtWffIJRdQADX-Jq-3" value="护士" style="whiteSpace=wrap;html=1;aspect=fixed;" vertex="1" parent="1">
          <mxGeometry x="90" y="300" width="70" height="70" as="geometry" />
        </mxCell>
        <mxCell id="ldqXXtWffIJRdQADX-Jq-12" style="edgeStyle=orthogonalEdgeStyle;rounded=0;orthogonalLoop=1;jettySize=auto;html=1;exitX=1;exitY=0.5;exitDx=0;exitDy=0;entryX=0;entryY=0.5;entryDx=0;entryDy=0;" edge="1" parent="1" source="ldqXXtWffIJRdQADX-Jq-4" target="ldqXXtWffIJRdQADX-Jq-5">
          <mxGeometry relative="1" as="geometry" />
        </mxCell>
        <mxCell id="ldqXXtWffIJRdQADX-Jq-16" value="警告信息&lt;div&gt;病情报告&lt;/div&gt;" style="edgeLabel;html=1;align=center;verticalAlign=middle;resizable=0;points=[];" vertex="1" connectable="0" parent="ldqXXtWffIJRdQADX-Jq-12">
          <mxGeometry x="-0.1696" y="-1" relative="1" as="geometry">
            <mxPoint as="offset" />
          </mxGeometry>
        </mxCell>
        <mxCell id="ldqXXtWffIJRdQADX-Jq-4" value="患者监护系统" style="ellipse;whiteSpace=wrap;html=1;aspect=fixed;" vertex="1" parent="1">
          <mxGeometry x="290" y="180" width="100" height="100" as="geometry" />
        </mxCell>
        <mxCell id="ldqXXtWffIJRdQADX-Jq-5" value="护士" style="whiteSpace=wrap;html=1;aspect=fixed;" vertex="1" parent="1">
          <mxGeometry x="550" y="195" width="70" height="70" as="geometry" />
        </mxCell>
        <mxCell id="ldqXXtWffIJRdQADX-Jq-8" value="" style="edgeStyle=none;orthogonalLoop=1;jettySize=auto;html=1;rounded=0;exitX=1;exitY=0.5;exitDx=0;exitDy=0;entryX=0;entryY=0;entryDx=0;entryDy=0;" edge="1" parent="1" source="ldqXXtWffIJRdQADX-Jq-1" target="ldqXXtWffIJRdQADX-Jq-4">
          <mxGeometry width="80" relative="1" as="geometry">
            <mxPoint x="410" y="220" as="sourcePoint" />
            <mxPoint x="490" y="220" as="targetPoint" />
            <Array as="points" />
          </mxGeometry>
        </mxCell>
        <mxCell id="ldqXXtWffIJRdQADX-Jq-13" value="生理信息" style="edgeLabel;html=1;align=center;verticalAlign=middle;resizable=0;points=[];" vertex="1" connectable="0" parent="ldqXXtWffIJRdQADX-Jq-8">
          <mxGeometry x="-0.1444" y="-1" relative="1" as="geometry">
            <mxPoint x="18" y="-6" as="offset" />
          </mxGeometry>
        </mxCell>
        <mxCell id="ldqXXtWffIJRdQADX-Jq-11" value="" style="edgeStyle=none;orthogonalLoop=1;jettySize=auto;html=1;rounded=0;" edge="1" parent="1" target="ldqXXtWffIJRdQADX-Jq-4">
          <mxGeometry width="80" relative="1" as="geometry">
            <mxPoint x="160" y="334.5" as="sourcePoint" />
            <mxPoint x="240" y="334.5" as="targetPoint" />
            <Array as="points" />
          </mxGeometry>
        </mxCell>
        <mxCell id="ldqXXtWffIJRdQADX-Jq-15" value="要求报告" style="edgeLabel;html=1;align=center;verticalAlign=middle;resizable=0;points=[];" vertex="1" connectable="0" parent="ldqXXtWffIJRdQADX-Jq-11">
          <mxGeometry x="-0.0336" y="-1" relative="1" as="geometry">
            <mxPoint x="-6" y="-17" as="offset" />
          </mxGeometry>
        </mxCell>
      </root>
    </mxGraphModel>
  </diagram>
  <diagram id="Gm3Yo8_zQcrFH_0_D14G" name="2.4数据流图">
    <mxGraphModel dx="1125" dy="620" grid="1" gridSize="10" guides="1" tooltips="1" connect="1" arrows="1" fold="1" page="1" pageScale="1" pageWidth="827" pageHeight="1169" math="0" shadow="0">
      <root>
        <mxCell id="0" />
        <mxCell id="1" parent="0" />
        <mxCell id="NnX2klysJOqN8RVIicDf-20" style="edgeStyle=orthogonalEdgeStyle;rounded=0;orthogonalLoop=1;jettySize=auto;html=1;exitX=1;exitY=0.5;exitDx=0;exitDy=0;entryX=0;entryY=0.5;entryDx=0;entryDy=0;" edge="1" parent="1" source="NnX2klysJOqN8RVIicDf-1" target="NnX2klysJOqN8RVIicDf-9">
          <mxGeometry relative="1" as="geometry" />
        </mxCell>
        <mxCell id="NnX2klysJOqN8RVIicDf-36" value="生理信号" style="edgeLabel;html=1;align=center;verticalAlign=middle;resizable=0;points=[];" vertex="1" connectable="0" parent="NnX2klysJOqN8RVIicDf-20">
          <mxGeometry x="-0.0831" y="-1" relative="1" as="geometry">
            <mxPoint as="offset" />
          </mxGeometry>
        </mxCell>
        <mxCell id="NnX2klysJOqN8RVIicDf-1" value="病人" style="rounded=1;whiteSpace=wrap;html=1;absoluteArcSize=1;arcSize=14;strokeWidth=2;" vertex="1" parent="1">
          <mxGeometry x="60" y="60" width="50" height="50" as="geometry" />
        </mxCell>
        <mxCell id="NnX2klysJOqN8RVIicDf-21" style="edgeStyle=orthogonalEdgeStyle;rounded=0;orthogonalLoop=1;jettySize=auto;html=1;exitX=1;exitY=0.5;exitDx=0;exitDy=0;entryX=0;entryY=0.5;entryDx=0;entryDy=0;" edge="1" parent="1" source="NnX2klysJOqN8RVIicDf-3" target="NnX2klysJOqN8RVIicDf-15">
          <mxGeometry relative="1" as="geometry" />
        </mxCell>
        <mxCell id="NnX2klysJOqN8RVIicDf-37" value="日期&lt;div&gt;时间&lt;/div&gt;" style="edgeLabel;html=1;align=center;verticalAlign=middle;resizable=0;points=[];" vertex="1" connectable="0" parent="NnX2klysJOqN8RVIicDf-21">
          <mxGeometry x="-0.1558" relative="1" as="geometry">
            <mxPoint as="offset" />
          </mxGeometry>
        </mxCell>
        <mxCell id="NnX2klysJOqN8RVIicDf-3" value="时钟" style="rounded=1;whiteSpace=wrap;html=1;absoluteArcSize=1;arcSize=14;strokeWidth=2;" vertex="1" parent="1">
          <mxGeometry x="60" y="230" width="50" height="50" as="geometry" />
        </mxCell>
        <mxCell id="NnX2klysJOqN8RVIicDf-22" style="edgeStyle=orthogonalEdgeStyle;rounded=0;orthogonalLoop=1;jettySize=auto;html=1;exitX=1;exitY=0.5;exitDx=0;exitDy=0;entryX=0;entryY=0.5;entryDx=0;entryDy=0;" edge="1" parent="1" source="NnX2klysJOqN8RVIicDf-9" target="NnX2klysJOqN8RVIicDf-13">
          <mxGeometry relative="1" as="geometry" />
        </mxCell>
        <mxCell id="NnX2klysJOqN8RVIicDf-38" value="生理信号" style="edgeLabel;html=1;align=center;verticalAlign=middle;resizable=0;points=[];" vertex="1" connectable="0" parent="NnX2klysJOqN8RVIicDf-22">
          <mxGeometry x="0.0857" y="-1" relative="1" as="geometry">
            <mxPoint as="offset" />
          </mxGeometry>
        </mxCell>
        <mxCell id="NnX2klysJOqN8RVIicDf-33" style="edgeStyle=orthogonalEdgeStyle;rounded=0;orthogonalLoop=1;jettySize=auto;html=1;exitX=0.5;exitY=1;exitDx=0;exitDy=0;entryX=0.5;entryY=0;entryDx=0;entryDy=0;" edge="1" parent="1" source="NnX2klysJOqN8RVIicDf-9" target="NnX2klysJOqN8RVIicDf-15">
          <mxGeometry relative="1" as="geometry" />
        </mxCell>
        <mxCell id="NnX2klysJOqN8RVIicDf-9" value="1" style="swimlane;fontStyle=0;childLayout=stackLayout;horizontal=1;startSize=20;fillColor=#ffffff;horizontalStack=0;resizeParent=1;resizeParentMax=0;resizeLast=0;collapsible=0;marginBottom=0;swimlaneFillColor=#ffffff;" vertex="1" parent="1">
          <mxGeometry x="220" y="50" width="70" height="70" as="geometry" />
        </mxCell>
        <mxCell id="NnX2klysJOqN8RVIicDf-35" value="接收信号" style="text;strokeColor=none;align=center;fillColor=none;html=1;verticalAlign=middle;whiteSpace=wrap;rounded=0;" vertex="1" parent="NnX2klysJOqN8RVIicDf-9">
          <mxGeometry y="20" width="70" height="50" as="geometry" />
        </mxCell>
        <mxCell id="NnX2klysJOqN8RVIicDf-26" style="edgeStyle=orthogonalEdgeStyle;rounded=0;orthogonalLoop=1;jettySize=auto;html=1;exitX=0;exitY=0.5;exitDx=0;exitDy=0;entryX=1;entryY=0.5;entryDx=0;entryDy=0;" edge="1" parent="1" source="NnX2klysJOqN8RVIicDf-10" target="NnX2klysJOqN8RVIicDf-17">
          <mxGeometry relative="1" as="geometry" />
        </mxCell>
        <mxCell id="NnX2klysJOqN8RVIicDf-54" value="要求报告" style="edgeLabel;html=1;align=center;verticalAlign=middle;resizable=0;points=[];" vertex="1" connectable="0" parent="NnX2klysJOqN8RVIicDf-26">
          <mxGeometry x="0.0914" y="-2" relative="1" as="geometry">
            <mxPoint as="offset" />
          </mxGeometry>
        </mxCell>
        <mxCell id="NnX2klysJOqN8RVIicDf-10" value="护士" style="rounded=1;whiteSpace=wrap;html=1;absoluteArcSize=1;arcSize=14;strokeWidth=2;" vertex="1" parent="1">
          <mxGeometry x="710" y="230" width="50" height="50" as="geometry" />
        </mxCell>
        <mxCell id="NnX2klysJOqN8RVIicDf-11" value="护士" style="rounded=1;whiteSpace=wrap;html=1;absoluteArcSize=1;arcSize=14;strokeWidth=2;" vertex="1" parent="1">
          <mxGeometry x="710" y="60" width="50" height="50" as="geometry" />
        </mxCell>
        <mxCell id="NnX2klysJOqN8RVIicDf-24" style="edgeStyle=orthogonalEdgeStyle;rounded=0;orthogonalLoop=1;jettySize=auto;html=1;exitX=1;exitY=0.5;exitDx=0;exitDy=0;entryX=0;entryY=0.5;entryDx=0;entryDy=0;" edge="1" parent="1" source="NnX2klysJOqN8RVIicDf-13" target="NnX2klysJOqN8RVIicDf-14">
          <mxGeometry relative="1" as="geometry" />
        </mxCell>
        <mxCell id="NnX2klysJOqN8RVIicDf-39" value="危急病人信息" style="edgeLabel;html=1;align=center;verticalAlign=middle;resizable=0;points=[];" vertex="1" connectable="0" parent="NnX2klysJOqN8RVIicDf-24">
          <mxGeometry x="-0.1114" y="4" relative="1" as="geometry">
            <mxPoint as="offset" />
          </mxGeometry>
        </mxCell>
        <mxCell id="NnX2klysJOqN8RVIicDf-13" value="2" style="swimlane;fontStyle=0;childLayout=stackLayout;horizontal=1;startSize=20;fillColor=#ffffff;horizontalStack=0;resizeParent=1;resizeParentMax=0;resizeLast=0;collapsible=0;marginBottom=0;swimlaneFillColor=#ffffff;" vertex="1" parent="1">
          <mxGeometry x="370" y="50" width="70" height="70" as="geometry" />
        </mxCell>
        <mxCell id="NnX2klysJOqN8RVIicDf-49" value="分析信号" style="text;strokeColor=none;align=center;fillColor=none;html=1;verticalAlign=middle;whiteSpace=wrap;rounded=0;" vertex="1" parent="NnX2klysJOqN8RVIicDf-13">
          <mxGeometry y="20" width="70" height="50" as="geometry" />
        </mxCell>
        <mxCell id="NnX2klysJOqN8RVIicDf-25" style="edgeStyle=orthogonalEdgeStyle;rounded=0;orthogonalLoop=1;jettySize=auto;html=1;exitX=1;exitY=0.5;exitDx=0;exitDy=0;entryX=0;entryY=0.5;entryDx=0;entryDy=0;" edge="1" parent="1" source="NnX2klysJOqN8RVIicDf-14" target="NnX2klysJOqN8RVIicDf-11">
          <mxGeometry relative="1" as="geometry" />
        </mxCell>
        <mxCell id="NnX2klysJOqN8RVIicDf-40" value="警告信息" style="edgeLabel;html=1;align=center;verticalAlign=middle;resizable=0;points=[];" vertex="1" connectable="0" parent="NnX2klysJOqN8RVIicDf-25">
          <mxGeometry x="-0.0314" y="-2" relative="1" as="geometry">
            <mxPoint as="offset" />
          </mxGeometry>
        </mxCell>
        <mxCell id="NnX2klysJOqN8RVIicDf-14" value="3" style="swimlane;fontStyle=0;childLayout=stackLayout;horizontal=1;startSize=20;fillColor=#ffffff;horizontalStack=0;resizeParent=1;resizeParentMax=0;resizeLast=0;collapsible=0;marginBottom=0;swimlaneFillColor=#ffffff;" vertex="1" parent="1">
          <mxGeometry x="540" y="50" width="70" height="70" as="geometry" />
        </mxCell>
        <mxCell id="NnX2klysJOqN8RVIicDf-53" value="产生警告信息" style="text;strokeColor=none;align=center;fillColor=none;html=1;verticalAlign=middle;whiteSpace=wrap;rounded=0;" vertex="1" parent="NnX2klysJOqN8RVIicDf-14">
          <mxGeometry y="20" width="70" height="50" as="geometry" />
        </mxCell>
        <mxCell id="NnX2klysJOqN8RVIicDf-15" value="4" style="swimlane;fontStyle=0;childLayout=stackLayout;horizontal=1;startSize=20;fillColor=#ffffff;horizontalStack=0;resizeParent=1;resizeParentMax=0;resizeLast=0;collapsible=0;marginBottom=0;swimlaneFillColor=#ffffff;" vertex="1" parent="1">
          <mxGeometry x="220" y="220" width="70" height="70" as="geometry" />
        </mxCell>
        <mxCell id="NnX2klysJOqN8RVIicDf-34" value="定时取样&lt;div&gt;生理信号&lt;/div&gt;" style="text;strokeColor=none;align=center;fillColor=none;html=1;verticalAlign=middle;whiteSpace=wrap;rounded=0;" vertex="1" parent="NnX2klysJOqN8RVIicDf-15">
          <mxGeometry y="20" width="70" height="50" as="geometry" />
        </mxCell>
        <mxCell id="NnX2klysJOqN8RVIicDf-16" value="5" style="swimlane;fontStyle=0;childLayout=stackLayout;horizontal=1;startSize=20;fillColor=#ffffff;horizontalStack=0;resizeParent=1;resizeParentMax=0;resizeLast=0;collapsible=0;marginBottom=0;swimlaneFillColor=#ffffff;" vertex="1" parent="1">
          <mxGeometry x="370" y="220" width="70" height="70" as="geometry" />
        </mxCell>
        <mxCell id="NnX2klysJOqN8RVIicDf-45" value="更新日志" style="text;strokeColor=none;align=center;fillColor=none;html=1;verticalAlign=middle;whiteSpace=wrap;rounded=0;" vertex="1" parent="NnX2klysJOqN8RVIicDf-16">
          <mxGeometry y="20" width="70" height="50" as="geometry" />
        </mxCell>
        <mxCell id="NnX2klysJOqN8RVIicDf-17" value="6" style="swimlane;fontStyle=0;childLayout=stackLayout;horizontal=1;startSize=20;fillColor=#ffffff;horizontalStack=0;resizeParent=1;resizeParentMax=0;resizeLast=0;collapsible=0;marginBottom=0;swimlaneFillColor=#ffffff;" vertex="1" parent="1">
          <mxGeometry x="540" y="220" width="70" height="70" as="geometry" />
        </mxCell>
        <mxCell id="NnX2klysJOqN8RVIicDf-51" value="产生病情&lt;div&gt;报告&lt;/div&gt;" style="text;strokeColor=none;align=center;fillColor=none;html=1;verticalAlign=middle;whiteSpace=wrap;rounded=0;" vertex="1" parent="NnX2klysJOqN8RVIicDf-17">
          <mxGeometry y="20" width="70" height="50" as="geometry" />
        </mxCell>
        <mxCell id="NnX2klysJOqN8RVIicDf-32" style="edgeStyle=orthogonalEdgeStyle;rounded=0;orthogonalLoop=1;jettySize=auto;html=1;exitX=0.647;exitY=-0.004;exitDx=0;exitDy=0;entryX=0.5;entryY=1;entryDx=0;entryDy=0;exitPerimeter=0;" edge="1" parent="1" source="NnX2klysJOqN8RVIicDf-18" target="NnX2klysJOqN8RVIicDf-13">
          <mxGeometry relative="1" as="geometry" />
        </mxCell>
        <mxCell id="NnX2klysJOqN8RVIicDf-18" value="D1" style="html=1;dashed=0;whiteSpace=wrap;shape=mxgraph.dfd.dataStoreID;align=left;spacingLeft=3;points=[[0,0],[0.5,0],[1,0],[0,0.5],[1,0.5],[0,1],[0.5,1],[1,1]];" vertex="1" parent="1">
          <mxGeometry x="340" y="160" width="100" height="30" as="geometry" />
        </mxCell>
        <mxCell id="NnX2klysJOqN8RVIicDf-19" value="D2" style="html=1;dashed=0;whiteSpace=wrap;shape=mxgraph.dfd.dataStoreID;align=left;spacingLeft=3;points=[[0,0],[0.5,0],[1,0],[0,0.5],[1,0.5],[0,1],[0.5,1],[1,1]];" vertex="1" parent="1">
          <mxGeometry x="440" y="350" width="100" height="30" as="geometry" />
        </mxCell>
        <mxCell id="NnX2klysJOqN8RVIicDf-28" value="" style="edgeStyle=none;orthogonalLoop=1;jettySize=auto;html=1;rounded=0;exitX=1;exitY=0.5;exitDx=0;exitDy=0;entryX=0.357;entryY=-0.045;entryDx=0;entryDy=0;entryPerimeter=0;" edge="1" parent="1" source="NnX2klysJOqN8RVIicDf-16" target="NnX2klysJOqN8RVIicDf-19">
          <mxGeometry width="80" relative="1" as="geometry">
            <mxPoint x="410" y="270" as="sourcePoint" />
            <mxPoint x="490" y="270" as="targetPoint" />
            <Array as="points" />
          </mxGeometry>
        </mxCell>
        <mxCell id="NnX2klysJOqN8RVIicDf-43" value="日志数据" style="edgeLabel;html=1;align=center;verticalAlign=middle;resizable=0;points=[];" vertex="1" connectable="0" parent="NnX2klysJOqN8RVIicDf-28">
          <mxGeometry x="0.002" y="1" relative="1" as="geometry">
            <mxPoint as="offset" />
          </mxGeometry>
        </mxCell>
        <mxCell id="NnX2klysJOqN8RVIicDf-29" value="" style="edgeStyle=none;orthogonalLoop=1;jettySize=auto;html=1;rounded=0;exitX=0.7;exitY=0;exitDx=0;exitDy=0;exitPerimeter=0;entryX=0;entryY=0.5;entryDx=0;entryDy=0;" edge="1" parent="1" source="NnX2klysJOqN8RVIicDf-19" target="NnX2klysJOqN8RVIicDf-17">
          <mxGeometry width="80" relative="1" as="geometry">
            <mxPoint x="410" y="270" as="sourcePoint" />
            <mxPoint x="490" y="270" as="targetPoint" />
            <Array as="points" />
          </mxGeometry>
        </mxCell>
        <mxCell id="NnX2klysJOqN8RVIicDf-44" value="日志数据" style="edgeLabel;html=1;align=center;verticalAlign=middle;resizable=0;points=[];" vertex="1" connectable="0" parent="NnX2klysJOqN8RVIicDf-29">
          <mxGeometry x="-0.0206" y="-1" relative="1" as="geometry">
            <mxPoint as="offset" />
          </mxGeometry>
        </mxCell>
        <mxCell id="NnX2klysJOqN8RVIicDf-31" value="" style="edgeStyle=none;orthogonalLoop=1;jettySize=auto;html=1;rounded=0;exitX=0.5;exitY=0;exitDx=0;exitDy=0;entryX=0;entryY=0.75;entryDx=0;entryDy=0;" edge="1" parent="1" source="NnX2klysJOqN8RVIicDf-17" target="NnX2klysJOqN8RVIicDf-11">
          <mxGeometry width="80" relative="1" as="geometry">
            <mxPoint x="590" y="174.5" as="sourcePoint" />
            <mxPoint x="670" y="174.5" as="targetPoint" />
            <Array as="points" />
          </mxGeometry>
        </mxCell>
        <mxCell id="NnX2klysJOqN8RVIicDf-41" value="病情报告" style="edgeLabel;html=1;align=center;verticalAlign=middle;resizable=0;points=[];" vertex="1" connectable="0" parent="NnX2klysJOqN8RVIicDf-31">
          <mxGeometry x="-0.0158" relative="1" as="geometry">
            <mxPoint as="offset" />
          </mxGeometry>
        </mxCell>
        <mxCell id="NnX2klysJOqN8RVIicDf-47" style="edgeStyle=orthogonalEdgeStyle;rounded=0;orthogonalLoop=1;jettySize=auto;html=1;exitX=1;exitY=0.25;exitDx=0;exitDy=0;entryX=0;entryY=0.25;entryDx=0;entryDy=0;" edge="1" parent="1" source="NnX2klysJOqN8RVIicDf-34" target="NnX2klysJOqN8RVIicDf-45">
          <mxGeometry relative="1" as="geometry" />
        </mxCell>
        <mxCell id="NnX2klysJOqN8RVIicDf-48" value="定时的&lt;div&gt;生理信号&lt;/div&gt;" style="edgeLabel;html=1;align=center;verticalAlign=middle;resizable=0;points=[];" vertex="1" connectable="0" parent="NnX2klysJOqN8RVIicDf-47">
          <mxGeometry x="-0.0393" relative="1" as="geometry">
            <mxPoint as="offset" />
          </mxGeometry>
        </mxCell>
        <mxCell id="NnX2klysJOqN8RVIicDf-50" value="患者安全范围" style="text;strokeColor=none;align=center;fillColor=none;html=1;verticalAlign=middle;whiteSpace=wrap;rounded=0;" vertex="1" parent="1">
          <mxGeometry x="375" y="160" width="60" height="30" as="geometry" />
        </mxCell>
        <mxCell id="NnX2klysJOqN8RVIicDf-55" value="患者日志" style="text;strokeColor=none;align=center;fillColor=none;html=1;verticalAlign=middle;whiteSpace=wrap;rounded=0;" vertex="1" parent="1">
          <mxGeometry x="470" y="350" width="60" height="30" as="geometry" />
        </mxCell>
      </root>
    </mxGraphModel>
  </diagram>
  <diagram id="MmJMWhK2cDljKSSmXTuS" name="3.3数据流图">
    <mxGraphModel dx="1125" dy="620" grid="1" gridSize="10" guides="1" tooltips="1" connect="1" arrows="1" fold="1" page="1" pageScale="1" pageWidth="827" pageHeight="1169" math="0" shadow="0">
      <root>
        <mxCell id="0" />
        <mxCell id="1" parent="0" />
        <mxCell id="bWTu-Hi96LD0UXtdhBKL-3" value="储户" style="rounded=1;whiteSpace=wrap;html=1;absoluteArcSize=1;arcSize=14;strokeWidth=2;" vertex="1" parent="1">
          <mxGeometry x="70" y="190" width="50" height="50" as="geometry" />
        </mxCell>
        <mxCell id="bWTu-Hi96LD0UXtdhBKL-4" value="储户" style="rounded=1;whiteSpace=wrap;html=1;absoluteArcSize=1;arcSize=14;strokeWidth=2;" vertex="1" parent="1">
          <mxGeometry x="620" y="60" width="50" height="50" as="geometry" />
        </mxCell>
        <mxCell id="bWTu-Hi96LD0UXtdhBKL-15" style="edgeStyle=orthogonalEdgeStyle;rounded=0;orthogonalLoop=1;jettySize=auto;html=1;exitX=1;exitY=0.5;exitDx=0;exitDy=0;entryX=0;entryY=0.5;entryDx=0;entryDy=0;" edge="1" parent="1" source="bWTu-Hi96LD0UXtdhBKL-5" target="bWTu-Hi96LD0UXtdhBKL-9">
          <mxGeometry relative="1" as="geometry" />
        </mxCell>
        <mxCell id="bWTu-Hi96LD0UXtdhBKL-31" value="存款信息" style="edgeLabel;html=1;align=center;verticalAlign=middle;resizable=0;points=[];" vertex="1" connectable="0" parent="bWTu-Hi96LD0UXtdhBKL-15">
          <mxGeometry x="-0.1382" y="-2" relative="1" as="geometry">
            <mxPoint as="offset" />
          </mxGeometry>
        </mxCell>
        <mxCell id="bWTu-Hi96LD0UXtdhBKL-5" value="1" style="swimlane;fontStyle=0;childLayout=stackLayout;horizontal=1;startSize=20;fillColor=#ffffff;horizontalStack=0;resizeParent=1;resizeParentMax=0;resizeLast=0;collapsible=0;marginBottom=0;swimlaneFillColor=#ffffff;" vertex="1" parent="1">
          <mxGeometry x="220" y="50" width="70" height="70" as="geometry" />
        </mxCell>
        <mxCell id="bWTu-Hi96LD0UXtdhBKL-22" value="记录存&lt;div&gt;储信息&lt;/div&gt;" style="text;strokeColor=none;align=center;fillColor=none;html=1;verticalAlign=middle;whiteSpace=wrap;rounded=0;" vertex="1" parent="bWTu-Hi96LD0UXtdhBKL-5">
          <mxGeometry y="20" width="70" height="50" as="geometry" />
        </mxCell>
        <mxCell id="bWTu-Hi96LD0UXtdhBKL-6" value="5" style="swimlane;fontStyle=0;childLayout=stackLayout;horizontal=1;startSize=20;fillColor=#ffffff;horizontalStack=0;resizeParent=1;resizeParentMax=0;resizeLast=0;collapsible=0;marginBottom=0;swimlaneFillColor=#ffffff;" vertex="1" parent="1">
          <mxGeometry x="550" y="320" width="70" height="70" as="geometry" />
        </mxCell>
        <mxCell id="bWTu-Hi96LD0UXtdhBKL-25" value="打印利息存单" style="text;strokeColor=none;align=center;fillColor=none;html=1;verticalAlign=middle;whiteSpace=wrap;rounded=0;" vertex="1" parent="bWTu-Hi96LD0UXtdhBKL-6">
          <mxGeometry y="20" width="70" height="50" as="geometry" />
        </mxCell>
        <mxCell id="bWTu-Hi96LD0UXtdhBKL-21" style="edgeStyle=orthogonalEdgeStyle;rounded=0;orthogonalLoop=1;jettySize=auto;html=1;exitX=1;exitY=0.5;exitDx=0;exitDy=0;entryX=0;entryY=0.5;entryDx=0;entryDy=0;" edge="1" parent="1" source="bWTu-Hi96LD0UXtdhBKL-7" target="bWTu-Hi96LD0UXtdhBKL-6">
          <mxGeometry relative="1" as="geometry" />
        </mxCell>
        <mxCell id="bWTu-Hi96LD0UXtdhBKL-36" value="利息指" style="edgeLabel;html=1;align=center;verticalAlign=middle;resizable=0;points=[];" vertex="1" connectable="0" parent="bWTu-Hi96LD0UXtdhBKL-21">
          <mxGeometry x="-0.1683" y="1" relative="1" as="geometry">
            <mxPoint as="offset" />
          </mxGeometry>
        </mxCell>
        <mxCell id="bWTu-Hi96LD0UXtdhBKL-7" value="4" style="swimlane;fontStyle=0;childLayout=stackLayout;horizontal=1;startSize=20;fillColor=#ffffff;horizontalStack=0;resizeParent=1;resizeParentMax=0;resizeLast=0;collapsible=0;marginBottom=0;swimlaneFillColor=#ffffff;" vertex="1" parent="1">
          <mxGeometry x="400" y="320" width="60" height="70" as="geometry" />
        </mxCell>
        <mxCell id="bWTu-Hi96LD0UXtdhBKL-24" value="计算&lt;div&gt;利息&lt;/div&gt;" style="text;strokeColor=none;align=center;fillColor=none;html=1;verticalAlign=middle;whiteSpace=wrap;rounded=0;" vertex="1" parent="bWTu-Hi96LD0UXtdhBKL-7">
          <mxGeometry y="20" width="60" height="50" as="geometry" />
        </mxCell>
        <mxCell id="bWTu-Hi96LD0UXtdhBKL-20" style="edgeStyle=orthogonalEdgeStyle;rounded=0;orthogonalLoop=1;jettySize=auto;html=1;exitX=1;exitY=0.5;exitDx=0;exitDy=0;entryX=0;entryY=0.5;entryDx=0;entryDy=0;" edge="1" parent="1" source="bWTu-Hi96LD0UXtdhBKL-8" target="bWTu-Hi96LD0UXtdhBKL-7">
          <mxGeometry relative="1" as="geometry" />
        </mxCell>
        <mxCell id="bWTu-Hi96LD0UXtdhBKL-35" value="存款信息" style="edgeLabel;html=1;align=center;verticalAlign=middle;resizable=0;points=[];" vertex="1" connectable="0" parent="bWTu-Hi96LD0UXtdhBKL-20">
          <mxGeometry x="-0.0762" y="1" relative="1" as="geometry">
            <mxPoint as="offset" />
          </mxGeometry>
        </mxCell>
        <mxCell id="bWTu-Hi96LD0UXtdhBKL-8" value="3" style="swimlane;fontStyle=0;childLayout=stackLayout;horizontal=1;startSize=20;fillColor=#ffffff;horizontalStack=0;resizeParent=1;resizeParentMax=0;resizeLast=0;collapsible=0;marginBottom=0;swimlaneFillColor=#ffffff;" vertex="1" parent="1">
          <mxGeometry x="220" y="320" width="60" height="70" as="geometry" />
        </mxCell>
        <mxCell id="bWTu-Hi96LD0UXtdhBKL-23" value="核对&lt;div&gt;密码&lt;/div&gt;" style="text;strokeColor=none;align=center;fillColor=none;html=1;verticalAlign=middle;whiteSpace=wrap;rounded=0;" vertex="1" parent="bWTu-Hi96LD0UXtdhBKL-8">
          <mxGeometry y="20" width="60" height="50" as="geometry" />
        </mxCell>
        <mxCell id="bWTu-Hi96LD0UXtdhBKL-16" style="edgeStyle=orthogonalEdgeStyle;rounded=0;orthogonalLoop=1;jettySize=auto;html=1;exitX=1;exitY=0.5;exitDx=0;exitDy=0;" edge="1" parent="1" source="bWTu-Hi96LD0UXtdhBKL-9" target="bWTu-Hi96LD0UXtdhBKL-4">
          <mxGeometry relative="1" as="geometry" />
        </mxCell>
        <mxCell id="bWTu-Hi96LD0UXtdhBKL-32" value="存款存单" style="edgeLabel;html=1;align=center;verticalAlign=middle;resizable=0;points=[];" vertex="1" connectable="0" parent="bWTu-Hi96LD0UXtdhBKL-16">
          <mxGeometry x="-0.0378" y="2" relative="1" as="geometry">
            <mxPoint as="offset" />
          </mxGeometry>
        </mxCell>
        <mxCell id="bWTu-Hi96LD0UXtdhBKL-9" value="2" style="swimlane;fontStyle=0;childLayout=stackLayout;horizontal=1;startSize=20;fillColor=#ffffff;horizontalStack=0;resizeParent=1;resizeParentMax=0;resizeLast=0;collapsible=0;marginBottom=0;swimlaneFillColor=#ffffff;" vertex="1" parent="1">
          <mxGeometry x="414" y="50" width="70" height="70" as="geometry" />
        </mxCell>
        <mxCell id="bWTu-Hi96LD0UXtdhBKL-26" value="打印存款存单" style="text;strokeColor=none;align=center;fillColor=none;html=1;verticalAlign=middle;whiteSpace=wrap;rounded=0;" vertex="1" parent="bWTu-Hi96LD0UXtdhBKL-9">
          <mxGeometry y="20" width="70" height="50" as="geometry" />
        </mxCell>
        <mxCell id="bWTu-Hi96LD0UXtdhBKL-10" value="D1" style="html=1;dashed=0;whiteSpace=wrap;shape=mxgraph.dfd.dataStoreID;align=left;spacingLeft=3;points=[[0,0],[0.5,0],[1,0],[0,0.5],[1,0.5],[0,1],[0.5,1],[1,1]];" vertex="1" parent="1">
          <mxGeometry x="230" y="210" width="100" height="30" as="geometry" />
        </mxCell>
        <mxCell id="bWTu-Hi96LD0UXtdhBKL-12" value="" style="edgeStyle=none;orthogonalLoop=1;jettySize=auto;html=1;rounded=0;exitX=0.5;exitY=1;exitDx=0;exitDy=0;entryX=0.2;entryY=0;entryDx=0;entryDy=0;entryPerimeter=0;" edge="1" parent="1" source="bWTu-Hi96LD0UXtdhBKL-5" target="bWTu-Hi96LD0UXtdhBKL-10">
          <mxGeometry width="80" relative="1" as="geometry">
            <mxPoint x="240" y="150" as="sourcePoint" />
            <mxPoint x="320" y="150" as="targetPoint" />
            <Array as="points" />
          </mxGeometry>
        </mxCell>
        <mxCell id="bWTu-Hi96LD0UXtdhBKL-33" value="存款信息" style="edgeLabel;html=1;align=center;verticalAlign=middle;resizable=0;points=[];" vertex="1" connectable="0" parent="bWTu-Hi96LD0UXtdhBKL-12">
          <mxGeometry x="0.0261" relative="1" as="geometry">
            <mxPoint as="offset" />
          </mxGeometry>
        </mxCell>
        <mxCell id="bWTu-Hi96LD0UXtdhBKL-13" value="" style="edgeStyle=none;orthogonalLoop=1;jettySize=auto;html=1;rounded=0;exitX=1;exitY=0;exitDx=0;exitDy=0;" edge="1" parent="1" source="bWTu-Hi96LD0UXtdhBKL-3">
          <mxGeometry width="80" relative="1" as="geometry">
            <mxPoint x="90" y="130" as="sourcePoint" />
            <mxPoint x="220" y="80" as="targetPoint" />
            <Array as="points" />
          </mxGeometry>
        </mxCell>
        <mxCell id="bWTu-Hi96LD0UXtdhBKL-29" value="存款单" style="edgeLabel;html=1;align=center;verticalAlign=middle;resizable=0;points=[];" vertex="1" connectable="0" parent="bWTu-Hi96LD0UXtdhBKL-13">
          <mxGeometry x="-0.2929" relative="1" as="geometry">
            <mxPoint as="offset" />
          </mxGeometry>
        </mxCell>
        <mxCell id="bWTu-Hi96LD0UXtdhBKL-14" value="" style="edgeStyle=none;orthogonalLoop=1;jettySize=auto;html=1;rounded=0;exitX=0.179;exitY=0.991;exitDx=0;exitDy=0;exitPerimeter=0;entryX=0.5;entryY=0;entryDx=0;entryDy=0;" edge="1" parent="1" source="bWTu-Hi96LD0UXtdhBKL-10" target="bWTu-Hi96LD0UXtdhBKL-8">
          <mxGeometry width="80" relative="1" as="geometry">
            <mxPoint x="410" y="200" as="sourcePoint" />
            <mxPoint x="490" y="200" as="targetPoint" />
            <Array as="points" />
          </mxGeometry>
        </mxCell>
        <mxCell id="bWTu-Hi96LD0UXtdhBKL-34" value="存款信息" style="edgeLabel;html=1;align=center;verticalAlign=middle;resizable=0;points=[];" vertex="1" connectable="0" parent="bWTu-Hi96LD0UXtdhBKL-14">
          <mxGeometry x="-0.1178" y="-1" relative="1" as="geometry">
            <mxPoint as="offset" />
          </mxGeometry>
        </mxCell>
        <mxCell id="bWTu-Hi96LD0UXtdhBKL-19" value="" style="edgeStyle=none;orthogonalLoop=1;jettySize=auto;html=1;rounded=0;exitX=0.5;exitY=0;exitDx=0;exitDy=0;" edge="1" parent="1" source="bWTu-Hi96LD0UXtdhBKL-6">
          <mxGeometry width="80" relative="1" as="geometry">
            <mxPoint x="410" y="200" as="sourcePoint" />
            <mxPoint x="580" y="90" as="targetPoint" />
            <Array as="points" />
          </mxGeometry>
        </mxCell>
        <mxCell id="bWTu-Hi96LD0UXtdhBKL-28" value="" style="edgeStyle=none;orthogonalLoop=1;jettySize=auto;html=1;rounded=0;exitX=1;exitY=1;exitDx=0;exitDy=0;entryX=0;entryY=0.5;entryDx=0;entryDy=0;" edge="1" parent="1" source="bWTu-Hi96LD0UXtdhBKL-3" target="bWTu-Hi96LD0UXtdhBKL-23">
          <mxGeometry width="80" relative="1" as="geometry">
            <mxPoint x="410" y="200" as="sourcePoint" />
            <mxPoint x="490" y="200" as="targetPoint" />
            <Array as="points" />
          </mxGeometry>
        </mxCell>
        <mxCell id="bWTu-Hi96LD0UXtdhBKL-30" value="取款单" style="edgeLabel;html=1;align=center;verticalAlign=middle;resizable=0;points=[];" vertex="1" connectable="0" parent="bWTu-Hi96LD0UXtdhBKL-28">
          <mxGeometry x="-0.0935" y="-2" relative="1" as="geometry">
            <mxPoint x="-1" as="offset" />
          </mxGeometry>
        </mxCell>
        <mxCell id="bWTu-Hi96LD0UXtdhBKL-37" value="存款信息" style="text;strokeColor=none;align=center;fillColor=none;html=1;verticalAlign=middle;whiteSpace=wrap;rounded=0;" vertex="1" parent="1">
          <mxGeometry x="260" y="210" width="60" height="30" as="geometry" />
        </mxCell>
      </root>
    </mxGraphModel>
  </diagram>
  <diagram id="VeS1fUkeavkFVrRiQrez" name="3.3E-R图">
    <mxGraphModel dx="1125" dy="620" grid="1" gridSize="10" guides="1" tooltips="1" connect="1" arrows="1" fold="1" page="1" pageScale="1" pageWidth="827" pageHeight="1169" math="0" shadow="0">
      <root>
        <mxCell id="0" />
        <mxCell id="1" parent="0" />
        <mxCell id="106tLiyZjWen6DGDPSIR-1" value="住址" style="rounded=1;whiteSpace=wrap;html=1;" vertex="1" parent="1">
          <mxGeometry x="80" y="120" width="70" height="30" as="geometry" />
        </mxCell>
        <mxCell id="106tLiyZjWen6DGDPSIR-3" value="身份证号码" style="rounded=1;whiteSpace=wrap;html=1;" vertex="1" parent="1">
          <mxGeometry x="280" y="120" width="100" height="30" as="geometry" />
        </mxCell>
        <mxCell id="106tLiyZjWen6DGDPSIR-4" value="地址" style="rounded=1;whiteSpace=wrap;html=1;" vertex="1" parent="1">
          <mxGeometry x="545" y="120" width="70" height="30" as="geometry" />
        </mxCell>
        <mxCell id="106tLiyZjWen6DGDPSIR-5" value="电话号码" style="rounded=1;whiteSpace=wrap;html=1;" vertex="1" parent="1">
          <mxGeometry x="650" y="210" width="80" height="30" as="geometry" />
        </mxCell>
        <mxCell id="106tLiyZjWen6DGDPSIR-6" value="名称" style="rounded=1;whiteSpace=wrap;html=1;" vertex="1" parent="1">
          <mxGeometry x="420" y="210" width="70" height="30" as="geometry" />
        </mxCell>
        <mxCell id="106tLiyZjWen6DGDPSIR-7" value="利率" style="rounded=1;whiteSpace=wrap;html=1;" vertex="1" parent="1">
          <mxGeometry x="440" y="510" width="70" height="30" as="geometry" />
        </mxCell>
        <mxCell id="106tLiyZjWen6DGDPSIR-8" value="类型" style="rounded=1;whiteSpace=wrap;html=1;" vertex="1" parent="1">
          <mxGeometry x="240" y="510" width="70" height="30" as="geometry" />
        </mxCell>
        <mxCell id="106tLiyZjWen6DGDPSIR-9" value="密码" style="rounded=1;whiteSpace=wrap;html=1;" vertex="1" parent="1">
          <mxGeometry x="500" y="420" width="70" height="30" as="geometry" />
        </mxCell>
        <mxCell id="106tLiyZjWen6DGDPSIR-10" value="到期日期" style="rounded=1;whiteSpace=wrap;html=1;" vertex="1" parent="1">
          <mxGeometry x="330" y="420" width="80" height="30" as="geometry" />
        </mxCell>
        <mxCell id="106tLiyZjWen6DGDPSIR-11" value="数额" style="rounded=1;whiteSpace=wrap;html=1;" vertex="1" parent="1">
          <mxGeometry x="190" y="420" width="70" height="30" as="geometry" />
        </mxCell>
        <mxCell id="106tLiyZjWen6DGDPSIR-12" value="存取款" style="rhombus;whiteSpace=wrap;html=1;" vertex="1" parent="1">
          <mxGeometry x="310" y="315" width="110" height="50" as="geometry" />
        </mxCell>
        <mxCell id="106tLiyZjWen6DGDPSIR-13" value="储户" style="rounded=0;whiteSpace=wrap;html=1;" vertex="1" parent="1">
          <mxGeometry x="125" y="320" width="105" height="40" as="geometry" />
        </mxCell>
        <mxCell id="106tLiyZjWen6DGDPSIR-14" value="储蓄所" style="rounded=0;whiteSpace=wrap;html=1;" vertex="1" parent="1">
          <mxGeometry x="530" y="320" width="100" height="40" as="geometry" />
        </mxCell>
        <mxCell id="106tLiyZjWen6DGDPSIR-16" value="电话号码" style="rounded=1;whiteSpace=wrap;html=1;" vertex="1" parent="1">
          <mxGeometry x="132.5" y="210" width="90" height="30" as="geometry" />
        </mxCell>
        <mxCell id="106tLiyZjWen6DGDPSIR-18" value="姓名" style="rounded=1;whiteSpace=wrap;html=1;" vertex="1" parent="1">
          <mxGeometry x="30" y="210" width="70" height="30" as="geometry" />
        </mxCell>
        <mxCell id="106tLiyZjWen6DGDPSIR-22" value="" style="endArrow=none;html=1;rounded=0;entryX=0.25;entryY=1;entryDx=0;entryDy=0;exitX=0.25;exitY=0;exitDx=0;exitDy=0;" edge="1" parent="1" source="106tLiyZjWen6DGDPSIR-13" target="106tLiyZjWen6DGDPSIR-1">
          <mxGeometry width="50" height="50" relative="1" as="geometry">
            <mxPoint x="130" y="230" as="sourcePoint" />
            <mxPoint x="180" y="180" as="targetPoint" />
          </mxGeometry>
        </mxCell>
        <mxCell id="106tLiyZjWen6DGDPSIR-23" value="" style="endArrow=none;html=1;rounded=0;entryX=0.5;entryY=1;entryDx=0;entryDy=0;exitX=0;exitY=0;exitDx=0;exitDy=0;" edge="1" parent="1" source="106tLiyZjWen6DGDPSIR-13" target="106tLiyZjWen6DGDPSIR-18">
          <mxGeometry width="50" height="50" relative="1" as="geometry">
            <mxPoint x="40" y="330" as="sourcePoint" />
            <mxPoint x="90" y="280" as="targetPoint" />
          </mxGeometry>
        </mxCell>
        <mxCell id="106tLiyZjWen6DGDPSIR-24" value="" style="endArrow=none;html=1;rounded=0;entryX=0.5;entryY=1;entryDx=0;entryDy=0;" edge="1" parent="1" target="106tLiyZjWen6DGDPSIR-16">
          <mxGeometry width="50" height="50" relative="1" as="geometry">
            <mxPoint x="180" y="320" as="sourcePoint" />
            <mxPoint x="230" y="270" as="targetPoint" />
          </mxGeometry>
        </mxCell>
        <mxCell id="106tLiyZjWen6DGDPSIR-26" value="" style="endArrow=none;html=1;rounded=0;exitX=1;exitY=0.5;exitDx=0;exitDy=0;entryX=0;entryY=0.5;entryDx=0;entryDy=0;" edge="1" parent="1" source="106tLiyZjWen6DGDPSIR-13" target="106tLiyZjWen6DGDPSIR-12">
          <mxGeometry width="50" height="50" relative="1" as="geometry">
            <mxPoint x="310" y="300" as="sourcePoint" />
            <mxPoint x="360" y="250" as="targetPoint" />
          </mxGeometry>
        </mxCell>
        <mxCell id="106tLiyZjWen6DGDPSIR-37" value="M" style="edgeLabel;html=1;align=center;verticalAlign=middle;resizable=0;points=[];" vertex="1" connectable="0" parent="106tLiyZjWen6DGDPSIR-26">
          <mxGeometry x="0.1857" y="4" relative="1" as="geometry">
            <mxPoint x="-2" y="-6" as="offset" />
          </mxGeometry>
        </mxCell>
        <mxCell id="106tLiyZjWen6DGDPSIR-27" value="" style="endArrow=none;html=1;rounded=0;exitX=1;exitY=0;exitDx=0;exitDy=0;entryX=0.5;entryY=1;entryDx=0;entryDy=0;" edge="1" parent="1" source="106tLiyZjWen6DGDPSIR-13" target="106tLiyZjWen6DGDPSIR-3">
          <mxGeometry width="50" height="50" relative="1" as="geometry">
            <mxPoint x="330" y="250" as="sourcePoint" />
            <mxPoint x="380" y="200" as="targetPoint" />
          </mxGeometry>
        </mxCell>
        <mxCell id="106tLiyZjWen6DGDPSIR-28" value="" style="endArrow=none;html=1;rounded=0;exitX=1;exitY=0.5;exitDx=0;exitDy=0;entryX=0;entryY=0.5;entryDx=0;entryDy=0;" edge="1" parent="1" source="106tLiyZjWen6DGDPSIR-12" target="106tLiyZjWen6DGDPSIR-14">
          <mxGeometry width="50" height="50" relative="1" as="geometry">
            <mxPoint x="490" y="310" as="sourcePoint" />
            <mxPoint x="540" y="260" as="targetPoint" />
          </mxGeometry>
        </mxCell>
        <mxCell id="106tLiyZjWen6DGDPSIR-29" value="" style="endArrow=none;html=1;rounded=0;entryX=0.5;entryY=1;entryDx=0;entryDy=0;exitX=0.5;exitY=0;exitDx=0;exitDy=0;" edge="1" parent="1" source="106tLiyZjWen6DGDPSIR-14" target="106tLiyZjWen6DGDPSIR-4">
          <mxGeometry width="50" height="50" relative="1" as="geometry">
            <mxPoint x="570" y="270" as="sourcePoint" />
            <mxPoint x="620" y="220" as="targetPoint" />
          </mxGeometry>
        </mxCell>
        <mxCell id="106tLiyZjWen6DGDPSIR-30" value="" style="endArrow=none;html=1;rounded=0;exitX=0.75;exitY=0;exitDx=0;exitDy=0;entryX=0.5;entryY=1;entryDx=0;entryDy=0;" edge="1" parent="1" source="106tLiyZjWen6DGDPSIR-14" target="106tLiyZjWen6DGDPSIR-5">
          <mxGeometry width="50" height="50" relative="1" as="geometry">
            <mxPoint x="615" y="315" as="sourcePoint" />
            <mxPoint x="665" y="265" as="targetPoint" />
          </mxGeometry>
        </mxCell>
        <mxCell id="106tLiyZjWen6DGDPSIR-31" value="" style="endArrow=none;html=1;rounded=0;entryX=0.5;entryY=1;entryDx=0;entryDy=0;exitX=0.183;exitY=-0.07;exitDx=0;exitDy=0;exitPerimeter=0;" edge="1" parent="1" source="106tLiyZjWen6DGDPSIR-14" target="106tLiyZjWen6DGDPSIR-6">
          <mxGeometry width="50" height="50" relative="1" as="geometry">
            <mxPoint x="360" y="300" as="sourcePoint" />
            <mxPoint x="410" y="250" as="targetPoint" />
          </mxGeometry>
        </mxCell>
        <mxCell id="106tLiyZjWen6DGDPSIR-32" value="" style="endArrow=none;html=1;rounded=0;entryX=0;entryY=1;entryDx=0;entryDy=0;exitX=0.5;exitY=0;exitDx=0;exitDy=0;" edge="1" parent="1" source="106tLiyZjWen6DGDPSIR-11" target="106tLiyZjWen6DGDPSIR-12">
          <mxGeometry width="50" height="50" relative="1" as="geometry">
            <mxPoint x="290" y="420" as="sourcePoint" />
            <mxPoint x="340" y="370" as="targetPoint" />
          </mxGeometry>
        </mxCell>
        <mxCell id="106tLiyZjWen6DGDPSIR-33" value="" style="endArrow=none;html=1;rounded=0;exitX=0.5;exitY=0;exitDx=0;exitDy=0;entryX=0;entryY=1;entryDx=0;entryDy=0;" edge="1" parent="1" source="106tLiyZjWen6DGDPSIR-8" target="106tLiyZjWen6DGDPSIR-12">
          <mxGeometry width="50" height="50" relative="1" as="geometry">
            <mxPoint x="260" y="470" as="sourcePoint" />
            <mxPoint x="310" y="420" as="targetPoint" />
          </mxGeometry>
        </mxCell>
        <mxCell id="106tLiyZjWen6DGDPSIR-34" value="" style="endArrow=none;html=1;rounded=0;entryX=0.5;entryY=1;entryDx=0;entryDy=0;exitX=0.5;exitY=0;exitDx=0;exitDy=0;" edge="1" parent="1" source="106tLiyZjWen6DGDPSIR-10" target="106tLiyZjWen6DGDPSIR-12">
          <mxGeometry width="50" height="50" relative="1" as="geometry">
            <mxPoint x="330" y="530" as="sourcePoint" />
            <mxPoint x="380" y="480" as="targetPoint" />
          </mxGeometry>
        </mxCell>
        <mxCell id="106tLiyZjWen6DGDPSIR-35" value="" style="endArrow=none;html=1;rounded=0;entryX=1;entryY=1;entryDx=0;entryDy=0;exitX=0.5;exitY=0;exitDx=0;exitDy=0;" edge="1" parent="1" source="106tLiyZjWen6DGDPSIR-7" target="106tLiyZjWen6DGDPSIR-12">
          <mxGeometry width="50" height="50" relative="1" as="geometry">
            <mxPoint x="430" y="460" as="sourcePoint" />
            <mxPoint x="480" y="410" as="targetPoint" />
          </mxGeometry>
        </mxCell>
        <mxCell id="106tLiyZjWen6DGDPSIR-36" value="" style="endArrow=none;html=1;rounded=0;entryX=1;entryY=1;entryDx=0;entryDy=0;exitX=0.5;exitY=0;exitDx=0;exitDy=0;" edge="1" parent="1" source="106tLiyZjWen6DGDPSIR-9" target="106tLiyZjWen6DGDPSIR-12">
          <mxGeometry width="50" height="50" relative="1" as="geometry">
            <mxPoint x="460" y="420" as="sourcePoint" />
            <mxPoint x="510" y="370" as="targetPoint" />
          </mxGeometry>
        </mxCell>
        <mxCell id="106tLiyZjWen6DGDPSIR-38" value="N" style="text;html=1;align=center;verticalAlign=middle;resizable=0;points=[];autosize=1;strokeColor=none;fillColor=none;" vertex="1" parent="1">
          <mxGeometry x="465" y="318" width="30" height="30" as="geometry" />
        </mxCell>
      </root>
    </mxGraphModel>
  </diagram>
  <diagram id="0Q4lbCNozamdYS3nH8zy" name="毕设功能模块图">
    <mxGraphModel dx="1820" dy="873" grid="1" gridSize="10" guides="1" tooltips="1" connect="1" arrows="1" fold="1" page="1" pageScale="1" pageWidth="827" pageHeight="1169" math="0" shadow="0">
      <root>
        <mxCell id="0" />
        <mxCell id="1" parent="0" />
        <mxCell id="CpFMwIx40WhdDeC2hhgE-19" value="" style="edgeStyle=orthogonalEdgeStyle;rounded=0;orthogonalLoop=1;jettySize=auto;html=1;" parent="1" source="CpFMwIx40WhdDeC2hhgE-14" target="CpFMwIx40WhdDeC2hhgE-18" edge="1">
          <mxGeometry relative="1" as="geometry" />
        </mxCell>
        <mxCell id="CpFMwIx40WhdDeC2hhgE-14" value="" style="strokeWidth=2;html=1;shape=mxgraph.flowchart.annotation_2;align=left;labelPosition=right;pointerEvents=1;rotation=90;" parent="1" vertex="1">
          <mxGeometry x="355.5" y="140" width="59" height="330" as="geometry" />
        </mxCell>
        <mxCell id="CpFMwIx40WhdDeC2hhgE-18" value="&lt;span style=&quot;font-family: 宋体; font-size: 16px;&quot;&gt;基于&lt;/span&gt;&lt;span style=&quot;font-family: 宋体; font-size: 16px;&quot; lang=&quot;EN-US&quot;&gt;Web&lt;/span&gt;&lt;span style=&quot;font-family: 宋体; font-size: 16px;&quot;&gt;的摄影作品分享交流网站的设计&lt;/span&gt;" style="whiteSpace=wrap;html=1;align=center;strokeWidth=2;pointerEvents=1;" parent="1" vertex="1">
          <mxGeometry x="225" y="220" width="320" height="40" as="geometry" />
        </mxCell>
        <mxCell id="CpFMwIx40WhdDeC2hhgE-23" value="&lt;font&gt;&lt;span style=&quot;font-size: 16px;&quot;&gt;用户管理&lt;/span&gt;&lt;/font&gt;" style="whiteSpace=wrap;html=1;align=center;strokeWidth=2;pointerEvents=1;rotation=90;horizontal=0;fontFamily=Helvetica;" parent="1" vertex="1">
          <mxGeometry x="160" y="380" width="120" height="30" as="geometry" />
        </mxCell>
        <mxCell id="CpFMwIx40WhdDeC2hhgE-24" value="&lt;div style=&quot;font-size: 15px;&quot;&gt;管理员管理&lt;/div&gt;" style="whiteSpace=wrap;html=1;align=center;strokeWidth=2;pointerEvents=1;rotation=90;verticalAlign=middle;direction=east;flipH=0;flipV=1;labelPosition=center;verticalLabelPosition=middle;horizontal=0;fontSize=15;fontColor=default;" parent="1" vertex="1">
          <mxGeometry x="490" y="380" width="120" height="30" as="geometry" />
        </mxCell>
        <mxCell id="CpFMwIx40WhdDeC2hhgE-34" value="" style="strokeWidth=2;html=1;shape=mxgraph.flowchart.annotation_2;align=left;labelPosition=right;pointerEvents=1;rotation=90;points=[[0,0.5,0,0,0],[0,0.74,0,0,0],[0.5,0,0,0,0],[0.5,1,0,0,0],[0.51,0.5,0,0,0],[1,0,0,0,0],[1,0.5,0,0,0],[1,0.5,0,2,0],[1,0.74,0,2,0],[1,1,0,0,0]];" parent="1" vertex="1">
          <mxGeometry x="196.25" y="430" width="47.5" height="100" as="geometry" />
        </mxCell>
        <mxCell id="CpFMwIx40WhdDeC2hhgE-35" value="" style="strokeWidth=2;html=1;shape=mxgraph.flowchart.annotation_2;align=left;labelPosition=right;pointerEvents=1;rotation=90;" parent="1" vertex="1">
          <mxGeometry x="526.25" y="430" width="47.5" height="100" as="geometry" />
        </mxCell>
        <mxCell id="1dahL-GnxcMGIgC58efn-1" value="" style="shape=image;verticalLabelPosition=bottom;labelBackgroundColor=default;verticalAlign=top;aspect=fixed;imageAspect=0;image=data:image/png,iVBORw0KGgoAAAANSUhEUgAAAi0AAAEmCAYAAACuxqAsAAAgAElEQVR4Ae19P6wtyfHWtbCMAwcrRw4sYVJHG1hCuiRPJD9n3gwivELo2pktIQIC5NBCAvmSErChAyQ24iJD8EIyJKINrsQLCJZsQ4MIDqqZU2eqa7q6q3u6z8z0+Z406n/V1VVfVfd8Z86c+54uO/775ptvLh8/fsQFDJADyAHkAHIAOVCZA58+fdrxTn7fpZ/uu9yy2rfffnv57LPPLh8+fMAFDJADyAHkAHIAOVCZA3QvfZR/u5EWYoY/+9nPHgVn+AkEgAAQAAJAoAsCT0+73cq7+JNSupunIC2psGAMCAABIAAEgIAPAZAWH06bpEBaNsGHyUAACAABIAAEJgRAWu6QCCAtdwAZSwABIAAEgMDwCIC03CHEIC13ABlLAAEgAASAwPAIgLTcIcQgLXcAGUsAASAABIDA8AiAtNwhxCAtdwAZSwABIAAEgMDwCIC03CHEIC13ABlLAAEgAASAwPAIgLTcIcQgLQLk99fLy8vb5f1d9HF1Gnu9vMXGWKamfHu5vLy2VlpjSGzO++X15cX0+e315eI3/e3y8mzriq1+ubyv1n57eb68vL5d3t7W1+vL8+U5atDb5fXlLb6E6H1/fbm8BAEm/59Vn5iQqb6/Pl+eX16jtpL9L8+kO6MkMvwe2Hi5rO2OTEp1UQ6SnY3ScLM9hq2T3te3i9fMVK7E8of7prjE8uj9LY/R28vl+bkEy3Z7zNqPaxxep9yLubhA/355e835Me/p11aJsyx+2hpIyx1CB9IiQH5/vTw/vVyi9xEae35dDsz396UuVEzV93fzRsUH41y+Xl6eni6U6DU3L71s+/bbZF+cCLxfXp+fLk8Sk6QBpOv5RnLe6QYQIR6y7/WFsFnmkPq3lyeDmMxjMRyJPJCekJBoY2d/nqWCKR/C9fWsZPvt5fIk9QXC1/XSd45gxtSYbHq6BHYS6Ygm7Xq61TNjFM/99zc/UZj1X3Oj2Cgil2liS/FfY/oe/aCRyhULB+q3581EMxkyirl7T0yrNd5j67Nk7U+4F20sInsiEPbqCSYN3QBpuUN4H5u0vF/oQL7dKF9fLs90k5R9XKex55d5bJKbD0/vpz4K5frwuEOAeYmJJNCTJEG8eMwqNVGTcsU3dDrg1jfF6WnE6i4Ql6XlU08viESt7pNeOye50L64bQxC/EbJo1PpIC0rewMF68ZELlY3xbfpCeFaWvaoXOe8vpVEyq/5fet7u9CndDqIiSiU5PqFfI/Ee7Lo/e3yapGsKQ4cxwj5p6dpwdMrempA5DaMHa0T32/Wh42lPz5vxjKOv8C5lLSQv6t4XvV5czdYfk3q1v4UkI2kDQV6hI0jV0Fa7hDdxyYtCuBpg64Pv0kqdbgoNVZzfXhYktdPqnSzoANtugEsT2Smg5PHLBWq//3terhbB6SSn5qJT/CTDZE7bvSrtVmZTVqCmxCRSPuJF60bf/ITe9Li+GR89Xvtz3wgv8gbuKjPN8rMU5jmpIVs4ht6GDAiFyvuF4o0bbmelEW/xqPYLrkcM2r6OiNGapI30LUm3m/vMimnvURYLSSFZk7xv+4NnrfWODGh4EmK/qpuImtqjwXra6VN9xg5osnlfJaEW7WMbNj2l+nRro/YBmm5Q1RBWgTIfCiKm1PwFEYdRmKmq5o8DFca6EBYCJS+qb7RY/TVnEyH81MgvztAj+pvT53oEze9kzItcT0I9U1p+lQub57y0z3drOgp1nzT4q9q4iQk9F16NWG4Ijnz0zJ60iIJDWHku5GvD9+bXSkiKw2L1RuTFvJ9/dXIdeESUj3Jitga+T5/pRZzbO5bPXlRRMCe6Rwhu26ilHPyHaD8k67bfqP30a6JsOyj98ureNxzk109oZE5LJ7Kkm2v9DQpzLmZtAhsYzITSaJ32eavw7btsRtARmWd25eL7ltF0tClu7UePf54bZCWO8QcpEWAnLpBldwUhEpZlQej7I/X50P6dtMNCEd44MbnR3oDHZHxa9fthi1E5sP++tUSvWwYfnSbJAMZMXeu0gHHpGcZnNZakRD7SYt82VC/8ElPk/idwPfXV0VY3i6vNzCX9afaChd6QnP1NZUTSs2q2ZK0kK4IfnLNJKmRgh6fPDJS53QjjH+NND3lS76rQl8DhU8+6CVsSSrmWAcLzi8gWzHlrxJvZIXe+3mbiM9tyo3MhLlZtk9Dm2JPWpTE1Oyzx9YrzftroX6zxPyhg26wt4vzfa0i0WOQltbkNWHB0YZAWu4QEZAWAfJ0UKfeaSl4H0So5WryMIx8z0/yN24Q3FgTN2BeLFYGOmICc599oNLhRwfemnzQTJpnPgmYbmrrebG15k+CV1n5aH9lcnizmYYneX0DnL860i/1Xr2dXyievnaZP3EGT2iKb97CyCvet6d1wRON+eu6W3zFtHXV+zXX9WaUvQFFcNOLFvlN9qknDlrflDdP03szTCwDkelXN+LJ2Pvr9b2X9wvFY3oyRzfD4CISol5KFkrD3LpiowCfZJ7DvI3t09VXJFNsIy8N77DH5Fd109eWHP/pw0XpmSWfLF1/KDBhFnm/aHpqqn7NJ973E6F4mCpIyx1CDdIiQE4d1DTGh4GYIqvy8IjdqOYDNvYT2Pj3/PLQpfrtk/btQA9WX16apEfWsZ9d3g7U+ae886es9a9q5Lq8wrQ+vYw5/SyYe8OSZcJebvGNcv4pJT8Sn36mHH3SQochvRhNN8OZLAUvTU8EgG784lE8HdIkH7kxTV9tRZ6Cz77S4Xz9Wktja+TE6ibGbooyjcd8E1WmitlcJTmDSAckaL6Bk5/8vg19/RDlfJNPGZ0T9muSyVbdyveZUBGpsH5lNL+jQuATAaFP9/IrxJumeewKCD0pm54PTLbOc56JvFD/5PeVwFBOG0+g5tguQZ/WXu3hmXDJOMRIy+UtfHI3xXala/3Oy+JdWNO20SjnS/0eW97rmp5uUfxVjizn0kxI+Gva0DpuXXNvgZAHrqXxpEVJPVITpOUO0QZpESAbN6hJgsbkITXd3MzdLJQu1ehhuAyva3QgX09TOvif6eZFS6oDdH76Md/c2aL55V1105lIy/XXFzdBfsdkWd4+UF+mx/j86J5V8Ew+dLkdlvMBRwRkmjd9Yg4lbq1EHKYDXb9Lcz2Yo39fY/oEb33a5F/dLIfvioxMtqgb/PUXNekDn+5C6yc+Nx9dFetveCz2SjVLfhE5SPzM+5rL+ksDqYte6Jz+ZlHQGTbmr30EtprwTeJkq3wKk7oR8nsq9CTxah39+YA487q8Tbk0f7UUWja3wjwmcvJyoZ/Ry/eeLhMWz/P7VteEXnAUWklOMJuoDInfPhhc50Ztv/4K7vY91WLvE32NNj2Kmr8eK9tjC2kRltNi6qvSiSFd3zHTK8iZqViRXDwPpYZHq4O03CHij0xaVp9Cpk+X6gbFn1Ro7Papfv5ETwmavXGJGJoHnZAJqtebyzsdDi/089P566Lbp1AW1gfltX+1HslFPuWSHJMjmjod9urpBz0RkTKrw1l8UmSz5pKerDBeikSFgkuLvipjcrP0TjWbGEUO2Bt+Ssm1SX88az6yE4cv6TA+yce0xkjV9Pdmbj8Zvt48Oa9uhEs/IYq953Fd0bBpFe+ogeplUmXH8kmcXhKVL18rZdE/tEY3Wsb0Kj/lnDPuvIT8Rc3kK7+AOxMg3nM5fyVpofrEORR2RO6IO0x74PqhJK5X5ojKNf7Dk4QlPRG9nRPzUxwiO5oatN1jDJxBWq7nxyJ1faojP4TJwVtd+Xnr54rEhPseuwRpuUP8H5m00BOD8B9tUv4kRof28mJn1a91QuXTwRh8ylPj6yYdCvS9+fzrBz6El5vtPCN+yF4PJvHpMEY0SAPpfRIHGK8j7ZlkpC5+R0F8WlzLzIf2rPvqC62n/rDc9BVR7FH2dNMMb4LrNdjK8IClJ03T1yM8nCwTh6+6ySXVMJYBTlcSeMMpttacd2qavVSUpBbqsLVf+MXZ6auY0qdFknBcc8Tt12QT+SFIToD/kkMkSnmf0r3kMT2x4jwS+N9exJ0CN321SPri+2nGd96/lNes7zpXtm/Y2jFZbLsJ374eEj3iPJp77fyfxy1MwvOLMEhjd10tfHF5MexaE1iuxh6zA6TlDnF/bNISAkwbfnmaQAcOf8IjOf6ErIlOqCPVih+GqRmzDfTpdbrn0c3q5XV5dH6dOtktfwkg6/Iwjd7s1o+0fQfq+qYR9e/2eDy84SwoyoM9fNQf0zcd2vS+zuoJgXixNfoUgOy1/sZL4vANbpoiVsbNPHZTCfG8xnQBgO56080pdQMWKydvql4dUt9Un/ycX6oMTJsHVzm3mn/rIF+upMPKt5tspDLluPjiiuy65XCYQ5QfKX9v+aO+Tp2/ApREhuxYYnCbF5g3j0+kRZKdaaq0UU5adMreeco6F2O5o32M27Zo1/LL9nu5fS3Ge2gd50XPXCP74+8fzeOJfaNVPUgbpOUOgQZpIZDndwDCx7h6w84v/tEmnh//lr+vkDtwYuGe5tBNejLz+v7J7VP7PMOt17iJ6EMsvMnOa8QOVG1v2o7whkPvTExfAQU3JXpdhz/BziRR3L6m5egpwPJ/nUid869Mor9MmT4MJ97xSH03f72Z84vDM1m6/qqCb84CiBhOIZ46r2iyfXMTqq9V60ZB/dZNXP4ixPh6KPj6M5SZX+zVX1+tLbv1TL9aoReCUze8m/R1/9H/fzR/jRgQkSBnZbzXpFlqpPqcj/GXkSmPdG7xfCuPifROtikSNL8Xw3nLWqi04xrmxDwnljtSG9Ut21iOxmf8rvuBB9iW1+sZYjl/k6dKmKvT19IB07FyMVDyUA2QljuE++FJi/r1w/IJnj65Lz/nk/8PDn31wH/VMyQ66YDlDpzY7Okg40+afAMNDo7I10A3Rfxi47UjuAHchKaDcHnCpL/OmOW2H6jhDWfSOvnDhyzb+Dq9J3S7QSxm3mrTgT+9J3DVeSNAN5GgMtk+fc0WdItG4vCdbBRfV4hZsWoMp8neG9EMbwSzDvvmpteI6Z9lEj5oJbE2+cl5Fhsv6pu/FpQvrnqmzy+Ph0Qn9DfMoeUGTdqJaIWr1Oy3SZN+WTdUe5lv3vT+Cn1tS0/9LOzsuIY5MS8Q+qoWvTZzPs2YxHLs+kSVnsIGrDC+ztWi25OW+H7cmHOppU86BtJyh8A9LmmZXxClT+2KA1xRNza+iMnqlyZiLFbNHTixOdN7KLdDJjy0F/n5cAwIFN3I9V+EnUgLfVpcPLZuFPrdm+0H6tr26eCefuUiScHsi32w0g2RfRA6r4TuBtUVnMnu7M04cfgeibRMxEJitWTA9Gm/4IVhMXOutiItkx6KD/8Ee3kvbLWm7ohgPd+EWVDE+/rU4RbvyC+XqvZb7GkGfRVI/tCToGf6FR/9zH7ZQ0d70hL/S8bXfUWkRdvP8K7K67lye89PCyT2jRZ9kDZIyx0C/bikJQcubdjwU98yI3z3YumP1G5fKucf7UZm0yTxvb3+Hl7OoLHrf27HB5M4VyfJ62Nt+aSIDjB5/pLcTCbC90ZWvx6SS8/KE19PkEB4w5l/ZTMbKG8u89+omP9yqSRXvFz4iU/rlL9wmuN3+4k1K4iWicM3ciONqrh2MklantjNv8JZSOC8Fr0kvMiI93Es5dMTQR2rJcC87tJjKTL6N5MW/oo1JCkUz/lv51B/xjoi1ZJ4rWwK4x0QGpJVv9KReWV4vXRPJJ8Iyfr/RZqwpf8l3PhF20xa5N8L4tjace2zx67E5MbkZvemF6uvf4SPIjD7s5AXOyqEd+p/ck/smwXZh6qBtNwh3I9NWlLf9YdfDy03mPnRNyVn7Ka6Ctn1MCR5upab10ryMB3TgXr7OmM2azro1GFIf4eESMT06XPyb/0U4PZLlNsTlfm79lA9fY0V/lprfvF5/guq/DRsJjR06tL7MPSpVx+o89/0IFJG70doMmYDnDh8a0iLwinEM7bWfLNR027mzhjG35kg/Dm3rPk3RboyYT7/lD/4S6paLtme40l/+M3E+5onbCc9CZhy5vaLnnmB+WZ6zaHp78Ronwm7JcdmecqRGQP635/lDZh+fsx/7iXpghyc3sfRP1G2nsZeJ67IFSu04xrmxCw/+aOD6NhjvNpVy4LB9eyZ/ldsCQwJTiR4PpOmeFiETL+/EywWy+VA4OEalOOP8m83Tx+btFB66d3cJ+WmQ0p9Euyz0nat00uKCpbpb9qovttK0x9wS9y0ri/0Ecmj/xU3VENPreTLtTetU2zokfx0M4z8IuhGYq5TyG76pZV585SqgzoRUePFTPqlSPbrpUVZ9GZE//PuzemZnN2a09T5rwSv7Z7/7knuCcX89CnUuFjkqE3EzHqqGJ/PWDOhjEuteydySn9VWRGMWZJwIKyIlMb8iWG3XuPuPZQj0b1Nua0J0NVT8f9ksb3b9thNy+0n69bfOmLJqZz+/EAM60DKaNC+Se17Y9rA3SAtdwguSMsdQMYSQAAIAAEgMDwCIC13CDFIyx1AxhJAAAgAASAwPAIgLXcIMUjLHUDGEkAACAABIDA8AiAtdwgxSMsdQMYSQAAIAAEgMDwCIC13CDFIyx1AxhJAAAgAASAwPAIgLXcIMUjLHUDGEkAACAABIDA8AiAtdwgxSMsdQMYSQAAIAAEgMDwCIC13CDFIyx1AxhJAAAgAASAwPAIgLXcIMUjLHUDGEkAACAABIDA8AiAtdwgxkZaf/OQnl48fP+ICBsiBzjnwn/7zfwXGnTHGWYazfK8cAGm5A2n561//evniiy8uHz58wAUMkAOdc+Dv/s2/AMadMcZZhrN8rxz48ssv73DXPsYSu/3fQ8dwH1YAgcdA4O/8zb98DEfhJRAAAkMjANIydHjhHBCYEQBpQSYAASAwAgIgLSNEET4AgQwCIC0ZgDAMBIDAKRAAaTlFmGAkENiGAEjLNvwwGwgAgWMgANJyjDjACiDQFQGQlq7wQjkQAAJ3QgCk5U5AYxkgsCcCIC17oo+1gQAQaIUASEsrJKEHCBwYAZCWAwcHpgEBIOBGAKTFDRUEgcB5EQBpOW/sYDkQAAILAiAtCxaoAYFhEQBpGTa0cAwIPBQCIC0PFW44+6gIgLQ8auThNxAYCwGQlrHiCW+AQBQBkJYoLOgEAkDgZAiAtJwsYDAXCNQgANJSgxrmAAEgcDQEQFqOFhHYAwQ6IADS0gFUqAQCQODuCIC03B1yLAgE7o8ASMv9MceKQAAItEcApKU9ptAIBA6HAEjL4UICg4AAEKhAAKSlAjRMAQJnQwCk5WwRg71AAAjEEABpiaGCPiAwGAIgLYMFFO4AgQdFAKTlQQMPtx8LAZCWx4o3vAUCoyIA0jJqZOEXEBAIgLQIMFAFAkDgtAiAtJw2dDAcCPgRAGnxYwVJIAAEjosASMtxYwPLgEAzBEBamkEJRUAACOyIAEjLjuBjaSBwLwRAWu6FNNYBAkCgJwIgLT3R7aj7f/3v7y7/7X/8T1zAwJUDRFqQL9gvI+bA//m//6/jSQvVR0MApOVoEXHa8w/+6b+9fPG7f3f5h//83+MCBsgB5MBD5sAv/tG/uvyH//LfnacmxEZAAKTlpFH8+//431zoaQv+AQEgAAQeFYF/9q//I0jLgwUfpOWkAQdpOWngYDYQAALNEABpaQblaRSBtJwmVKGhIC0hHmgBASDweAiAtDxezEFaThpzkJaTBg5mAwEg0AwBkJZmUJ5GEUjLaUIVGgrSEuKBFhAAAo+HAEjL48UcpOWkMQdpOWngYDYQAALNEABpaQblaRSBtJwmVKGhIC0hHmgBASDweAiAtDxezEFaThpzkJaTBg5mAwEg0AwBkJZmUJ5GEUjLaUIVGgrSEuKBFhAAAo+HAEjL48UcpOWkMQdpOWngYDYQAALNEABpaQblaRSBtJwmVKGhIC0hHmgBASDweAiAtDxezEFaThpzkJaTBg5mAwEg0AwBkJZmUJ5GEUjLaUIVGgrSEuKBFhAAAo+HAEjL48UcpOWkMQdpOWngYDYQAALNEABpaQblaRSBtJwmVKGhIC0hHmgBASDweAiAtDxezEFaThpzkJaTBg5mAwEg0AwBkJZmUJ5GEUjLaUIVGgrSEuKBFhAAAo+HAEjL48UcpOWkMQdpOWngYDYQAALNEABpaQblaRSBtJwmVKGhIC0hHmgBASDweAiAtDxezEFaThpzkJaTBg5mAwEg0AwBkJZmUJ5GEUjLaUIVGgrSEuKBFhAAAo+HAEjL48UcpOWkMQdpOWngYDYQAALNEABpaQblaRSBtJwmVKGhIC0hHmgBASDweAiAtDxezEFaThpzkJaTBg5mAwEg0AwBkJZmUJ5GEUjLaUIVGgrSEuKBFhAAAo+HAEjL48UcpOWkMQdpOWngYDYQAALNEABpaQblaRSBtJwmVKGhIC0hHmgBASDweAiAtDxezEFaThpzkJaTBg5mAwEg0AwBkJZmUJ5GEUjLaUIVGgrSEuKBFhAAAo+HAEjL48UcpOWkMQdpOWngYDYQAALNEABpaQblaRSBtJwmVKGhIC0hHmgBASDweAiAtDxezB+KtHz99deXp6enIa6f/L1/cvlbf/tHQ/jy+9///vF2HjwGAjsh8OnTp8tnn302xNkxynlOfvzsZz+7fPfddztlxXmWfSjS8oc//OFCF/4dB4GPHz9ePnz4cByDYAkQGBwB7LljBphICxFK/EsjANKSxgejnRHAAdoZYKgHAgoB7DkFyEGaIC2+QIC0+HCCVCcEcIB2AhZqgYCBAPacAczO3SAtvgCAtPhwglQnBHCAdgIWaoGAgQD2nAHMzt0gLb4AgLT4cIJUJwRwgHYCFmqBgIEA9pwBzM7dIC2+AIC0+HCCVCcEcIB2AhZqgYCBAPacAczO3SAtvgCAtPhwglQnBHCAdgIWaoGAgQD2nAHMzt0gLb4AgLT4cIJUJwRwgHYCFmqBgIEA9pwBzM7dIC2+AIC0+HCCVCcEcIB2AhZqgYCBAPacAczO3SAtvgCAtPhwglQnBHCAdgIWaoGAgQD2nAHMzt0gLb4AgLT4cIJUJwRwgHYCFmqBgIEA9pwBzM7dIC2+AIC0+HCCVCcEcIB2AhZqgYCBAPacAczO3SAtvgCAtPhwglQnBHCAdgIWaoGAgUCPPUf/4Z/+F+vTMtxO/ceHLMNliSzNidkR62P9sbJ0zZiOXB9ISw6heXydab55p5Q623+Y6NlYMZlYnxWwe2xGa23q73GAptbDGBB4dAR67Dl9jhDGuk+eS3KMZTkuWo77uZTj3Edlqj+2nuzTc+WY1i1lZV3aUlMHafGhBtLiw6lYSia9VfcozW0KrZt06j6pQ46xLNuh5bi/Z9njAO1pL3QDgbMj0HrPxc6NWJ/GzZKx+nk+jVsXy3AZ0xXrY3lZWnJWv5xbUwdp8aEG0uLDqVhKJjZNzrV5AZLLXVJW1+U6ss5yVMp+T13ObV1vfYC2tg/6gMBoCLTec3SGeC+JpT57LB1yTmnd0hnr17rvYZ9cE6RFomHXQVpsbDaNyIQnRbk2L6bluJ9LOU5178XzqfTqkHN61VsfoL3shF4gMAoCrfecPE9SGGk52fbUSTfJ5S5pg9Qr+3U9Jif7PHWts7QN0uJDDKTFh1OxFCV57ooplZsjN56T5flaTrY9ddbTo2x9gPawETqBwEgI9NpzdJZYl8ZPytGY9xySclqn1iPH5Xq6LuW4LmW0XmmDrPPc2hKkxYccSIsPp2Ipncy5Ni+g5bify9g49VkXz+NSylGf1GfVeW6PstcB2sNW6AQCIyDQa8/J80Pi5OknGetK6dK6dZvnlvbTPDmH6tbFa2wtQVp8CIK0+HAqlpIJT5NzbV7A2hiyn2W51LpL+qVeXWc9PcteB2hPm6EbCJwZgV57Tp8fsh3Di8Zj/6x+ktVjuTbrJznrYhldat08bvXzeG0J0uJDLp41vrmnk7rnT56tDSL7YwDmNkRsXOrU9ZI1Yrpj81v29TpAW9oIXUBgJAR67bnS80PK63NLtiX2cg7159o8V8txf6qUc6huXSkdJWMgLT60QFp8OBVLyYSnybk2L6DluD9Vls6R8lS3rtSarcZ6HaCt7IMeIDAaAr32nHWOcL/GMdWvZWNtmk//LD1yDstYpZTlOstym0vq7/EPpMWHah/0fWvfXereT1qkgzrRdZtkY31Sh1WnealLz2PZWL/u693udYD2thv6gcBZEei151Lnlx6zziDCVMtqnK25Vn9OZ2y9Wl3a1pI2SIsPLZAWH07FUnoj5Nq0gJbxLpqap8eorft4Haufx3uUvQ7QHrZCJxAYAYFee47PFqu0sLPkuZ/n6Tb365Lk9D+ea5VaXratOdwvZbfUQVp86K2j65t3Sql7PWmhZLb+caJrGd225sf6pc5YPTaH+mKyss+a17K/1wHa0kboAgIjIYA9d8xogrT44mLfXX3zTyV1L9JyKlB2NhYH6M4BwPIPhwD23DFDDtLiiwtIiw8nSHVCAAdoJ2ChFggYCGDPGcDs3A3S4gsASIsPJ0h1QgAHaCdgoRYIGAhgzxnA7NwN0uILAEiLDydIdUIAB2gnYKEWCBgIYM8ZwOzcDdLiCwBIiw8nSHVCAAdoJ2ChFggYCGDPGcDs3A3S4gsASIsPJ0h1QgAHaCdgoRYIGAhgzxnA7NwN0uILAEiLDydIdUIAB2gnYKEWCBgIYM8ZwOzcDdLiCwBIiw8nSHVCAAdoJ2ChFggYCGDPGcDs3A3S4gsASIsPJ0h1QgAHaCdgoRYIGAhgzxnA7NwN0uILAEiLDydIdUIAB2gnYKEWCBgIYM8ZwOzcDdLiCwBIiw8nSHVCAAdoJ2ChFggYCGDPGcDs3A3S4gsASIsPJ0h1QgAHaCdgoRYIGAhgzxnA7NwN0uILAEiLDydIdUIAB2gnYKEWCBgIYM8ZwOzcDdLiC6a/dAoAACAASURBVABIiw8nSHVCAAdoJ2ChFggYCNCeoxsk/weyZy5/85vfXH73u98N4ctnn312+fTpkxE1dDMCD0daPnz4MESC//rXvx7Cjy+//PJCMcE/IAAE7oPAX//618sf//jHIc6Pzz///PKrX/1qCF+++uqr+yTAyVd5KNJCLPbMnyqk7cTKR/mEQZ/88A8IAAEgUIoAfejBzb4UtXPLPxRpOXeoQuvx/WeIB1pAAAg8HgIgLY8Xc5CWk8YcpOWkgYPZQAAINEMApKUZlKdRBNJymlCFhoK0hHigBQSAwOMhANLyeDEHaTlpzEFaTho4mA0EgEAzBEBamkF5GkUgLacJVWgoSEuIB1pAAAg8HgIgLY8Xc5CWk8YcpOWkgYPZQAAINEMApKUZlKdRBNJymlCFhoK0hHigBQSAwOMhANLyeDEHaTlpzEFaTho4mA0EgEAzBEBamkF5GkUgLacJVWgoSEuIB1pAAAg8HgIgLY8Xc5CWk8YcpOWkgYPZQAAINEMApKUZlKdRBNJymlCFhoK0hHigBQSAwOMhANLyeDEHaTlpzEFaTho4mA0EgEAzBEBamkF5GkUgLacJVWgoSEuIB1pAAAg8HgIgLY8Xc5CWk8YcpOWkgYPZQAAINEMApKUZlKdRBNJymlCFhoK0hHigBQSAwOMhANLyeDEHaTlpzEFaTho4mH0aBD7//PPL09MTroNj8Pz8PFyMvv/97w/n0w9/+MPLN998s3n/byYt33333eWzzz4bDuCjH1bf+9737o75D37wg7uvea84UA5TLsf+nT3HU77F/EXfjMCIHwxG82nUJy0fPny4fPz4cait2MqnzaTl06dPF9oI+DfuQcexHe3AY7+ohG8SDdRHzYnR8hyk5Tx7FaTloLEa7VCQMMM3icZ56iPHrWcURsRtNJ9AWnrugLa6QVra4tlM22iHggQGvkk0zlMfOW49ozAibqP5BNLScwe01Q3S0hbPZtpGOxQkMPBNonGe+shx6xmFEXEbzSeQlp47oK1ukJa2eDbTNtqhIIGBbxKN89RHjlvPKIyI22g+gbT03AFtdYO0tMWzmbbRDgUJDHyTaJynPnLcekZhRNxG8wmkpecOaKsbpKUtns20jXYoSGDgm0TjPPWR49YzCiPiNppPIC09d0Bb3SAtbfFspm20Q0ECA98kGuepjxy3nlEYEbfRfAJp6bkD2uoGaWmLZzNtox0KEhj4JtE4T33kuPWMwoi4jeYTSEvPHdBWN0hLWzybaRvtUJDAwDeJxnnqI8etZxRGxG00n0Baeu6AtrpBWtri2UzbaIeCBAa+STTOUx85bj2jMCJuo/kE0tJzB7TVDdLSFs9m2kY7FCQw8E2icZ76yHHrGYURcRvNJ5CWnjugrW6QlrZ4NtM22qEggYFvEo3z1EeOW88ojIjbaD6BtPTcAW11g7S0xbOZttEOBQkMfJNonKc+ctx6RmFE3EbzCaSl5w5oqxukpS2ezbSNdihIYOCbROM89ZHj1jMKI+I2mk8gLT13QFvdIC1t8WymbbRDQQID3yQa56mPHLeeURgRt9F8AmnpuQPa6gZpaYtnM22jHQoSGPgm0ThPfeS49YzCiLiN5hNIS88d0FY3SEtbPJtpG+1QkMDAN4nGeeojx61nFEbEbTSfQFp67oC2ukFa2uLZTNtoh4IEBr5JNM5THzluPaMwIm6j+QTS0nMHtNUN0tIWz2baRjsUJDDwTaJxnvrIcesZhRFxG80nkJaeO6CtbpCWtng20zbaoSCBgW8SjfPUR45bzyiMiNtoPoG09NwBbXWDtLTFs5m20Q4FCQx8k2icpz5y3HpGYUTcRvMJpKXnDmiruxlp+fbbby+//OUvL6Sw5np+fr786Ec/qprL633xxRdt0dmgjWxhu2pKwoIwqZnLcz59+rTBA3vqyL7R4cX41ZRHjtvIvtnZun1k73ync5XO15b/9vaJ9lbL8+lPf/rTpn3705/+9PLzn/98k46vv/66ZYgmXb/97W832fTjH//48otf/GKTjm+++aapX0fx6enjx4+Xzz///EJl7fWXv/ylei6t+fT01BTcLcrIllocaN5WLDgWW3yw5sI3O8cRNxubnjlp5WqL/hHzfTSfiAQRcak9c7fuW/pA8Ic//KFFugU66InWn//85938IsL81VdfBTZtbRzFp4m0UOLs+Y824lH+7W0LxYI2cI9/8K0HqrNOxK0ftrWaR8z30XzquW88eUOEpRdpaflEyuOLlOnxtdneXy2yTyAtMtKXy+5PfXpu4tEOPBk6+CbRaFvvmZNtLQ21jZgTo/m0d26BtIR7JtUCaRHo7L0RhSkgLRKMxvWeB9TeOQTfGidLA3Uj5sRoPvXcN54UAmnxoDTLgLQIrPbeiMIUkBYJRuN6zwNq7xyCb42TpYG6EXNiNJ967htPCoG0eFCaZUBaBFZ7b0RhCkiLBKNxvecBtXcOwbfGydJA3Yg5MZpPPfeNJ4VAWjwozTIgLQKrvTeiMAWkRYLRuN7zgNo7h+Bb42RpoG7EnBjNp577xpNCIC0elGYZkBaB1d4bUZgC0iLBaFzveUDtnUPwrXGyNFA3Yk6M5lPPfeNJIZAWD0qzDEiLwGrvjShMAWmRYDSu9zyg9s4h+NY4WRqoGzEnRvOp577xpBBIiwelWQakRWC190YUpoC0SDAa13seUHvnEHxrnCwN1I2YE6P51HPfeFIIpMWD0iwD0iKw2nsjClNAWiQYjes9D6i9cwi+NU6WBupGzInRfOq5bzwpBNLiQWmWAWkRWO29EYUpIC0SjMb1ngfU3jkE3xonSwN1I+bEaD713DeeFAJp8aA0y4C0CKz23ojClM2kZasvPTfxVtskTjV1+FaD2th/pbkOEd+sEfN9NJ9qzgTGgErr8mXIZfoT/kRcWv87yg2+pV9H8Ql/xl9FlTeE6nY3t86v2cRe47ba5l3HkoNvFjLp/pHjlvZ82+iIuI3mU82ZIDGQdcoW3c5lEJ605BBaxkFaFiyKE01MbV4tTXppAM/lUo556zWb2Kt7i13eNVJy8C2Fjj02ctxsr7ePjIjbaD7VnAkSA6rrqyRzQFr8aIG0CKxkEoruXaq1tuh5uu11pmYTe3XX2uTVn5ODbzmE4uMjxy3ucZveEXEbzaeSM4F8lxdlicZDt3OZBNKSQ2gZB2lZsFglnhi6e7U06clAOceqex0p2cRenSwnbeO+e5bwrQ7tkeNWh4hv1oi4jeZTzZkgMaC6vnzZMUuBtPjRAmkRWMkkFN27VEts4c0iDdXzYzJSXtdrNrHWYbW1bZZcr374VofsyHGrQ8Q3a0TcRvOp5kyQGMg6ZQW1dV8qW0BaUuiEYyAtAo+SJBPTulS32rJ1fs0m9gKx1TbvOpYcfLOQSfePHLe059tGR8RtNJ9qzgTCIHWVZA1Iix8tkBaB1d4bUZhSxNLlPK5v9aVmE/PauXKrbTn9uXH4lkMoPj5y3OIet+kdEbfRfCo5E8h3vqwMKcUHpMVCct0P0iIwKU00MbV5dastW+eXbOJS57faVrqelodvGhFfe+S4+RCokxoRt9F8qjkTGAMq+aIM4TqPe7IGpMWD0iwD0iKwKkkyMa1LdastW+fXbGIvEFtt865jycE3C5l0/8hxS3u+bXRE3EbzqeZMYAxypSd7QFo8KM0yIC0CK04+0bVbdastW+fXbGIvWFtt865jycE3C5l0/8hxS3u+bXRE3EbzqeZMkBjIOmWLbucyCKQlh9AyDtKyYFGcaGJq82pp0msDts6v2cTaBqu91TZLr7cfvnmRCuVGjlvoadvWiLiN5lPpmUD+Mwa50pNNIC0elGYZkBaBFSef6NqturctpZu4BCj4VoJWmSziVobXPaRHzPfRfOq5bzw5BtLiQWmWAWkRWO29EYUpNxYv++5Z77mJ98YZvtVl0shxq0PEN2tE3EbzqeeZ4MkSkBYPSrMMSIvAau+NKEwBaZFgNK73PKD2ziH41jhZGqgbMSdG86nnvvGkEEiLB6VZBqRFYLX3RhSmgLRIMBrXex5Qe+cQfGucLA3UjZgTo/nUc994UgikxYPSLDMUadm6kbbO98Oel9xqy9b5PTdxrW08j8s8inGJI/m21Rft4ZF8Y9ukj7LO496yp29eG2rktvhcs56e0wO3Wp/0PN3Wtlvt1j6V6iO79aVtLfHtqKSlxAftP7W//PLLy1dffRUbqu4rJS1bfdCGsk9PHz9+vFDieP9Zhlj9Hr1b5nr0l8hstWXr/NJNfA/f2CcuS9aUskfzTfpDdX1J23P1o/imfWK7ZT/3ecuevnltqJEr9VnHP9YusaMHbqU+sb16nm6zXK5s7VOpPm23bpP9sT7LryOTFvJDX5Yfup9v8Lp/S7uUtNBaMhbaFznmsYt9KiYt2hDPYjmZUuNz+raMb7Vl6/zSTVzia41tcg7VY5fXhqP5FrNb+hsbt/qO4pu036pbPlj9PX2z1mzRL/336NPyuXZOZw/ctE05G2jcmmP1p3S29qlUH9msL2lvqU9HJi3Sr9I63+BL56Xka0hLTF9pjFgH+1RFWliJTh7ZZhlPWeuER3epzFZbts4v3cQl/tXYxnN0WbIuyx7NN7aLfaO2VWdZqzyKb5b91K8vyxfd39M3vVbLtsTCo1fL59o5nT1w0zblbKBxa47Vn9LZ2qdSfdpm2Zb1lA9yDKRFopGubyEtMjZWPb368pXXJtIiF5GGyH5Pfctcj/4Sma22bJ1fuol7+ka+aH90u2T9o/jGfklfuM4l+SXrOT+P5BvbyvZzqfu5nSt7+pZbe8u49juni+RzV06HHO+BW41P0iZdL9XX2qdSfbH4bPHpKKQl5pfu036m2vxUIiVTOlZCWqTtvA710T8udZ3lrJJ9KiYtckGp3OqXMlZ9y1xLZ23/Flt4Lpc1NpRu4pI1SuxiWS55HWrLi/s95VF8Y1ulb1zXJcvmyqP4xvaTvVTnNpfcn/NHjvf0Ta7Tui599ujW8rl2TmcP3LRNKRtYlkrrovksl9LFY619qtWXsjk1xn5weSTSwjbFyhKfaD7f4GO6avtKSAuvIe3mui5ZNleyT8WkhRTzonKRWJ8cT9W3zE3prRnbYgvP5bJm/dpN7Fmrxi49R7c967LM0X0jO2v9O4pv0n5PnWOTKnv6llp365j036NLy+faOZ09cNM25WyQ43qubktZq97apxJ9ZK91sb2lPoG0MHL5citp4RVKY8TzNpEWVmIlUKlRpfK8fo+y1hY9T7e9tpZsYq9OlquxSc/RbdbtKY/qG/lkXR6/SOYovnF82B+2X/Zzn7fs6ZvXhho59tk7lzFLlV5dJNcDt1KfpL16rm5LWave2qdSfdpm2ZZ1y37dD9KiEbHbW0gLxca67BXDkSakRaqsSRiev2Uu62hV1tqi5+m2177STezVS3I1Nuk51NaX14aj+1aLEc07im8cm5gvOpZHiJvXhhq5Un+1fK6ds6lHTmibcjbweGxerI/lrbK1T6X6yGZ9aVtL/DoSadF+6bb2M9XmG3xKpnRsC2mRa5XER85jn/D1kESl0Y2dVdYEp3QT81qessYePUe3PeuyzBF90/7oNtueK4/im7Q/Vpd9OZ94vKdvvEaPstRXLZ9r52zugZu2KWcDj8fmxfpY3ipb+1SrL2V7akz7dRTSou3a2uYb/FY9cn4tadHx0G25RqrOPhWTFmtBqz9lBI9tmcs6WpWltuTkc+Pa7tpNrPXE2qW2kA49R7dj61h9R/ct5q/li+4/mm/SFx0z3da+6HZP3/RaLdulfmr5XDtnaw/ctE05G2jcmmP1p3S29qlUH9usS7aZ+7mdK49CWthuLsluq57zicb5Bu+R9crUkhatX/qlx1Jt9qmYtLBSWjh3sWyurHUip7dmvMQWr6xXjuwt3cQlPpbYwXr1HN1mOU95NN9iNtf6d0TfyBfLH6s/hklP32Lrteor8TElS2N8ldjWA7eUnTHbtDz7oftjc2N9rX0q0cc2sw9sn+znPm95BNLC9rPNsm3VWdYq+QZvjdf015CW2DrSp9i41cc+VZMWS3FNf60TNWvl5uxtS8kmzvmix+GbRqRdG3Frh2UrTSPm+2g+9dw3njw6Amnx2Fkqwzf40nkp+VakJbVGaox9AmlRKI12KEj34JtEo2295+E7ctzaRiHUNiJuo/nUc9+E2RBvgbTEcYn1grQIVPbeiMIU83G6lOlZ77mJ98YZvtVlzshxq0PEN2tE3EbzqeeZ4MkSkBYPSrMMSIvAau+NKEypIi3aft2W+nP1npu4xi6aY105X/T4UXyzcLD6tR+x9lF8k7Zpf3RbyqbqPX1Lrbt1rNZfXnfr/B64bbVp6/zWPtXqYz+45JiVlkchLewHl+QH17ks8Y2/SimZk5OtJS3aft3Orcvj7FPV10O0qLxIqWyXGlUqz070KGtsic2J9Xnsrd3EHt01NllzrP6UHUfyLWZ/rC/ljxw7im/kg/eS9qfqPX1Lrbt1bEs8ee0tOnrgVmOPnGPV2d9c2dqnWn3sB5c5u63xI5EW8oUvspfrsrT80P18g9f9W9qnJy3sPAFK/7jUdZZLlXJuSu4eY6W2sDyVqctre+0m9uhnWz2yLGPNsfp5Xqw8mm/SRvaHSznmqR/RN+0Lt7n0+EUyPX3z2lAjV+onrUFzcpfXlh641fjEfsVKry8s19qnGn0SAytWbG+uPAJp0f6QzbG+nC9y/CikRfoh/dL90narzj5VP2lhxbw4l9IwlsmVcm5Otvd4qS2l8jn7azZxTieP19hqzbH6ea1YeTTf2Ebti26zXKo8im9sO5W5K+WPHOvpm1yndZ2xKNGbm5Mbl2v1wK1kfZL1XtLuVL21TzX6GANdpuy2xo5AWsg2HadYH/tr+SL7+QYv+7bWa560SJtlnWzR7Zx97BNIi0KqBEiSlfLc1qVaItms2cRJhWJQ2iq6k1Xti2wnJ0YGj+Ib+0AmWphImYgrq64j+Zbza2V8pqOnb5mlNw1bsU0pzc3JjUvdPXArWV/awvN0KWU89dY+leoj+9kHtle3ud9THoW0kK2WbzX+8Q3eg4FXppS0SH8sH6z+mE3sE0iLQqcERJpaKq+WWzVLN/FKQaKjta2JpaJDR/JNYiHrUcMdnUfxjXzhi8zmuiwd7gQiPX0LFmrcIJ9L/+Xm5Mblej1wK1mfbZFzrDrL5srWPpXoY9u5ZFupLS/u95RHIS3sE/tBtss+2fb4xTd4j6xXpoS0aNtj9rOMd332qZi0MKie0mtMqfFevTVypbZIeQuTEjtKNnGJXpKVtubmxnxhHXosp4vHj+Ib+8F2aVx0m+VS5ZF8k/6xL1aZ8onHevrGa/Qo2ecS3TQnd3n19cCt1KecfG5c+9rapxp92mbd1jan2kcgLdJ+rnPJtlNb9/FYrOQbfGystq+EtPAa0mZZp3Hd5jlWyT4Vkxa9GC/MpR63DJD9cq7s36NeakupfM6nmk2c08njJbZqWW5zWaPzKL6R7dIPrlPJdfbPWx7FN/aB/ZBtrmv/cz729C239pZxxqBER25Oblyu1QO3kvWlLVzfOr+1TzX6tA+6zb56yiOQFrKTfMhdHn9Yhm/w3G5RgrQIFLcknVDTpFpqi5S3kq7EsJpN7NUvbc3N0bLc5pLn6zb3x8qj+Ea2SbupLtsx23N9R/GN/dCl9JnHcj7xeE/feI0eZamfZEPNHMv2HriV2Eey3svyQfe39qlGn8Yg5qO222ofibRIG2M+yvFcHaRFISQB5TqXJCrramq0WSofVdKos9QWKS/rbE6sj8diZc0mjumJ9ZXYomW5zSXr123uj5VH8Y1sk3bLOtsd6+OxWHkU39huWVKdL+17zBfd19M3vVbLNmPg1Vkqn9PbA7ctNvJcLnP2x8Zb+1SjT9uv2zG7rT6QFguZdT+etAhMtiSdUNOkWmqLlKd67CoxrGYTe/VLW3NzLD+s/pw+Gj+Kb2QL+8F1bX8JVkfzTfrEfshS+q79jrV7xi22Xqs+9tmrr1Q+p7cHbjU2xuId68v5Q+OtfarRpzHQbY8fLHMU0sL2yLhwvcY/PGlhRCOfUBlYFtFt7k+VNUFJ6dsyVmqLlJd1tiHWx2OxsmYTx/TE+kps0bLc5pL16zb3x8qj+Ea2abupra+YD1bfUX2zfNL+W35Rf0/fUutuHSvxsUTWa1cP3ErsJNmcvEdG+tvapxp92ifdlvbm6kcgLRyDlB8sk/OHx49GWmK+xfrY/ljJPlW9iBtTuKWv1Pgta+Xm7m1LzSbO+cTj8I2RaF8ibu0x3apxxHwfzaee+8aTP0cgLR47S2X4Bl86LyVf8/VQSl/pGPsE0qKQG+1QkO7BN4lG23rPw3fkuLWNQqhtRNxG86nnvgmzId4CaYnjEusFaRGo7L0RhSnZx6lStke95ybeG2f4VpcxI8etDhHfrBFxG82nnmeCJ0tAWjwozTIgLQKrvTeiMAWkRYLRuN7zgNo7h+Bb42RpoG7EnBjNp577xpNCIC0elGaZU5MW2jjyIpfkZpJ1DySl8h6dtTJbbNkyl+3tuYlL7YvJx/rY9lwJ33IIxcdLMY/Jx/riq617e8ZtvVq7nlKfY/KxPq+FPXArtScmH+vby6cajMh+6/L6wXJHIS2xmMT62O5cye9/5ORKxktJS8z+WJ/XBvZp8zstbIQuvYaQHM8tmdNLttQWks9dJbbWbGKv/q2+0ToxX73rwzcvUqHcyHELPW3bGhG30XyqORMsDKz+VFYdibSQ/XyRzVyXZcoXOcY3eNm3tV5DWrTtss11r13sUzFpoYX4n6xTn2zLOstbZYmspaNVf6ktOfncuLa7ZhNrHVa7xBYpy3UuSb+sW+vpfvimEfG1S7CWslznklaTdd/qj/eTZ8aIyyPhJm3KxU/Kcp3Lo/hUcyZIHyQGVr+U0fUjkBZpN9e5rI0T3+C1v1vaJaQlZn+sr8Qe9qmYtEgQpRGp/pxhWk9Ovud4qS0kn7tK7K3ZxF79Jb7lfJLj3vXhmxepUG7kuIWetm2NiNtoPtWcCRYGVn8qq45CWsh2z5XyRY7xDV72ba2XkhaPPyUxY5+qSAs5z4tJw2R/CUCsq2ROL9lSW3LyuXHtR80m1jqsdoktXlmvHNkE36zIpPtLMPbKeuV6xy3t+bbREh+9sl65XriVrO+V9cr18KnmTCB7ras0Y45CWjx2l8SJb/AevV6ZUtLi0VvjUxVpyS2UG9fOlMrr+S3bpbaQfO4qsa9mE3v1l/pGelO+eddlOfjGSJSVI8etDIky6RFxG82nnmeCJ1uOQFrYzpZn7d6kpadPxaSFN00OYJZj41NliWxKT4uxUlty8rlxbXPPTVxqC9lmzbH6tT+yDd8kGv56DdbWHKs/ZU3PuKXW3TpW46s1x+pP2dgDtxo7rDlW/z19KsGI7NUX2ar7Svw6GmmJYV/iD88/Emlhm2S5xadi0sILW4ta/TwvVtbMielp0VdqC8nnrhK7SjZxiV6SLfWN51j+la4P30oRm+VHjlsdIr5ZI+I2mk8lZ4L2ndtcclboNvfHyqORFrI9dsVsT/UdibTE/CmJEfvJPm0iLa2MqXGAHWldbrVl6/ySTVzqe41tNXMsu+CbhUy6vyYGNXMsK3rGzVqzRX8NBjVzLFt74FZjX82ce/lUgpH2g9tcss26zf2x8mikJWZjTR/f4GvmWnNK3mlhHSWx4DlWyT5VkxZSrA3SbWtx3V87T+tp0S61heW5JBususe+kk3s0SdlpF2yP1WnOakrNVePwTeNiK89ctx8CNRJjYjbaD6VnAnad25zyVmi29wfK49GWsh264rZb/XxDd4ar+mvJS2WPyVxInvZp02khRTxwlzWgLFlbs16qTmltrA8l1I393Epx6x6ySa2dFj9JXawjtSc1BjPlyV8k2j466U4k+bUnNRYzKqecYut16qv1M8z4DaaTyW5Rb7ri2MW6/fk0dFIi2Vzadz5Bm/pq+mvJS3WWrU+FZMWnRyptmWs7i81Xs9v2S6xRcvGsCDbtFzK3pJNnNITGyuxg+fHfJJ9LOcp4ZsHpbXMyHFbe9uuZ0TcRvOp5EzQvnObS84c3eb+WHk00kK2W1fMfqvvSKTF8qckTuQn+1RMWiyQtvSXGr9lrdzcvW0p2cQ5X/Q4fNOItGsjbu2wbKVpxHwfzaee+8aTR0ciLR57vTJ8g/fKe+RqnrR49Hpl2CeQFoXYaIeCdA++STTa1nseviPHrW0UQm0j4jaaTz33TZgN8RZISxyXWC9Ii0Bl740oTCn6KkfOa1XvuYn3xhm+1WXJyHGrQ8Q3a0TcRvOp55ngyRKQFg9KswxIi8Bq740oTAFpkWA0rvc8oPbOIfjWOFkaqBsxJ0bzqee+8aQQSIsHpVnm1KSFNk7q8sMwS+69EaW9pbbE5GN9co1Uvecm3mIXzbWulD9yDL5JNPz1kePmR6FcckTcRvOp9EyI+R/r82bLEUkL+WNdXr/4/Q+vvEduC2mx/CmJHfvU/J2WEiMYqJo5PLd1WWoLycuL7JFtrnvtLN3EXr1sl1ee7aZSz+U+3Z/TDd9yCMXHJd5xiaX3bHFbLG9fGxG30XwqPRNkfjMWuo/7PRl1BNIi7Sebpf1WPecb3+BzciXjJaSlp0/VpEUapeslQJCsDEzp3NbyJbZIWa5zWetX6SYu8V/a5pkn5T31nE74lkMoPi6xj0uEvVLeUw9nr1s947ZerV2P9N2jVcp76jmdPXCTduXWp3Ep76nndLb2qURfzP5YX84HOX4E0tIjTnuTlp4+VZMWGXhZl0kk+1P1mjkpfVvGSmwhWe/ltalkE3t1slyJbzRHyqf8ZP25Er7lEIqPyzjEJcJeKX/0uIWWt21JHDyapfxRcZM2juBTyZmQioke82BDMkclLdofbnv9OiJpYR90WepTMWnRC6baXmNIx1H+ldji0xk8UwAACZZJREFUlfXKEQYlm7gUsxI7SLeU99Rz9sC3HELxcYl9XCLslfKeejh73eoZt/Vq7Xqk7x6tUt5Tz+nsgZu0K7c+jUt5Tz2ns7VPJfqk/Sk7vXKk46ikhf2Tvsg6j1vlEUkL2yr9kHUet0r2qZi0xBSWLNxjfkxnbV+NLzTHukrtKNnEpbpLfJP+0DpyrlXP2QPfcgjFxyXecYml92xxWyxvXxsRt9F8qjkTZI7remkWHYG0SB/Ifhljq57zk2/wObmS8VO/0yKB1CDH2jlgtL6cfM/xGlusOVZ/yv6aTZzSJ8dK7ZHyVLcuuUaqDt9S6NhjMg621DIi5a2YSZllZrzWM27xFdv0lvhIK0r5o+ImbfSgJOWP6FNNbkmfJAZWv5TR9SOQFrJJ2t4iTnuTlp4+VT9pYZAlwNpQnSBWm3VZ4/fsr7FFYqDrpbbXbGLvGqW+WfJWf84O+JZDKD5eirclb/XHV116e8ZtWaV9rdRfS97qz1ncA7dSWyx5q//ePtVgRLZbV85+PX5E0iJtrI3T0UhLS5+qSQsZwYDqUhroqfN8j2xvmRpbauZYftRsYkuX7i+1U8pT3br0OlYbvlnIpPtlHNKS86iUt2ImZXI6e8Ytt/aW8RIfaR0pf1TcpI0ebKT8EX2qyS3pkweDlMwRSUuLOB2NtLT0qZq0yMSx6qlkkWNyvuzfo15jC81JXSV+1Gxir/5S39gnrb9UD8+Hb4xEWVmK95niVoZEmfSIuI3mU82ZwPltlSVZciTSEottrM/j31FIS8z+WF+JT8WkhRbUi8baui9lVIlsSk+LsRpbUnNSYzF7azZxTE+sr8QWkrXkrf7YmrIPvkk0/PUSvM8WNz8K5ZIj4jaaTzVnQgqD1Fgsg45AWshmy26rP+aL7NubtPT0qZi0SGConjJOy1rt2sBY+rb019jCGFhliT01m9irv8Y30m35xf3e9eGbF6lQbuS4hZ62bY2I22g+1ZwJfO5YZUkWHYG0SHstn7hfyqbqe5MWaRvbbpVSNlVnnzaTltQi3jFy5ij/9ralZhN7sYNvXqTK5RC3csx6zxgx30fzqee+8eTX0UiLx2aPDN/gPbJemZKfPHt1lsixTyAtCrXRDgXpHnyTaLSt9zx8R45b2yiE2kbEbTSfeu6bMBviLZCWOC6xXpAWgcreG1GYYn63KGV61ntu4r1xhm91mTNy3OoQ8c0aEbfRfOp5JniyBKTFg9IsA9IisNp7IwpTQFokGI3rPQ+ovXMIvjVOlgbqRsyJ0XzquW88KQTS4kFplgFpEVjtvRGFKZtIC/lhXXKNVL3nJt4bZ/iWirw9NnLcbK+3j4yI22g+bTkTCAvr8mYPSIsXqcsFpEVgtfdGFKYUkRa5YUiH9MOqy7Vi9S2bOKZP9kmbZP+96vCtDumR41aHiG/WiLiN5lPJmUC+80UZILGw6rlMAWnJIbSMg7QsWATJJ7p3qcrk9xgg5T31nM6STZzTpcelfXrsHm34VofyyHGrQ8Q3a0TcRvOp9EyQ/nvquUwBackhtIyDtCxYDEVaaCPFLuFuslq6iZPK1KDc5GroLk34VgfzyHGrQ8Q3a0TcRvOp9EyQ/lPdunwZcrmAtHiRwtdDAVIyEYOBHRqltkh5Tz3nUukmzumT49I+2X+vOnyrQ3rkuNUh4ps1Im6j+VR6Jkj/PfVcpoC05BBaxvGkZcHitE9aaNPwRe602ESlm1jAmK1K+7LCHQTgWx2oI8etDhHfrBFxG82nkjOBfOeLMkBiYdVzmQLSkkNoGQdpWbAIkk9071KVye8xQMpT3bo8ukimZBN7dbKctJX77lnCtzq0R45bHSK+WSPiNppPpWeC9J/q1uXLEHw95MWJ5EBaBFoyEUX3LtVSWyx5qz/nVOkmzumT47U2SR1b6vCtDr2R41aHiG/WiLiN5lPpmWD5b/XnMgVPWnIILeMgLQsWeNIisCjdxGJqtlq7sbOKnQLwzQmUEhs5bsrVps0RcRvNp9IzQfpPdevyJhJIixcpPGkJkJKJGAzs0Ci1hTeNNrVUD88v3cQ8z1PW2uTR7ZGBbx6U1jIjx23tbbueEXEbzafSM4H8j2EQ6/NkEkiLB6VZBk9aBFa1CSdUNKuW2EKylrzVnzO0dBPn9MnxWpukji11+FaH3shxq0PEN2tE3EbzqeRMIN8t/63+XKaAtOQQWsZBWhYszEQUIner1iY/byir9DpQsom9Olmu1jeev7WEb3UIjhy3OkR8s0bEbTSfas8EwiF1+TIEL+J6cSI5kBaB1t4bUZiyO4Gq3cTSB6u+N87wzYpMun/kuKU93zY6Im6j+dTzTPBkD560eFCaZUBaBFZ7b0RhCkiLBKNxvecBtXcOwbfGydJA3Yg5MZpPPfeNJ4VAWjwozTIgLQKrvTeiMAWkRYLRuN7zgNo7h+Bb42RpoG7EnBjNp577xpNCIC0elGYZkBaB1d4bUZgC0iLBaFzveUDtnUPwrXGyNFA3Yk6M5lPPfeNJIZAWD0qzDEiLwGrvjShMAWmRYDSu9zyg9s4h+NY4WRqoGzEnRvOp577xpBBIiwelWQakRWC190YUpoC0SDAa13seUHvnEHxrnCwN1I2YE6P51HPfeFIIpMWD0iwD0iKw2nsjClNAWiQYjes9D6i9cwi+NU6WBupGzInRfOq5bzwpBNLiQWmWAWkRWO29EYUpIC0SjMb1ngfU3jkE3xonSwN1I+bEaD713DeeFAJp8aA0y4C0CKz23ojCFJAWCUbjes8Dau8cgm+Nk6WBuhFzYjSfeu4bTwqBtHhQmmVAWgRWe29EYQpIiwSjcb3nAbV3DsG3xsnSQN2IOTGaTz33jSeFQFo8KM0yIC0Cq703ojAFpEWC0bje84DaO4fgW+NkaaBuxJwYzaee+8aTQiAtHpRmGZAWgdXeG1GYAtIiwWhc73lA7Z1D8K1xsjRQN2JOjOZTz33jSSGQFg9KswxIi8Bq740oTAFpkWA0rvc8oPbOIfjWOFkaqBsxJ0bzqee+8aQQSIsHpVnmUKTl888/v3z8+HG3a++NKMNGtuyJBcdC2tSqDt/65Tji1ipL2+kZMd9H84lIy5/+9Kfdztwvv/zyQsSl9T+6wf/5z3/eza9f/vKXl6+++qqpW0fx6enbb7+9kIOUPHtdX3zxRVNwtygjW/bCgdf99OnTFhfMuSP7RocP47dX2StuI/tmJmuDgb3znc5VOl9b/tvbJ9pbLfOcCMte+5XX/frrr1uGaNL129/+dne/vvnmm6Z+HcWn/w+i3ccaw57EmAAAAABJRU5ErkJggg==;" vertex="1" parent="1">
          <mxGeometry x="170" y="560" width="557" height="294" as="geometry" />
        </mxCell>
      </root>
    </mxGraphModel>
  </diagram>
  <diagram id="ahypxI6vqeIq9gUOU6x4" name="ER图">
    <mxGraphModel dx="1534" dy="781" grid="1" gridSize="10" guides="1" tooltips="1" connect="1" arrows="1" fold="1" page="1" pageScale="1" pageWidth="827" pageHeight="1169" math="0" shadow="0">
      <root>
        <mxCell id="0" />
        <mxCell id="1" parent="0" />
        <mxCell id="AInqoIT70InwHCszzeuA-1" value="摄影分享交流网站" style="rounded=0;whiteSpace=wrap;html=1;" vertex="1" parent="1">
          <mxGeometry x="110" y="380" width="100" height="40" as="geometry" />
        </mxCell>
        <mxCell id="AInqoIT70InwHCszzeuA-5" value="提供" style="rhombus;whiteSpace=wrap;html=1;rounded=0;" vertex="1" parent="1">
          <mxGeometry x="320" y="360" width="90" height="60" as="geometry" />
        </mxCell>
        <mxCell id="AInqoIT70InwHCszzeuA-7" value="摄影作品" style="whiteSpace=wrap;html=1;rounded=0;" vertex="1" parent="1">
          <mxGeometry x="480" y="340" width="100" height="40" as="geometry" />
        </mxCell>
        <mxCell id="AInqoIT70InwHCszzeuA-9" value="查询" style="rhombus;whiteSpace=wrap;html=1;rounded=0;" vertex="1" parent="1">
          <mxGeometry x="90" y="270" width="80" height="60" as="geometry" />
        </mxCell>
        <mxCell id="AInqoIT70InwHCszzeuA-11" value="用户" style="whiteSpace=wrap;html=1;rounded=0;" vertex="1" parent="1">
          <mxGeometry x="250" y="200" width="100" height="40" as="geometry" />
        </mxCell>
        <mxCell id="AInqoIT70InwHCszzeuA-14" value="" style="endArrow=none;html=1;rounded=0;entryX=0.5;entryY=1;entryDx=0;entryDy=0;exitX=0.5;exitY=0;exitDx=0;exitDy=0;" edge="1" parent="1" source="AInqoIT70InwHCszzeuA-9" target="AInqoIT70InwHCszzeuA-11">
          <mxGeometry width="50" height="50" relative="1" as="geometry">
            <mxPoint x="150" y="270" as="sourcePoint" />
            <mxPoint x="200" y="220" as="targetPoint" />
          </mxGeometry>
        </mxCell>
        <mxCell id="AInqoIT70InwHCszzeuA-15" value="1" style="edgeLabel;html=1;align=center;verticalAlign=middle;resizable=0;points=[];" vertex="1" connectable="0" parent="AInqoIT70InwHCszzeuA-14">
          <mxGeometry x="0.1126" y="-2" relative="1" as="geometry">
            <mxPoint as="offset" />
          </mxGeometry>
        </mxCell>
        <mxCell id="AInqoIT70InwHCszzeuA-20" value="" style="endArrow=none;html=1;rounded=0;entryX=0.5;entryY=1;entryDx=0;entryDy=0;exitX=0.5;exitY=0;exitDx=0;exitDy=0;" edge="1" parent="1" source="AInqoIT70InwHCszzeuA-1" target="AInqoIT70InwHCszzeuA-9">
          <mxGeometry width="50" height="50" relative="1" as="geometry">
            <mxPoint x="220" y="360" as="sourcePoint" />
            <mxPoint x="270" y="310" as="targetPoint" />
          </mxGeometry>
        </mxCell>
        <mxCell id="AInqoIT70InwHCszzeuA-21" value="n" style="edgeLabel;html=1;align=center;verticalAlign=middle;resizable=0;points=[];" vertex="1" connectable="0" parent="AInqoIT70InwHCszzeuA-20">
          <mxGeometry x="0.0023" y="1" relative="1" as="geometry">
            <mxPoint as="offset" />
          </mxGeometry>
        </mxCell>
        <mxCell id="AInqoIT70InwHCszzeuA-24" value="" style="endArrow=none;html=1;rounded=0;exitX=1;exitY=0.5;exitDx=0;exitDy=0;entryX=0;entryY=0.5;entryDx=0;entryDy=0;" edge="1" parent="1" source="AInqoIT70InwHCszzeuA-1" target="AInqoIT70InwHCszzeuA-5">
          <mxGeometry width="50" height="50" relative="1" as="geometry">
            <mxPoint x="300" y="480" as="sourcePoint" />
            <mxPoint x="350" y="430" as="targetPoint" />
          </mxGeometry>
        </mxCell>
        <mxCell id="AInqoIT70InwHCszzeuA-25" value="1" style="edgeLabel;html=1;align=center;verticalAlign=middle;resizable=0;points=[];" vertex="1" connectable="0" parent="AInqoIT70InwHCszzeuA-24">
          <mxGeometry x="0.0182" y="-1" relative="1" as="geometry">
            <mxPoint as="offset" />
          </mxGeometry>
        </mxCell>
        <mxCell id="AInqoIT70InwHCszzeuA-26" value="用户ID" style="ellipse;whiteSpace=wrap;html=1;" vertex="1" parent="1">
          <mxGeometry x="10" y="130" width="80" height="40" as="geometry" />
        </mxCell>
        <mxCell id="AInqoIT70InwHCszzeuA-27" value="用户名" style="ellipse;whiteSpace=wrap;html=1;" vertex="1" parent="1">
          <mxGeometry x="40" y="70" width="80" height="40" as="geometry" />
        </mxCell>
        <mxCell id="AInqoIT70InwHCszzeuA-28" value="密码" style="ellipse;whiteSpace=wrap;html=1;" vertex="1" parent="1">
          <mxGeometry x="120" y="30" width="80" height="40" as="geometry" />
        </mxCell>
        <mxCell id="AInqoIT70InwHCszzeuA-29" value="性别" style="ellipse;whiteSpace=wrap;html=1;" vertex="1" parent="1">
          <mxGeometry x="210" y="30" width="80" height="40" as="geometry" />
        </mxCell>
        <mxCell id="AInqoIT70InwHCszzeuA-30" value="电话" style="ellipse;whiteSpace=wrap;html=1;" vertex="1" parent="1">
          <mxGeometry x="310" y="40" width="80" height="40" as="geometry" />
        </mxCell>
        <mxCell id="AInqoIT70InwHCszzeuA-31" value="创建时间" style="ellipse;whiteSpace=wrap;html=1;" vertex="1" parent="1">
          <mxGeometry x="400" y="60" width="80" height="40" as="geometry" />
        </mxCell>
        <mxCell id="AInqoIT70InwHCszzeuA-32" value="" style="endArrow=none;html=1;rounded=0;entryX=0.5;entryY=1;entryDx=0;entryDy=0;exitX=0.5;exitY=0;exitDx=0;exitDy=0;" edge="1" parent="1" source="AInqoIT70InwHCszzeuA-11" target="AInqoIT70InwHCszzeuA-26">
          <mxGeometry width="50" height="50" relative="1" as="geometry">
            <mxPoint x="100" y="180" as="sourcePoint" />
            <mxPoint x="150" y="130" as="targetPoint" />
          </mxGeometry>
        </mxCell>
        <mxCell id="AInqoIT70InwHCszzeuA-33" value="" style="endArrow=none;html=1;rounded=0;entryX=0.5;entryY=1;entryDx=0;entryDy=0;exitX=0.5;exitY=0;exitDx=0;exitDy=0;" edge="1" parent="1" source="AInqoIT70InwHCszzeuA-11" target="AInqoIT70InwHCszzeuA-27">
          <mxGeometry width="50" height="50" relative="1" as="geometry">
            <mxPoint x="250" y="180" as="sourcePoint" />
            <mxPoint x="300" y="130" as="targetPoint" />
          </mxGeometry>
        </mxCell>
        <mxCell id="AInqoIT70InwHCszzeuA-34" value="" style="endArrow=none;html=1;rounded=0;exitX=0.5;exitY=0;exitDx=0;exitDy=0;entryX=0.5;entryY=1;entryDx=0;entryDy=0;" edge="1" parent="1" source="AInqoIT70InwHCszzeuA-11" target="AInqoIT70InwHCszzeuA-28">
          <mxGeometry width="50" height="50" relative="1" as="geometry">
            <mxPoint x="350" y="190" as="sourcePoint" />
            <mxPoint x="400" y="140" as="targetPoint" />
          </mxGeometry>
        </mxCell>
        <mxCell id="AInqoIT70InwHCszzeuA-35" value="" style="endArrow=none;html=1;rounded=0;entryX=0.5;entryY=1;entryDx=0;entryDy=0;" edge="1" parent="1" target="AInqoIT70InwHCszzeuA-29">
          <mxGeometry width="50" height="50" relative="1" as="geometry">
            <mxPoint x="300" y="200" as="sourcePoint" />
            <mxPoint x="530" y="140" as="targetPoint" />
          </mxGeometry>
        </mxCell>
        <mxCell id="AInqoIT70InwHCszzeuA-36" value="" style="endArrow=none;html=1;rounded=0;exitX=0.5;exitY=0;exitDx=0;exitDy=0;entryX=0.5;entryY=1;entryDx=0;entryDy=0;" edge="1" parent="1" source="AInqoIT70InwHCszzeuA-11" target="AInqoIT70InwHCszzeuA-30">
          <mxGeometry width="50" height="50" relative="1" as="geometry">
            <mxPoint x="440" y="190" as="sourcePoint" />
            <mxPoint x="490" y="140" as="targetPoint" />
          </mxGeometry>
        </mxCell>
        <mxCell id="AInqoIT70InwHCszzeuA-37" value="" style="endArrow=none;html=1;rounded=0;exitX=0.5;exitY=0;exitDx=0;exitDy=0;entryX=0.5;entryY=1;entryDx=0;entryDy=0;" edge="1" parent="1" source="AInqoIT70InwHCszzeuA-11" target="AInqoIT70InwHCszzeuA-31">
          <mxGeometry width="50" height="50" relative="1" as="geometry">
            <mxPoint x="450" y="230" as="sourcePoint" />
            <mxPoint x="500" y="180" as="targetPoint" />
          </mxGeometry>
        </mxCell>
        <mxCell id="AInqoIT70InwHCszzeuA-39" value="创建时间" style="ellipse;whiteSpace=wrap;html=1;" vertex="1" parent="1">
          <mxGeometry x="550" y="180" width="80" height="40" as="geometry" />
        </mxCell>
        <mxCell id="AInqoIT70InwHCszzeuA-40" value="作品名称" style="ellipse;whiteSpace=wrap;html=1;" vertex="1" parent="1">
          <mxGeometry x="610" y="130" width="80" height="40" as="geometry" />
        </mxCell>
        <mxCell id="AInqoIT70InwHCszzeuA-41" value="作品分类" style="ellipse;whiteSpace=wrap;html=1;" vertex="1" parent="1">
          <mxGeometry x="690" y="140" width="80" height="40" as="geometry" />
        </mxCell>
        <mxCell id="AInqoIT70InwHCszzeuA-42" value="作品封面" style="ellipse;whiteSpace=wrap;html=1;" vertex="1" parent="1">
          <mxGeometry x="760" y="180" width="80" height="40" as="geometry" />
        </mxCell>
        <mxCell id="AInqoIT70InwHCszzeuA-43" value="作品简介" style="ellipse;whiteSpace=wrap;html=1;" vertex="1" parent="1">
          <mxGeometry x="820" y="230" width="80" height="40" as="geometry" />
        </mxCell>
        <mxCell id="AInqoIT70InwHCszzeuA-44" value="作品内容" style="ellipse;whiteSpace=wrap;html=1;" vertex="1" parent="1">
          <mxGeometry x="860" y="300" width="80" height="40" as="geometry" />
        </mxCell>
        <mxCell id="AInqoIT70InwHCszzeuA-45" value="发布日期" style="ellipse;whiteSpace=wrap;html=1;" vertex="1" parent="1">
          <mxGeometry x="850" y="370" width="80" height="40" as="geometry" />
        </mxCell>
        <mxCell id="AInqoIT70InwHCszzeuA-46" value="用户名" style="ellipse;whiteSpace=wrap;html=1;" vertex="1" parent="1">
          <mxGeometry x="780" y="450" width="80" height="40" as="geometry" />
        </mxCell>
        <mxCell id="AInqoIT70InwHCszzeuA-47" value="点赞" style="ellipse;whiteSpace=wrap;html=1;" vertex="1" parent="1">
          <mxGeometry x="690" y="500" width="80" height="40" as="geometry" />
        </mxCell>
        <mxCell id="AInqoIT70InwHCszzeuA-48" value="踩" style="ellipse;whiteSpace=wrap;html=1;" vertex="1" parent="1">
          <mxGeometry x="590" y="530" width="80" height="40" as="geometry" />
        </mxCell>
        <mxCell id="AInqoIT70InwHCszzeuA-49" value="" style="endArrow=none;html=1;rounded=0;entryX=0.5;entryY=1;entryDx=0;entryDy=0;exitX=1;exitY=0.5;exitDx=0;exitDy=0;" edge="1" parent="1" source="AInqoIT70InwHCszzeuA-7" target="AInqoIT70InwHCszzeuA-39">
          <mxGeometry width="50" height="50" relative="1" as="geometry">
            <mxPoint x="640" y="390" as="sourcePoint" />
            <mxPoint x="690" y="340" as="targetPoint" />
          </mxGeometry>
        </mxCell>
        <mxCell id="AInqoIT70InwHCszzeuA-50" value="" style="endArrow=none;html=1;rounded=0;entryX=0;entryY=0.5;entryDx=0;entryDy=0;" edge="1" parent="1" target="AInqoIT70InwHCszzeuA-7">
          <mxGeometry width="50" height="50" relative="1" as="geometry">
            <mxPoint x="410" y="390" as="sourcePoint" />
            <mxPoint x="460" y="340" as="targetPoint" />
          </mxGeometry>
        </mxCell>
        <mxCell id="AInqoIT70InwHCszzeuA-51" value="n" style="edgeLabel;html=1;align=center;verticalAlign=middle;resizable=0;points=[];" vertex="1" connectable="0" parent="AInqoIT70InwHCszzeuA-50">
          <mxGeometry x="-0.1228" y="-1" relative="1" as="geometry">
            <mxPoint as="offset" />
          </mxGeometry>
        </mxCell>
        <mxCell id="AInqoIT70InwHCszzeuA-52" value="" style="endArrow=none;html=1;rounded=0;entryX=0.5;entryY=1;entryDx=0;entryDy=0;" edge="1" parent="1" target="AInqoIT70InwHCszzeuA-40">
          <mxGeometry width="50" height="50" relative="1" as="geometry">
            <mxPoint x="580" y="360" as="sourcePoint" />
            <mxPoint x="700" y="280" as="targetPoint" />
          </mxGeometry>
        </mxCell>
        <mxCell id="AInqoIT70InwHCszzeuA-53" value="" style="endArrow=none;html=1;rounded=0;" edge="1" parent="1">
          <mxGeometry width="50" height="50" relative="1" as="geometry">
            <mxPoint x="580" y="360" as="sourcePoint" />
            <mxPoint x="730" y="180" as="targetPoint" />
          </mxGeometry>
        </mxCell>
        <mxCell id="AInqoIT70InwHCszzeuA-54" value="" style="endArrow=none;html=1;rounded=0;" edge="1" parent="1">
          <mxGeometry width="50" height="50" relative="1" as="geometry">
            <mxPoint x="580" y="360" as="sourcePoint" />
            <mxPoint x="794" y="220" as="targetPoint" />
          </mxGeometry>
        </mxCell>
        <mxCell id="AInqoIT70InwHCszzeuA-55" value="" style="endArrow=none;html=1;rounded=0;entryX=0;entryY=0.5;entryDx=0;entryDy=0;" edge="1" parent="1" target="AInqoIT70InwHCszzeuA-43">
          <mxGeometry width="50" height="50" relative="1" as="geometry">
            <mxPoint x="580" y="360" as="sourcePoint" />
            <mxPoint x="790" y="340" as="targetPoint" />
          </mxGeometry>
        </mxCell>
        <mxCell id="AInqoIT70InwHCszzeuA-56" value="" style="endArrow=none;html=1;rounded=0;entryX=0;entryY=0.5;entryDx=0;entryDy=0;" edge="1" parent="1" target="AInqoIT70InwHCszzeuA-44">
          <mxGeometry width="50" height="50" relative="1" as="geometry">
            <mxPoint x="580" y="360" as="sourcePoint" />
            <mxPoint x="760" y="370" as="targetPoint" />
          </mxGeometry>
        </mxCell>
        <mxCell id="AInqoIT70InwHCszzeuA-57" value="" style="endArrow=none;html=1;rounded=0;entryX=0;entryY=0.5;entryDx=0;entryDy=0;" edge="1" parent="1" target="AInqoIT70InwHCszzeuA-45">
          <mxGeometry width="50" height="50" relative="1" as="geometry">
            <mxPoint x="580" y="360" as="sourcePoint" />
            <mxPoint x="740" y="410" as="targetPoint" />
          </mxGeometry>
        </mxCell>
        <mxCell id="AInqoIT70InwHCszzeuA-58" value="" style="endArrow=none;html=1;rounded=0;entryX=0;entryY=0.5;entryDx=0;entryDy=0;" edge="1" parent="1" target="AInqoIT70InwHCszzeuA-46">
          <mxGeometry width="50" height="50" relative="1" as="geometry">
            <mxPoint x="580" y="360" as="sourcePoint" />
            <mxPoint x="730" y="430" as="targetPoint" />
          </mxGeometry>
        </mxCell>
        <mxCell id="AInqoIT70InwHCszzeuA-59" value="" style="endArrow=none;html=1;rounded=0;entryX=0.5;entryY=0;entryDx=0;entryDy=0;" edge="1" parent="1" target="AInqoIT70InwHCszzeuA-47">
          <mxGeometry width="50" height="50" relative="1" as="geometry">
            <mxPoint x="580" y="360" as="sourcePoint" />
            <mxPoint x="690" y="460" as="targetPoint" />
          </mxGeometry>
        </mxCell>
        <mxCell id="AInqoIT70InwHCszzeuA-60" value="" style="endArrow=none;html=1;rounded=0;entryX=1;entryY=0.5;entryDx=0;entryDy=0;exitX=0.5;exitY=0;exitDx=0;exitDy=0;" edge="1" parent="1" source="AInqoIT70InwHCszzeuA-48" target="AInqoIT70InwHCszzeuA-7">
          <mxGeometry width="50" height="50" relative="1" as="geometry">
            <mxPoint x="580" y="500" as="sourcePoint" />
            <mxPoint x="630" y="450" as="targetPoint" />
          </mxGeometry>
        </mxCell>
      </root>
    </mxGraphModel>
  </diagram>
</mxfile>
